<?xml version="1.0" encoding="utf-8" standalone="no"?>
<!DOCTYPE svg PUBLIC "-//W3C//DTD SVG 1.1//EN"
  "http://www.w3.org/Graphics/SVG/1.1/DTD/svg11.dtd">
<svg xmlns:xlink="http://www.w3.org/1999/xlink" width="504pt" height="360pt" viewBox="0 0 504 360" xmlns="http://www.w3.org/2000/svg" version="1.1">
 <metadata>
  <rdf:RDF xmlns:dc="http://purl.org/dc/elements/1.1/" xmlns:cc="http://creativecommons.org/ns#" xmlns:rdf="http://www.w3.org/1999/02/22-rdf-syntax-ns#">
   <cc:Work>
    <dc:type rdf:resource="http://purl.org/dc/dcmitype/StillImage"/>
    <dc:date>2025-04-27T21:54:00.128045</dc:date>
    <dc:format>image/svg+xml</dc:format>
    <dc:creator>
     <cc:Agent>
      <dc:title>Matplotlib v3.10.1, https://matplotlib.org/</dc:title>
     </cc:Agent>
    </dc:creator>
   </cc:Work>
  </rdf:RDF>
 </metadata>
 <defs>
  <style type="text/css">*{stroke-linejoin: round; stroke-linecap: butt}</style>
 </defs>
 <g id="figure_1">
  <g id="patch_1">
   <path d="M 0 360 
L 504 360 
L 504 0 
L 0 0 
z
" style="fill: #ffffff"/>
  </g>
  <g id="axes_1">
   <g id="patch_2">
    <path d="M 45.6 257.142857 
L 444 257.142857 
L 444 19.714286 
L 45.6 19.714286 
z
" style="fill: #ffffff"/>
   </g>
   <g id="matplotlib.axis_1">
    <g id="xtick_1">
     <g id="line2d_1">
      <defs>
       <path id="m675a66f849" d="M 0 0 
L 0 3.5 
" style="stroke: #000000; stroke-width: 0.8"/>
      </defs>
      <g>
       <use xlink:href="#m675a66f849" x="63.709091" y="257.142857" style="stroke: #000000; stroke-width: 0.8"/>
      </g>
     </g>
     <g id="text_1">
      <!-- 2024-05 -->
      <g transform="translate(40.37831 273.864107) scale(0.14 -0.14)">
       <defs>
        <path id="TimesNewRomanPSMT-32" d="M 2934 816 
L 2638 0 
L 138 0 
L 138 116 
Q 1241 1122 1691 1759 
Q 2141 2397 2141 2925 
Q 2141 3328 1894 3587 
Q 1647 3847 1303 3847 
Q 991 3847 742 3664 
Q 494 3481 375 3128 
L 259 3128 
Q 338 3706 661 4015 
Q 984 4325 1469 4325 
Q 1984 4325 2329 3994 
Q 2675 3663 2675 3213 
Q 2675 2891 2525 2569 
Q 2294 2063 1775 1497 
Q 997 647 803 472 
L 1909 472 
Q 2247 472 2383 497 
Q 2519 522 2628 598 
Q 2738 675 2819 816 
L 2934 816 
z
" transform="scale(0.015625)"/>
        <path id="TimesNewRomanPSMT-30" d="M 231 2094 
Q 231 2819 450 3342 
Q 669 3866 1031 4122 
Q 1313 4325 1613 4325 
Q 2100 4325 2488 3828 
Q 2972 3213 2972 2159 
Q 2972 1422 2759 906 
Q 2547 391 2217 158 
Q 1888 -75 1581 -75 
Q 975 -75 572 641 
Q 231 1244 231 2094 
z
M 844 2016 
Q 844 1141 1059 588 
Q 1238 122 1591 122 
Q 1759 122 1940 273 
Q 2122 425 2216 781 
Q 2359 1319 2359 2297 
Q 2359 3022 2209 3506 
Q 2097 3866 1919 4016 
Q 1791 4119 1609 4119 
Q 1397 4119 1231 3928 
Q 1006 3669 925 3112 
Q 844 2556 844 2016 
z
" transform="scale(0.015625)"/>
        <path id="TimesNewRomanPSMT-34" d="M 2978 1563 
L 2978 1119 
L 2409 1119 
L 2409 0 
L 1894 0 
L 1894 1119 
L 100 1119 
L 100 1519 
L 2066 4325 
L 2409 4325 
L 2409 1563 
L 2978 1563 
z
M 1894 1563 
L 1894 3666 
L 406 1563 
L 1894 1563 
z
" transform="scale(0.015625)"/>
        <path id="TimesNewRomanPSMT-2d" d="M 259 1672 
L 1875 1672 
L 1875 1200 
L 259 1200 
L 259 1672 
z
" transform="scale(0.015625)"/>
        <path id="TimesNewRomanPSMT-35" d="M 2778 4238 
L 2534 3706 
L 1259 3706 
L 981 3138 
Q 1809 3016 2294 2522 
Q 2709 2097 2709 1522 
Q 2709 1188 2573 903 
Q 2438 619 2231 419 
Q 2025 219 1772 97 
Q 1413 -75 1034 -75 
Q 653 -75 479 54 
Q 306 184 306 341 
Q 306 428 378 495 
Q 450 563 559 563 
Q 641 563 702 538 
Q 763 513 909 409 
Q 1144 247 1384 247 
Q 1750 247 2026 523 
Q 2303 800 2303 1197 
Q 2303 1581 2056 1914 
Q 1809 2247 1375 2428 
Q 1034 2569 447 2591 
L 1259 4238 
L 2778 4238 
z
" transform="scale(0.015625)"/>
       </defs>
       <use xlink:href="#TimesNewRomanPSMT-32"/>
       <use xlink:href="#TimesNewRomanPSMT-30" transform="translate(50 0)"/>
       <use xlink:href="#TimesNewRomanPSMT-32" transform="translate(100 0)"/>
       <use xlink:href="#TimesNewRomanPSMT-34" transform="translate(150 0)"/>
       <use xlink:href="#TimesNewRomanPSMT-2d" transform="translate(200 0)"/>
       <use xlink:href="#TimesNewRomanPSMT-30" transform="translate(233.300781 0)"/>
       <use xlink:href="#TimesNewRomanPSMT-35" transform="translate(283.300781 0)"/>
      </g>
     </g>
    </g>
    <g id="xtick_2">
     <g id="line2d_2">
      <g>
       <use xlink:href="#m675a66f849" x="119.017644" y="257.142857" style="stroke: #000000; stroke-width: 0.8"/>
      </g>
     </g>
     <g id="text_2">
      <!-- 2024-06 -->
      <g transform="translate(95.686863 273.864107) scale(0.14 -0.14)">
       <defs>
        <path id="TimesNewRomanPSMT-36" d="M 2869 4325 
L 2869 4209 
Q 2456 4169 2195 4045 
Q 1934 3922 1679 3669 
Q 1425 3416 1258 3105 
Q 1091 2794 978 2366 
Q 1428 2675 1881 2675 
Q 2316 2675 2634 2325 
Q 2953 1975 2953 1425 
Q 2953 894 2631 456 
Q 2244 -75 1606 -75 
Q 1172 -75 869 213 
Q 275 772 275 1663 
Q 275 2231 503 2743 
Q 731 3256 1154 3653 
Q 1578 4050 1965 4187 
Q 2353 4325 2688 4325 
L 2869 4325 
z
M 925 2138 
Q 869 1716 869 1456 
Q 869 1156 980 804 
Q 1091 453 1309 247 
Q 1469 100 1697 100 
Q 1969 100 2183 356 
Q 2397 613 2397 1088 
Q 2397 1622 2184 2012 
Q 1972 2403 1581 2403 
Q 1463 2403 1327 2353 
Q 1191 2303 925 2138 
z
" transform="scale(0.015625)"/>
       </defs>
       <use xlink:href="#TimesNewRomanPSMT-32"/>
       <use xlink:href="#TimesNewRomanPSMT-30" transform="translate(50 0)"/>
       <use xlink:href="#TimesNewRomanPSMT-32" transform="translate(100 0)"/>
       <use xlink:href="#TimesNewRomanPSMT-34" transform="translate(150 0)"/>
       <use xlink:href="#TimesNewRomanPSMT-2d" transform="translate(200 0)"/>
       <use xlink:href="#TimesNewRomanPSMT-30" transform="translate(233.300781 0)"/>
       <use xlink:href="#TimesNewRomanPSMT-36" transform="translate(283.300781 0)"/>
      </g>
     </g>
    </g>
    <g id="xtick_3">
     <g id="line2d_3">
      <g>
       <use xlink:href="#m675a66f849" x="172.542051" y="257.142857" style="stroke: #000000; stroke-width: 0.8"/>
      </g>
     </g>
     <g id="text_3">
      <!-- 2024-07 -->
      <g transform="translate(149.21127 273.864107) scale(0.14 -0.14)">
       <defs>
        <path id="TimesNewRomanPSMT-37" d="M 644 4238 
L 2916 4238 
L 2916 4119 
L 1503 -88 
L 1153 -88 
L 2419 3728 
L 1253 3728 
Q 900 3728 750 3644 
Q 488 3500 328 3200 
L 238 3234 
L 644 4238 
z
" transform="scale(0.015625)"/>
       </defs>
       <use xlink:href="#TimesNewRomanPSMT-32"/>
       <use xlink:href="#TimesNewRomanPSMT-30" transform="translate(50 0)"/>
       <use xlink:href="#TimesNewRomanPSMT-32" transform="translate(100 0)"/>
       <use xlink:href="#TimesNewRomanPSMT-34" transform="translate(150 0)"/>
       <use xlink:href="#TimesNewRomanPSMT-2d" transform="translate(200 0)"/>
       <use xlink:href="#TimesNewRomanPSMT-30" transform="translate(233.300781 0)"/>
       <use xlink:href="#TimesNewRomanPSMT-37" transform="translate(283.300781 0)"/>
      </g>
     </g>
    </g>
    <g id="xtick_4">
     <g id="line2d_4">
      <g>
       <use xlink:href="#m675a66f849" x="227.850605" y="257.142857" style="stroke: #000000; stroke-width: 0.8"/>
      </g>
     </g>
     <g id="text_4">
      <!-- 2024-08 -->
      <g transform="translate(204.519823 273.864107) scale(0.14 -0.14)">
       <defs>
        <path id="TimesNewRomanPSMT-38" d="M 1228 2134 
Q 725 2547 579 2797 
Q 434 3047 434 3316 
Q 434 3728 753 4026 
Q 1072 4325 1600 4325 
Q 2113 4325 2425 4047 
Q 2738 3769 2738 3413 
Q 2738 3175 2569 2928 
Q 2400 2681 1866 2347 
Q 2416 1922 2594 1678 
Q 2831 1359 2831 1006 
Q 2831 559 2490 242 
Q 2150 -75 1597 -75 
Q 994 -75 656 303 
Q 388 606 388 966 
Q 388 1247 577 1523 
Q 766 1800 1228 2134 
z
M 1719 2469 
Q 2094 2806 2194 3001 
Q 2294 3197 2294 3444 
Q 2294 3772 2109 3958 
Q 1925 4144 1606 4144 
Q 1288 4144 1088 3959 
Q 888 3775 888 3528 
Q 888 3366 970 3203 
Q 1053 3041 1206 2894 
L 1719 2469 
z
M 1375 2016 
Q 1116 1797 991 1539 
Q 866 1281 866 981 
Q 866 578 1086 336 
Q 1306 94 1647 94 
Q 1984 94 2187 284 
Q 2391 475 2391 747 
Q 2391 972 2272 1150 
Q 2050 1481 1375 2016 
z
" transform="scale(0.015625)"/>
       </defs>
       <use xlink:href="#TimesNewRomanPSMT-32"/>
       <use xlink:href="#TimesNewRomanPSMT-30" transform="translate(50 0)"/>
       <use xlink:href="#TimesNewRomanPSMT-32" transform="translate(100 0)"/>
       <use xlink:href="#TimesNewRomanPSMT-34" transform="translate(150 0)"/>
       <use xlink:href="#TimesNewRomanPSMT-2d" transform="translate(200 0)"/>
       <use xlink:href="#TimesNewRomanPSMT-30" transform="translate(233.300781 0)"/>
       <use xlink:href="#TimesNewRomanPSMT-38" transform="translate(283.300781 0)"/>
      </g>
     </g>
    </g>
    <g id="xtick_5">
     <g id="line2d_5">
      <g>
       <use xlink:href="#m675a66f849" x="283.159158" y="257.142857" style="stroke: #000000; stroke-width: 0.8"/>
      </g>
     </g>
     <g id="text_5">
      <!-- 2024-09 -->
      <g transform="translate(259.828377 273.864107) scale(0.14 -0.14)">
       <defs>
        <path id="TimesNewRomanPSMT-39" d="M 338 -88 
L 338 28 
Q 744 34 1094 217 
Q 1444 400 1770 856 
Q 2097 1313 2225 1859 
Q 1734 1544 1338 1544 
Q 891 1544 572 1889 
Q 253 2234 253 2806 
Q 253 3363 572 3797 
Q 956 4325 1575 4325 
Q 2097 4325 2469 3894 
Q 2925 3359 2925 2575 
Q 2925 1869 2578 1258 
Q 2231 647 1613 244 
Q 1109 -88 516 -88 
L 338 -88 
z
M 2275 2091 
Q 2331 2497 2331 2741 
Q 2331 3044 2228 3395 
Q 2125 3747 1936 3934 
Q 1747 4122 1506 4122 
Q 1228 4122 1018 3872 
Q 809 3622 809 3128 
Q 809 2469 1088 2097 
Q 1291 1828 1588 1828 
Q 1731 1828 1928 1897 
Q 2125 1966 2275 2091 
z
" transform="scale(0.015625)"/>
       </defs>
       <use xlink:href="#TimesNewRomanPSMT-32"/>
       <use xlink:href="#TimesNewRomanPSMT-30" transform="translate(50 0)"/>
       <use xlink:href="#TimesNewRomanPSMT-32" transform="translate(100 0)"/>
       <use xlink:href="#TimesNewRomanPSMT-34" transform="translate(150 0)"/>
       <use xlink:href="#TimesNewRomanPSMT-2d" transform="translate(200 0)"/>
       <use xlink:href="#TimesNewRomanPSMT-30" transform="translate(233.300781 0)"/>
       <use xlink:href="#TimesNewRomanPSMT-39" transform="translate(283.300781 0)"/>
      </g>
     </g>
    </g>
    <g id="xtick_6">
     <g id="line2d_6">
      <g>
       <use xlink:href="#m675a66f849" x="336.683565" y="257.142857" style="stroke: #000000; stroke-width: 0.8"/>
      </g>
     </g>
     <g id="text_6">
      <!-- 2024-10 -->
      <g transform="translate(313.352783 273.864107) scale(0.14 -0.14)">
       <defs>
        <path id="TimesNewRomanPSMT-31" d="M 750 3822 
L 1781 4325 
L 1884 4325 
L 1884 747 
Q 1884 391 1914 303 
Q 1944 216 2037 169 
Q 2131 122 2419 116 
L 2419 0 
L 825 0 
L 825 116 
Q 1125 122 1212 167 
Q 1300 213 1334 289 
Q 1369 366 1369 747 
L 1369 3034 
Q 1369 3497 1338 3628 
Q 1316 3728 1258 3775 
Q 1200 3822 1119 3822 
Q 1003 3822 797 3725 
L 750 3822 
z
" transform="scale(0.015625)"/>
       </defs>
       <use xlink:href="#TimesNewRomanPSMT-32"/>
       <use xlink:href="#TimesNewRomanPSMT-30" transform="translate(50 0)"/>
       <use xlink:href="#TimesNewRomanPSMT-32" transform="translate(100 0)"/>
       <use xlink:href="#TimesNewRomanPSMT-34" transform="translate(150 0)"/>
       <use xlink:href="#TimesNewRomanPSMT-2d" transform="translate(200 0)"/>
       <use xlink:href="#TimesNewRomanPSMT-31" transform="translate(233.300781 0)"/>
       <use xlink:href="#TimesNewRomanPSMT-30" transform="translate(283.300781 0)"/>
      </g>
     </g>
    </g>
    <g id="xtick_7">
     <g id="line2d_7">
      <g>
       <use xlink:href="#m675a66f849" x="391.992118" y="257.142857" style="stroke: #000000; stroke-width: 0.8"/>
      </g>
     </g>
     <g id="text_7">
      <!-- 2024-11 -->
      <g transform="translate(368.923837 273.864107) scale(0.14 -0.14)">
       <use xlink:href="#TimesNewRomanPSMT-32"/>
       <use xlink:href="#TimesNewRomanPSMT-30" transform="translate(50 0)"/>
       <use xlink:href="#TimesNewRomanPSMT-32" transform="translate(100 0)"/>
       <use xlink:href="#TimesNewRomanPSMT-34" transform="translate(150 0)"/>
       <use xlink:href="#TimesNewRomanPSMT-2d" transform="translate(200 0)"/>
       <use xlink:href="#TimesNewRomanPSMT-31" transform="translate(233.300781 0)"/>
       <use xlink:href="#TimesNewRomanPSMT-31" transform="translate(279.550781 0)"/>
      </g>
     </g>
    </g>
    <g id="text_8">
     <!-- Date -->
     <g transform="translate(231.585313 290.580045) scale(0.14 -0.14)">
      <defs>
       <path id="TimesNewRomanPSMT-44" d="M 109 0 
L 109 116 
L 269 116 
Q 538 116 650 288 
Q 719 391 719 750 
L 719 3488 
Q 719 3884 631 3984 
Q 509 4122 269 4122 
L 109 4122 
L 109 4238 
L 1834 4238 
Q 2784 4238 3279 4022 
Q 3775 3806 4076 3303 
Q 4378 2800 4378 2141 
Q 4378 1256 3841 663 
Q 3238 0 2003 0 
L 109 0 
z
M 1319 306 
Q 1716 219 1984 219 
Q 2709 219 3187 728 
Q 3666 1238 3666 2109 
Q 3666 2988 3187 3494 
Q 2709 4000 1959 4000 
Q 1678 4000 1319 3909 
L 1319 306 
z
" transform="scale(0.015625)"/>
       <path id="TimesNewRomanPSMT-61" d="M 1822 413 
Q 1381 72 1269 19 
Q 1100 -59 909 -59 
Q 613 -59 420 144 
Q 228 347 228 678 
Q 228 888 322 1041 
Q 450 1253 767 1440 
Q 1084 1628 1822 1897 
L 1822 2009 
Q 1822 2438 1686 2597 
Q 1550 2756 1291 2756 
Q 1094 2756 978 2650 
Q 859 2544 859 2406 
L 866 2225 
Q 866 2081 792 2003 
Q 719 1925 600 1925 
Q 484 1925 411 2006 
Q 338 2088 338 2228 
Q 338 2497 613 2722 
Q 888 2947 1384 2947 
Q 1766 2947 2009 2819 
Q 2194 2722 2281 2516 
Q 2338 2381 2338 1966 
L 2338 994 
Q 2338 584 2353 492 
Q 2369 400 2405 369 
Q 2441 338 2488 338 
Q 2538 338 2575 359 
Q 2641 400 2828 588 
L 2828 413 
Q 2478 -56 2159 -56 
Q 2006 -56 1915 50 
Q 1825 156 1822 413 
z
M 1822 616 
L 1822 1706 
Q 1350 1519 1213 1441 
Q 966 1303 859 1153 
Q 753 1003 753 825 
Q 753 600 887 451 
Q 1022 303 1197 303 
Q 1434 303 1822 616 
z
" transform="scale(0.015625)"/>
       <path id="TimesNewRomanPSMT-74" d="M 1031 3803 
L 1031 2863 
L 1700 2863 
L 1700 2644 
L 1031 2644 
L 1031 788 
Q 1031 509 1111 412 
Q 1191 316 1316 316 
Q 1419 316 1516 380 
Q 1613 444 1666 569 
L 1788 569 
Q 1678 263 1478 108 
Q 1278 -47 1066 -47 
Q 922 -47 784 33 
Q 647 113 581 261 
Q 516 409 516 719 
L 516 2644 
L 63 2644 
L 63 2747 
Q 234 2816 414 2980 
Q 594 3144 734 3369 
Q 806 3488 934 3803 
L 1031 3803 
z
" transform="scale(0.015625)"/>
       <path id="TimesNewRomanPSMT-65" d="M 681 1784 
Q 678 1147 991 784 
Q 1303 422 1725 422 
Q 2006 422 2214 576 
Q 2422 731 2563 1106 
L 2659 1044 
Q 2594 616 2278 264 
Q 1963 -88 1488 -88 
Q 972 -88 605 314 
Q 238 716 238 1394 
Q 238 2128 614 2539 
Q 991 2950 1559 2950 
Q 2041 2950 2350 2633 
Q 2659 2316 2659 1784 
L 681 1784 
z
M 681 1966 
L 2006 1966 
Q 1991 2241 1941 2353 
Q 1863 2528 1708 2628 
Q 1553 2728 1384 2728 
Q 1125 2728 920 2526 
Q 716 2325 681 1966 
z
" transform="scale(0.015625)"/>
      </defs>
      <use xlink:href="#TimesNewRomanPSMT-44"/>
      <use xlink:href="#TimesNewRomanPSMT-61" transform="translate(72.216797 0)"/>
      <use xlink:href="#TimesNewRomanPSMT-74" transform="translate(116.601562 0)"/>
      <use xlink:href="#TimesNewRomanPSMT-65" transform="translate(144.384766 0)"/>
     </g>
    </g>
   </g>
   <g id="matplotlib.axis_2">
    <g id="ytick_1">
     <g id="line2d_8">
      <defs>
       <path id="mf3b0cfe34c" d="M 0 0 
L -3.5 0 
" style="stroke: #000000; stroke-width: 0.8"/>
      </defs>
      <g>
       <use xlink:href="#mf3b0cfe34c" x="45.6" y="257.142857" style="stroke: #000000; stroke-width: 0.8"/>
      </g>
     </g>
     <g id="text_9">
      <!-- 0.0 -->
      <g transform="translate(21.1 262.003482) scale(0.14 -0.14)">
       <defs>
        <path id="TimesNewRomanPSMT-2e" d="M 800 606 
Q 947 606 1047 504 
Q 1147 403 1147 259 
Q 1147 116 1045 14 
Q 944 -88 800 -88 
Q 656 -88 554 14 
Q 453 116 453 259 
Q 453 406 554 506 
Q 656 606 800 606 
z
" transform="scale(0.015625)"/>
       </defs>
       <use xlink:href="#TimesNewRomanPSMT-30"/>
       <use xlink:href="#TimesNewRomanPSMT-2e" transform="translate(50 0)"/>
       <use xlink:href="#TimesNewRomanPSMT-30" transform="translate(75 0)"/>
      </g>
     </g>
    </g>
    <g id="ytick_2">
     <g id="line2d_9">
      <g>
       <use xlink:href="#mf3b0cfe34c" x="45.6" y="209.657143" style="stroke: #000000; stroke-width: 0.8"/>
      </g>
     </g>
     <g id="text_10">
      <!-- 0.2 -->
      <g transform="translate(21.1 214.517768) scale(0.14 -0.14)">
       <use xlink:href="#TimesNewRomanPSMT-30"/>
       <use xlink:href="#TimesNewRomanPSMT-2e" transform="translate(50 0)"/>
       <use xlink:href="#TimesNewRomanPSMT-32" transform="translate(75 0)"/>
      </g>
     </g>
    </g>
    <g id="ytick_3">
     <g id="line2d_10">
      <g>
       <use xlink:href="#mf3b0cfe34c" x="45.6" y="162.171429" style="stroke: #000000; stroke-width: 0.8"/>
      </g>
     </g>
     <g id="text_11">
      <!-- 0.4 -->
      <g transform="translate(21.1 167.032054) scale(0.14 -0.14)">
       <use xlink:href="#TimesNewRomanPSMT-30"/>
       <use xlink:href="#TimesNewRomanPSMT-2e" transform="translate(50 0)"/>
       <use xlink:href="#TimesNewRomanPSMT-34" transform="translate(75 0)"/>
      </g>
     </g>
    </g>
    <g id="ytick_4">
     <g id="line2d_11">
      <g>
       <use xlink:href="#mf3b0cfe34c" x="45.6" y="114.685714" style="stroke: #000000; stroke-width: 0.8"/>
      </g>
     </g>
     <g id="text_12">
      <!-- 0.6 -->
      <g transform="translate(21.1 119.546339) scale(0.14 -0.14)">
       <use xlink:href="#TimesNewRomanPSMT-30"/>
       <use xlink:href="#TimesNewRomanPSMT-2e" transform="translate(50 0)"/>
       <use xlink:href="#TimesNewRomanPSMT-36" transform="translate(75 0)"/>
      </g>
     </g>
    </g>
    <g id="ytick_5">
     <g id="line2d_12">
      <g>
       <use xlink:href="#mf3b0cfe34c" x="45.6" y="67.2" style="stroke: #000000; stroke-width: 0.8"/>
      </g>
     </g>
     <g id="text_13">
      <!-- 0.8 -->
      <g transform="translate(21.1 72.060625) scale(0.14 -0.14)">
       <use xlink:href="#TimesNewRomanPSMT-30"/>
       <use xlink:href="#TimesNewRomanPSMT-2e" transform="translate(50 0)"/>
       <use xlink:href="#TimesNewRomanPSMT-38" transform="translate(75 0)"/>
      </g>
     </g>
    </g>
    <g id="ytick_6">
     <g id="line2d_13">
      <g>
       <use xlink:href="#mf3b0cfe34c" x="45.6" y="19.714286" style="stroke: #000000; stroke-width: 0.8"/>
      </g>
     </g>
     <g id="text_14">
      <!-- 1.0 -->
      <g transform="translate(21.1 24.574911) scale(0.14 -0.14)">
       <use xlink:href="#TimesNewRomanPSMT-31"/>
       <use xlink:href="#TimesNewRomanPSMT-2e" transform="translate(50 0)"/>
       <use xlink:href="#TimesNewRomanPSMT-30" transform="translate(75 0)"/>
      </g>
     </g>
    </g>
    <g id="text_15">
     <!-- Sentiment Proportion -->
     <g transform="translate(14.105313 198.508259) rotate(-90) scale(0.14 -0.14)">
      <defs>
       <path id="TimesNewRomanPSMT-53" d="M 2934 4334 
L 2934 2869 
L 2819 2869 
Q 2763 3291 2617 3541 
Q 2472 3791 2203 3937 
Q 1934 4084 1647 4084 
Q 1322 4084 1109 3886 
Q 897 3688 897 3434 
Q 897 3241 1031 3081 
Q 1225 2847 1953 2456 
Q 2547 2138 2764 1967 
Q 2981 1797 3098 1565 
Q 3216 1334 3216 1081 
Q 3216 600 2842 251 
Q 2469 -97 1881 -97 
Q 1697 -97 1534 -69 
Q 1438 -53 1133 45 
Q 828 144 747 144 
Q 669 144 623 97 
Q 578 50 556 -97 
L 441 -97 
L 441 1356 
L 556 1356 
Q 638 900 775 673 
Q 913 447 1195 297 
Q 1478 147 1816 147 
Q 2206 147 2432 353 
Q 2659 559 2659 841 
Q 2659 997 2573 1156 
Q 2488 1316 2306 1453 
Q 2184 1547 1640 1851 
Q 1097 2156 867 2337 
Q 638 2519 519 2737 
Q 400 2956 400 3219 
Q 400 3675 750 4004 
Q 1100 4334 1641 4334 
Q 1978 4334 2356 4169 
Q 2531 4091 2603 4091 
Q 2684 4091 2736 4139 
Q 2788 4188 2819 4334 
L 2934 4334 
z
" transform="scale(0.015625)"/>
       <path id="TimesNewRomanPSMT-6e" d="M 1034 2341 
Q 1538 2947 1994 2947 
Q 2228 2947 2397 2830 
Q 2566 2713 2666 2444 
Q 2734 2256 2734 1869 
L 2734 647 
Q 2734 375 2778 278 
Q 2813 200 2889 156 
Q 2966 113 3172 113 
L 3172 0 
L 1756 0 
L 1756 113 
L 1816 113 
Q 2016 113 2095 173 
Q 2175 234 2206 353 
Q 2219 400 2219 647 
L 2219 1819 
Q 2219 2209 2117 2386 
Q 2016 2563 1775 2563 
Q 1403 2563 1034 2156 
L 1034 647 
Q 1034 356 1069 288 
Q 1113 197 1189 155 
Q 1266 113 1500 113 
L 1500 0 
L 84 0 
L 84 113 
L 147 113 
Q 366 113 442 223 
Q 519 334 519 647 
L 519 1709 
Q 519 2225 495 2337 
Q 472 2450 423 2490 
Q 375 2531 294 2531 
Q 206 2531 84 2484 
L 38 2597 
L 900 2947 
L 1034 2947 
L 1034 2341 
z
" transform="scale(0.015625)"/>
       <path id="TimesNewRomanPSMT-69" d="M 928 4444 
Q 1059 4444 1151 4351 
Q 1244 4259 1244 4128 
Q 1244 3997 1151 3903 
Q 1059 3809 928 3809 
Q 797 3809 703 3903 
Q 609 3997 609 4128 
Q 609 4259 701 4351 
Q 794 4444 928 4444 
z
M 1188 2947 
L 1188 647 
Q 1188 378 1227 289 
Q 1266 200 1342 156 
Q 1419 113 1622 113 
L 1622 0 
L 231 0 
L 231 113 
Q 441 113 512 153 
Q 584 194 626 287 
Q 669 381 669 647 
L 669 1750 
Q 669 2216 641 2353 
Q 619 2453 572 2492 
Q 525 2531 444 2531 
Q 356 2531 231 2484 
L 188 2597 
L 1050 2947 
L 1188 2947 
z
" transform="scale(0.015625)"/>
       <path id="TimesNewRomanPSMT-6d" d="M 1050 2338 
Q 1363 2650 1419 2697 
Q 1559 2816 1721 2881 
Q 1884 2947 2044 2947 
Q 2313 2947 2506 2790 
Q 2700 2634 2766 2338 
Q 3088 2713 3309 2830 
Q 3531 2947 3766 2947 
Q 3994 2947 4170 2830 
Q 4347 2713 4450 2447 
Q 4519 2266 4519 1878 
L 4519 647 
Q 4519 378 4559 278 
Q 4591 209 4675 161 
Q 4759 113 4950 113 
L 4950 0 
L 3538 0 
L 3538 113 
L 3597 113 
Q 3781 113 3884 184 
Q 3956 234 3988 344 
Q 4000 397 4000 647 
L 4000 1878 
Q 4000 2228 3916 2372 
Q 3794 2572 3525 2572 
Q 3359 2572 3192 2489 
Q 3025 2406 2788 2181 
L 2781 2147 
L 2788 2013 
L 2788 647 
Q 2788 353 2820 281 
Q 2853 209 2943 161 
Q 3034 113 3253 113 
L 3253 0 
L 1806 0 
L 1806 113 
Q 2044 113 2133 169 
Q 2222 225 2256 338 
Q 2272 391 2272 647 
L 2272 1878 
Q 2272 2228 2169 2381 
Q 2031 2581 1784 2581 
Q 1616 2581 1450 2491 
Q 1191 2353 1050 2181 
L 1050 647 
Q 1050 366 1089 281 
Q 1128 197 1204 155 
Q 1281 113 1516 113 
L 1516 0 
L 100 0 
L 100 113 
Q 297 113 375 155 
Q 453 197 493 289 
Q 534 381 534 647 
L 534 1741 
Q 534 2213 506 2350 
Q 484 2453 437 2492 
Q 391 2531 309 2531 
Q 222 2531 100 2484 
L 53 2597 
L 916 2947 
L 1050 2947 
L 1050 2338 
z
" transform="scale(0.015625)"/>
       <path id="TimesNewRomanPSMT-20" transform="scale(0.015625)"/>
       <path id="TimesNewRomanPSMT-50" d="M 1313 1984 
L 1313 750 
Q 1313 350 1400 253 
Q 1519 116 1759 116 
L 1922 116 
L 1922 0 
L 106 0 
L 106 116 
L 266 116 
Q 534 116 650 291 
Q 713 388 713 750 
L 713 3488 
Q 713 3888 628 3984 
Q 506 4122 266 4122 
L 106 4122 
L 106 4238 
L 1659 4238 
Q 2228 4238 2556 4120 
Q 2884 4003 3109 3725 
Q 3334 3447 3334 3066 
Q 3334 2547 2992 2222 
Q 2650 1897 2025 1897 
Q 1872 1897 1694 1919 
Q 1516 1941 1313 1984 
z
M 1313 2163 
Q 1478 2131 1606 2115 
Q 1734 2100 1825 2100 
Q 2150 2100 2386 2351 
Q 2622 2603 2622 3003 
Q 2622 3278 2509 3514 
Q 2397 3750 2190 3867 
Q 1984 3984 1722 3984 
Q 1563 3984 1313 3925 
L 1313 2163 
z
" transform="scale(0.015625)"/>
       <path id="TimesNewRomanPSMT-72" d="M 1038 2947 
L 1038 2303 
Q 1397 2947 1775 2947 
Q 1947 2947 2059 2842 
Q 2172 2738 2172 2600 
Q 2172 2478 2090 2393 
Q 2009 2309 1897 2309 
Q 1788 2309 1652 2417 
Q 1516 2525 1450 2525 
Q 1394 2525 1328 2463 
Q 1188 2334 1038 2041 
L 1038 669 
Q 1038 431 1097 309 
Q 1138 225 1241 169 
Q 1344 113 1538 113 
L 1538 0 
L 72 0 
L 72 113 
Q 291 113 397 181 
Q 475 231 506 341 
Q 522 394 522 644 
L 522 1753 
Q 522 2253 501 2348 
Q 481 2444 426 2487 
Q 372 2531 291 2531 
Q 194 2531 72 2484 
L 41 2597 
L 906 2947 
L 1038 2947 
z
" transform="scale(0.015625)"/>
       <path id="TimesNewRomanPSMT-6f" d="M 1600 2947 
Q 2250 2947 2644 2453 
Q 2978 2031 2978 1484 
Q 2978 1100 2793 706 
Q 2609 313 2286 112 
Q 1963 -88 1566 -88 
Q 919 -88 538 428 
Q 216 863 216 1403 
Q 216 1797 411 2186 
Q 606 2575 925 2761 
Q 1244 2947 1600 2947 
z
M 1503 2744 
Q 1338 2744 1170 2645 
Q 1003 2547 900 2300 
Q 797 2053 797 1666 
Q 797 1041 1045 587 
Q 1294 134 1700 134 
Q 2003 134 2200 384 
Q 2397 634 2397 1244 
Q 2397 2006 2069 2444 
Q 1847 2744 1503 2744 
z
" transform="scale(0.015625)"/>
       <path id="TimesNewRomanPSMT-70" d="M -6 2578 
L 875 2934 
L 994 2934 
L 994 2266 
Q 1216 2644 1439 2795 
Q 1663 2947 1909 2947 
Q 2341 2947 2628 2609 
Q 2981 2197 2981 1534 
Q 2981 794 2556 309 
Q 2206 -88 1675 -88 
Q 1444 -88 1275 -22 
Q 1150 25 994 166 
L 994 -706 
Q 994 -1000 1030 -1079 
Q 1066 -1159 1155 -1206 
Q 1244 -1253 1478 -1253 
L 1478 -1369 
L -22 -1369 
L -22 -1253 
L 56 -1253 
Q 228 -1256 350 -1188 
Q 409 -1153 442 -1076 
Q 475 -1000 475 -688 
L 475 2019 
Q 475 2297 450 2372 
Q 425 2447 370 2484 
Q 316 2522 222 2522 
Q 147 2522 31 2478 
L -6 2578 
z
M 994 2081 
L 994 1013 
Q 994 666 1022 556 
Q 1066 375 1236 237 
Q 1406 100 1666 100 
Q 1978 100 2172 344 
Q 2425 663 2425 1241 
Q 2425 1897 2138 2250 
Q 1938 2494 1663 2494 
Q 1513 2494 1366 2419 
Q 1253 2363 994 2081 
z
" transform="scale(0.015625)"/>
      </defs>
      <use xlink:href="#TimesNewRomanPSMT-53"/>
      <use xlink:href="#TimesNewRomanPSMT-65" transform="translate(55.615234 0)"/>
      <use xlink:href="#TimesNewRomanPSMT-6e" transform="translate(100 0)"/>
      <use xlink:href="#TimesNewRomanPSMT-74" transform="translate(150 0)"/>
      <use xlink:href="#TimesNewRomanPSMT-69" transform="translate(177.783203 0)"/>
      <use xlink:href="#TimesNewRomanPSMT-6d" transform="translate(205.566406 0)"/>
      <use xlink:href="#TimesNewRomanPSMT-65" transform="translate(283.349609 0)"/>
      <use xlink:href="#TimesNewRomanPSMT-6e" transform="translate(327.734375 0)"/>
      <use xlink:href="#TimesNewRomanPSMT-74" transform="translate(377.734375 0)"/>
      <use xlink:href="#TimesNewRomanPSMT-20" transform="translate(405.517578 0)"/>
      <use xlink:href="#TimesNewRomanPSMT-50" transform="translate(430.517578 0)"/>
      <use xlink:href="#TimesNewRomanPSMT-72" transform="translate(486.132812 0)"/>
      <use xlink:href="#TimesNewRomanPSMT-6f" transform="translate(519.433594 0)"/>
      <use xlink:href="#TimesNewRomanPSMT-70" transform="translate(569.433594 0)"/>
      <use xlink:href="#TimesNewRomanPSMT-6f" transform="translate(619.433594 0)"/>
      <use xlink:href="#TimesNewRomanPSMT-72" transform="translate(669.433594 0)"/>
      <use xlink:href="#TimesNewRomanPSMT-74" transform="translate(702.734375 0)"/>
      <use xlink:href="#TimesNewRomanPSMT-69" transform="translate(730.517578 0)"/>
      <use xlink:href="#TimesNewRomanPSMT-6f" transform="translate(758.300781 0)"/>
      <use xlink:href="#TimesNewRomanPSMT-6e" transform="translate(808.300781 0)"/>
     </g>
    </g>
   </g>
   <g id="line2d_14">
    <path d="M 74.413972 178 
L 76.198119 162.171429 
L 77.982266 147.925714 
L 79.766413 135.104571 
L 81.55056 123.565543 
L 83.334707 113.180417 
L 85.118854 127.576661 
L 86.903 132.618995 
L 88.687147 129.24281 
L 90.471294 118.289957 
L 92.255441 123.340696 
L 94.039588 129.813899 
L 95.823735 127.22186 
L 97.607882 116.471102 
L 99.392029 130.538278 
L 101.176176 143.198736 
L 102.960322 130.850291 
L 104.744469 119.73669 
L 106.528616 109.73445 
L 108.312763 100.732433 
L 110.09691 116.373476 
L 111.881057 128.224521 
L 113.665204 136.664569 
L 115.449351 142.034719 
L 117.233498 144.641962 
L 119.017644 150.615861 
L 120.801791 149.397132 
L 122.585938 149.996194 
L 124.370085 153.24882 
L 127.938379 164.75783 
L 131.506673 177.087556 
L 135.074966 190.082063 
L 136.859113 196.788143 
L 138.64326 202.823614 
L 140.427407 196.38411 
L 142.211554 196.52427 
L 143.995701 202.586129 
L 145.779848 184.298945 
L 147.563995 175.641703 
L 149.348142 175.651411 
L 151.132288 181.16246 
L 152.916435 184.363674 
L 154.700582 185.486037 
L 158.268876 184.06369 
L 160.053023 167.62875 
L 161.83717 176.58016 
L 163.621317 184.63643 
L 165.405464 184.660986 
L 167.18961 191.909173 
L 168.973757 194.475398 
L 170.757904 200.742144 
L 172.542051 197.365941 
L 174.326198 195.383599 
L 176.110345 194.011218 
L 177.894492 191.121724 
L 179.678639 189.547489 
L 181.462785 187.262128 
L 183.246932 185.34663 
L 185.031079 192.526252 
L 186.815226 187.116484 
L 188.599373 170.376264 
L 190.38352 167.181495 
L 192.167667 176.177631 
L 193.951814 160.531297 
L 195.735961 170.192453 
L 197.520107 170.973207 
L 199.304254 173.654458 
L 201.088401 158.260441 
L 202.872548 168.148683 
L 204.656695 171.112386 
L 206.440842 167.844004 
L 208.224989 176.77389 
L 210.009136 180.624546 
L 211.793283 179.903896 
L 213.577429 181.171401 
L 217.145723 178.371064 
L 218.92987 174.376815 
L 220.714017 171.559286 
L 222.498164 169.800807 
L 224.282311 168.995471 
L 226.066458 169.047965 
L 227.850605 169.872505 
L 229.634751 171.391887 
L 231.418898 173.536627 
L 234.987192 179.122209 
L 236.771339 180.502534 
L 238.555486 180.534934 
L 240.339633 181.30958 
L 242.12378 181.518846 
L 243.907927 183.05694 
L 245.692073 181.208389 
L 247.47622 180.339035 
L 249.260367 180.095865 
L 251.044514 180.447937 
L 252.828661 180.526776 
L 254.612808 181.644416 
L 256.396955 181.100105 
L 258.181102 181.721187 
L 259.965249 181.856394 
L 261.749395 180.751274 
L 263.533542 181.551457 
L 265.317689 182.497437 
L 268.885983 184.769927 
L 276.022571 190.085536 
L 284.943305 197.044088 
L 297.432333 207.125111 
L 301.000627 210.049317 
L 302.784774 210.420423 
L 304.568921 209.808007 
L 306.353068 208.310421 
L 308.137215 206.016182 
L 309.921361 203.004956 
L 311.705508 199.348441 
L 313.489655 198.344209 
L 315.273802 193.294823 
L 318.842096 187.710125 
L 320.626243 181.199112 
L 322.41039 182.857773 
L 324.194536 179.9633 
L 325.978683 177.501649 
L 327.76283 175.429538 
L 329.546977 173.708013 
L 331.331124 170.745375 
L 333.115271 170.211746 
L 334.899418 172.024825 
L 336.683565 175.94994 
L 338.467712 181.775887 
L 340.251858 189.312584 
L 342.036005 188.181326 
L 343.820152 195.077479 
L 345.604299 201.284017 
L 347.388446 206.869901 
L 349.172593 211.897196 
L 350.95674 216.421763 
L 352.740887 220.493872 
L 354.525034 224.158771 
L 356.30918 225.761261 
L 358.093327 225.507584 
L 359.877474 223.583356 
L 361.661621 220.155633 
L 363.445768 215.374763 
L 365.229915 209.376062 
L 367.014062 202.281313 
L 368.798209 184.024611 
L 370.582356 171.550721 
L 372.366502 164.281363 
L 374.150649 161.696084 
L 375.934796 163.326476 
L 377.718943 168.750971 
L 379.50309 177.590159 
L 381.287237 179.016144 
L 383.071384 173.770243 
L 386.639678 158.657389 
L 388.423824 158.059079 
L 390.207971 152.554433 
L 391.992118 158.342549 
L 393.776265 158.01362 
L 395.560412 157.407556 
L 397.344559 153.197042 
L 399.128706 151.720195 
L 400.912853 149.7435 
L 402.697 148.236512 
L 404.481146 149.198315 
L 406.265293 154.734284 
L 408.04944 158.107373 
L 409.833587 153.221376 
L 411.617734 147.149499 
L 413.401881 151.266847 
L 415.186028 154.319859 
L 416.970175 156.414966 
L 418.754322 157.946773 
L 420.538468 158.305924 
L 422.322615 160.876817 
L 424.106762 162.089904 
L 425.890909 163.514297 
L 425.890909 163.514297 
" clip-path="url(#p466a372f47)" style="fill: none; stroke: #008000; stroke-width: 1.5; stroke-linecap: square"/>
    <defs>
     <path id="mcff039fcb8" d="M 0 2.5 
C 0.663008 2.5 1.29895 2.236584 1.767767 1.767767 
C 2.236584 1.29895 2.5 0.663008 2.5 0 
C 2.5 -0.663008 2.236584 -1.29895 1.767767 -1.767767 
C 1.29895 -2.236584 0.663008 -2.5 0 -2.5 
C -0.663008 -2.5 -1.29895 -2.236584 -1.767767 -1.767767 
C -2.236584 -1.29895 -2.5 -0.663008 -2.5 0 
C -2.5 0.663008 -2.236584 1.29895 -1.767767 1.767767 
C -1.29895 2.236584 -0.663008 2.5 0 2.5 
z
" style="stroke: #008000"/>
    </defs>
    <g clip-path="url(#p466a372f47)">
     <use xlink:href="#mcff039fcb8" x="74.413972" y="178" style="fill: #008000; stroke: #008000"/>
     <use xlink:href="#mcff039fcb8" x="83.334707" y="113.180417" style="fill: #008000; stroke: #008000"/>
     <use xlink:href="#mcff039fcb8" x="92.255441" y="123.340696" style="fill: #008000; stroke: #008000"/>
     <use xlink:href="#mcff039fcb8" x="101.176176" y="143.198736" style="fill: #008000; stroke: #008000"/>
     <use xlink:href="#mcff039fcb8" x="110.09691" y="116.373476" style="fill: #008000; stroke: #008000"/>
     <use xlink:href="#mcff039fcb8" x="119.017644" y="150.615861" style="fill: #008000; stroke: #008000"/>
     <use xlink:href="#mcff039fcb8" x="127.938379" y="164.75783" style="fill: #008000; stroke: #008000"/>
     <use xlink:href="#mcff039fcb8" x="136.859113" y="196.788143" style="fill: #008000; stroke: #008000"/>
     <use xlink:href="#mcff039fcb8" x="145.779848" y="184.298945" style="fill: #008000; stroke: #008000"/>
     <use xlink:href="#mcff039fcb8" x="154.700582" y="185.486037" style="fill: #008000; stroke: #008000"/>
     <use xlink:href="#mcff039fcb8" x="163.621317" y="184.63643" style="fill: #008000; stroke: #008000"/>
     <use xlink:href="#mcff039fcb8" x="172.542051" y="197.365941" style="fill: #008000; stroke: #008000"/>
     <use xlink:href="#mcff039fcb8" x="181.462785" y="187.262128" style="fill: #008000; stroke: #008000"/>
     <use xlink:href="#mcff039fcb8" x="190.38352" y="167.181495" style="fill: #008000; stroke: #008000"/>
     <use xlink:href="#mcff039fcb8" x="199.304254" y="173.654458" style="fill: #008000; stroke: #008000"/>
     <use xlink:href="#mcff039fcb8" x="208.224989" y="176.77389" style="fill: #008000; stroke: #008000"/>
     <use xlink:href="#mcff039fcb8" x="217.145723" y="178.371064" style="fill: #008000; stroke: #008000"/>
     <use xlink:href="#mcff039fcb8" x="226.066458" y="169.047965" style="fill: #008000; stroke: #008000"/>
     <use xlink:href="#mcff039fcb8" x="234.987192" y="179.122209" style="fill: #008000; stroke: #008000"/>
     <use xlink:href="#mcff039fcb8" x="243.907927" y="183.05694" style="fill: #008000; stroke: #008000"/>
     <use xlink:href="#mcff039fcb8" x="252.828661" y="180.526776" style="fill: #008000; stroke: #008000"/>
     <use xlink:href="#mcff039fcb8" x="261.749395" y="180.751274" style="fill: #008000; stroke: #008000"/>
     <use xlink:href="#mcff039fcb8" x="270.67013" y="186.071506" style="fill: #008000; stroke: #008000"/>
     <use xlink:href="#mcff039fcb8" x="279.590864" y="192.835473" style="fill: #008000; stroke: #008000"/>
     <use xlink:href="#mcff039fcb8" x="288.511599" y="199.893478" style="fill: #008000; stroke: #008000"/>
     <use xlink:href="#mcff039fcb8" x="297.432333" y="207.125111" style="fill: #008000; stroke: #008000"/>
     <use xlink:href="#mcff039fcb8" x="306.353068" y="208.310421" style="fill: #008000; stroke: #008000"/>
     <use xlink:href="#mcff039fcb8" x="315.273802" y="193.294823" style="fill: #008000; stroke: #008000"/>
     <use xlink:href="#mcff039fcb8" x="324.194536" y="179.9633" style="fill: #008000; stroke: #008000"/>
     <use xlink:href="#mcff039fcb8" x="333.115271" y="170.211746" style="fill: #008000; stroke: #008000"/>
     <use xlink:href="#mcff039fcb8" x="342.036005" y="188.181326" style="fill: #008000; stroke: #008000"/>
     <use xlink:href="#mcff039fcb8" x="350.95674" y="216.421763" style="fill: #008000; stroke: #008000"/>
     <use xlink:href="#mcff039fcb8" x="359.877474" y="223.583356" style="fill: #008000; stroke: #008000"/>
     <use xlink:href="#mcff039fcb8" x="368.798209" y="184.024611" style="fill: #008000; stroke: #008000"/>
     <use xlink:href="#mcff039fcb8" x="377.718943" y="168.750971" style="fill: #008000; stroke: #008000"/>
     <use xlink:href="#mcff039fcb8" x="386.639678" y="158.657389" style="fill: #008000; stroke: #008000"/>
     <use xlink:href="#mcff039fcb8" x="395.560412" y="157.407556" style="fill: #008000; stroke: #008000"/>
     <use xlink:href="#mcff039fcb8" x="404.481146" y="149.198315" style="fill: #008000; stroke: #008000"/>
     <use xlink:href="#mcff039fcb8" x="413.401881" y="151.266847" style="fill: #008000; stroke: #008000"/>
     <use xlink:href="#mcff039fcb8" x="422.322615" y="160.876817" style="fill: #008000; stroke: #008000"/>
    </g>
   </g>
   <g id="line2d_15">
    <path d="M 74.413972 257.142857 
L 90.471294 257.142857 
L 92.255441 255.486379 
L 94.039588 252.630208 
L 95.823735 251.570564 
L 99.392029 252.6293 
L 102.960322 253.486876 
L 108.312763 254.477647 
L 110.09691 254.744168 
L 111.881057 254.242072 
L 113.665204 253.048222 
L 115.449351 251.231793 
L 117.233498 248.855042 
L 119.017644 249.683824 
L 120.801791 238.558298 
L 122.585938 240.416754 
L 124.370085 239.715079 
L 126.154232 236.709285 
L 127.938379 234.7955 
L 129.722526 233.864521 
L 131.506673 233.818069 
L 133.29082 234.567691 
L 135.074966 236.033779 
L 136.859113 238.144687 
L 138.64326 240.044504 
L 140.427407 241.754339 
L 142.211554 243.293191 
L 145.779848 245.924627 
L 147.563995 243.654614 
L 149.348142 238.219765 
L 151.132288 240.112074 
L 152.916435 239.177057 
L 154.700582 235.697446 
L 156.484729 229.927702 
L 158.268876 224.734932 
L 160.053023 227.975724 
L 161.83717 230.892437 
L 163.621317 209.774622 
L 165.405464 207.285359 
L 167.18961 212.271109 
L 168.973757 212.801141 
L 170.757904 217.235312 
L 172.542051 218.370913 
L 174.326198 218.542575 
L 176.110345 219.38328 
L 177.894492 219.110068 
L 179.678639 219.925836 
L 181.462785 220.481823 
L 183.246932 219.484151 
L 185.031079 223.250022 
L 186.815226 226.639305 
L 188.599373 229.689661 
L 190.38352 232.43498 
L 192.167667 234.905768 
L 193.951814 237.129477 
L 195.735961 234.382243 
L 197.520107 236.658305 
L 199.304254 238.70676 
L 201.088401 240.55037 
L 202.872548 242.209618 
L 204.656695 243.702942 
L 206.440842 245.046934 
L 208.224989 234.385098 
L 210.009136 229.038167 
L 211.793283 228.474651 
L 213.577429 226.82894 
L 215.361576 226.045906 
L 217.145723 226.894376 
L 218.92987 218.047796 
L 220.714017 210.721843 
L 222.498164 204.764454 
L 224.282311 200.038774 
L 226.066458 196.421632 
L 227.850605 193.802172 
L 229.634751 192.080629 
L 231.418898 191.167209 
L 233.203045 190.9811 
L 234.987192 192.385429 
L 236.771339 194.55933 
L 238.555486 197.425846 
L 240.339633 197.874284 
L 242.12378 198.533955 
L 243.907927 197.77992 
L 247.47622 202.772844 
L 249.260367 203.678129 
L 251.044514 203.586722 
L 252.828661 204.176111 
L 254.612808 205.277935 
L 256.396955 205.500011 
L 258.181102 206.366946 
L 261.749395 207.045768 
L 270.67013 203.726695 
L 272.454277 202.683678 
L 274.238424 201.296042 
L 276.022571 199.598251 
L 277.806717 197.621319 
L 279.590864 195.39316 
L 281.375011 192.938898 
L 284.943305 187.440244 
L 288.511599 181.280439 
L 292.079893 174.585103 
L 295.648186 167.455986 
L 301.000627 156.124895 
L 302.784774 154.298097 
L 304.568921 154.292731 
L 306.353068 155.926655 
L 308.137215 159.035938 
L 309.921361 163.473046 
L 311.705508 169.105196 
L 313.489655 171.125288 
L 315.273802 175.581467 
L 317.057949 180.69365 
L 318.842096 182.640285 
L 320.626243 186.924828 
L 322.41039 188.010917 
L 324.194536 189.246471 
L 325.978683 189.612921 
L 327.76283 189.197178 
L 329.546977 188.07746 
L 331.331124 191.592163 
L 333.115271 193.290739 
L 334.899418 196.033581 
L 336.683565 199.716261 
L 338.467712 204.244798 
L 340.251858 209.534604 
L 342.036005 212.316857 
L 343.820152 216.799457 
L 345.604299 220.833797 
L 347.388446 224.464703 
L 349.172593 227.732519 
L 350.95674 230.673553 
L 352.740887 233.320483 
L 354.525034 235.70272 
L 356.30918 237.846734 
L 358.093327 239.776346 
L 359.877474 241.512998 
L 361.661621 243.075983 
L 365.229915 245.748689 
L 368.798209 247.913581 
L 372.366502 249.667144 
L 375.934796 251.087529 
L 379.50309 252.238042 
L 383.071384 253.169957 
L 384.855531 253.567247 
L 386.639678 251.286712 
L 388.423824 243.799755 
L 390.207971 242.272456 
L 391.992118 241.190597 
L 393.776265 240.912619 
L 395.560412 240.431846 
L 397.344559 240.561203 
L 400.912853 239.98806 
L 402.697 239.566105 
L 404.481146 239.45313 
L 406.265293 236.122966 
L 408.04944 238.028733 
L 409.833587 237.552596 
L 411.617734 238.8184 
L 413.401881 236.865752 
L 415.186028 235.602271 
L 418.754322 234.27671 
L 420.538468 233.207667 
L 422.322615 232.562101 
L 425.890909 230.92675 
L 425.890909 230.92675 
" clip-path="url(#p466a372f47)" style="fill: none; stroke: #ff0000; stroke-width: 1.5; stroke-linecap: square"/>
    <defs>
     <path id="m362b1bdda7" d="M -2.5 2.5 
L 2.5 2.5 
L 2.5 -2.5 
L -2.5 -2.5 
z
" style="stroke: #ff0000; stroke-linejoin: miter"/>
    </defs>
    <g clip-path="url(#p466a372f47)">
     <use xlink:href="#m362b1bdda7" x="74.413972" y="257.142857" style="fill: #ff0000; stroke: #ff0000; stroke-linejoin: miter"/>
     <use xlink:href="#m362b1bdda7" x="83.334707" y="257.142857" style="fill: #ff0000; stroke: #ff0000; stroke-linejoin: miter"/>
     <use xlink:href="#m362b1bdda7" x="92.255441" y="255.486379" style="fill: #ff0000; stroke: #ff0000; stroke-linejoin: miter"/>
     <use xlink:href="#m362b1bdda7" x="101.176176" y="253.080656" style="fill: #ff0000; stroke: #ff0000; stroke-linejoin: miter"/>
     <use xlink:href="#m362b1bdda7" x="110.09691" y="254.744168" style="fill: #ff0000; stroke: #ff0000; stroke-linejoin: miter"/>
     <use xlink:href="#m362b1bdda7" x="119.017644" y="249.683824" style="fill: #ff0000; stroke: #ff0000; stroke-linejoin: miter"/>
     <use xlink:href="#m362b1bdda7" x="127.938379" y="234.7955" style="fill: #ff0000; stroke: #ff0000; stroke-linejoin: miter"/>
     <use xlink:href="#m362b1bdda7" x="136.859113" y="238.144687" style="fill: #ff0000; stroke: #ff0000; stroke-linejoin: miter"/>
     <use xlink:href="#m362b1bdda7" x="145.779848" y="245.924627" style="fill: #ff0000; stroke: #ff0000; stroke-linejoin: miter"/>
     <use xlink:href="#m362b1bdda7" x="154.700582" y="235.697446" style="fill: #ff0000; stroke: #ff0000; stroke-linejoin: miter"/>
     <use xlink:href="#m362b1bdda7" x="163.621317" y="209.774622" style="fill: #ff0000; stroke: #ff0000; stroke-linejoin: miter"/>
     <use xlink:href="#m362b1bdda7" x="172.542051" y="218.370913" style="fill: #ff0000; stroke: #ff0000; stroke-linejoin: miter"/>
     <use xlink:href="#m362b1bdda7" x="181.462785" y="220.481823" style="fill: #ff0000; stroke: #ff0000; stroke-linejoin: miter"/>
     <use xlink:href="#m362b1bdda7" x="190.38352" y="232.43498" style="fill: #ff0000; stroke: #ff0000; stroke-linejoin: miter"/>
     <use xlink:href="#m362b1bdda7" x="199.304254" y="238.70676" style="fill: #ff0000; stroke: #ff0000; stroke-linejoin: miter"/>
     <use xlink:href="#m362b1bdda7" x="208.224989" y="234.385098" style="fill: #ff0000; stroke: #ff0000; stroke-linejoin: miter"/>
     <use xlink:href="#m362b1bdda7" x="217.145723" y="226.894376" style="fill: #ff0000; stroke: #ff0000; stroke-linejoin: miter"/>
     <use xlink:href="#m362b1bdda7" x="226.066458" y="196.421632" style="fill: #ff0000; stroke: #ff0000; stroke-linejoin: miter"/>
     <use xlink:href="#m362b1bdda7" x="234.987192" y="192.385429" style="fill: #ff0000; stroke: #ff0000; stroke-linejoin: miter"/>
     <use xlink:href="#m362b1bdda7" x="243.907927" y="197.77992" style="fill: #ff0000; stroke: #ff0000; stroke-linejoin: miter"/>
     <use xlink:href="#m362b1bdda7" x="252.828661" y="204.176111" style="fill: #ff0000; stroke: #ff0000; stroke-linejoin: miter"/>
     <use xlink:href="#m362b1bdda7" x="261.749395" y="207.045768" style="fill: #ff0000; stroke: #ff0000; stroke-linejoin: miter"/>
     <use xlink:href="#m362b1bdda7" x="270.67013" y="203.726695" style="fill: #ff0000; stroke: #ff0000; stroke-linejoin: miter"/>
     <use xlink:href="#m362b1bdda7" x="279.590864" y="195.39316" style="fill: #ff0000; stroke: #ff0000; stroke-linejoin: miter"/>
     <use xlink:href="#m362b1bdda7" x="288.511599" y="181.280439" style="fill: #ff0000; stroke: #ff0000; stroke-linejoin: miter"/>
     <use xlink:href="#m362b1bdda7" x="297.432333" y="163.755165" style="fill: #ff0000; stroke: #ff0000; stroke-linejoin: miter"/>
     <use xlink:href="#m362b1bdda7" x="306.353068" y="155.926655" style="fill: #ff0000; stroke: #ff0000; stroke-linejoin: miter"/>
     <use xlink:href="#m362b1bdda7" x="315.273802" y="175.581467" style="fill: #ff0000; stroke: #ff0000; stroke-linejoin: miter"/>
     <use xlink:href="#m362b1bdda7" x="324.194536" y="189.246471" style="fill: #ff0000; stroke: #ff0000; stroke-linejoin: miter"/>
     <use xlink:href="#m362b1bdda7" x="333.115271" y="193.290739" style="fill: #ff0000; stroke: #ff0000; stroke-linejoin: miter"/>
     <use xlink:href="#m362b1bdda7" x="342.036005" y="212.316857" style="fill: #ff0000; stroke: #ff0000; stroke-linejoin: miter"/>
     <use xlink:href="#m362b1bdda7" x="350.95674" y="230.673553" style="fill: #ff0000; stroke: #ff0000; stroke-linejoin: miter"/>
     <use xlink:href="#m362b1bdda7" x="359.877474" y="241.512998" style="fill: #ff0000; stroke: #ff0000; stroke-linejoin: miter"/>
     <use xlink:href="#m362b1bdda7" x="368.798209" y="247.913581" style="fill: #ff0000; stroke: #ff0000; stroke-linejoin: miter"/>
     <use xlink:href="#m362b1bdda7" x="377.718943" y="251.693062" style="fill: #ff0000; stroke: #ff0000; stroke-linejoin: miter"/>
     <use xlink:href="#m362b1bdda7" x="386.639678" y="251.286712" style="fill: #ff0000; stroke: #ff0000; stroke-linejoin: miter"/>
     <use xlink:href="#m362b1bdda7" x="395.560412" y="240.431846" style="fill: #ff0000; stroke: #ff0000; stroke-linejoin: miter"/>
     <use xlink:href="#m362b1bdda7" x="404.481146" y="239.45313" style="fill: #ff0000; stroke: #ff0000; stroke-linejoin: miter"/>
     <use xlink:href="#m362b1bdda7" x="413.401881" y="236.865752" style="fill: #ff0000; stroke: #ff0000; stroke-linejoin: miter"/>
     <use xlink:href="#m362b1bdda7" x="422.322615" y="232.562101" style="fill: #ff0000; stroke: #ff0000; stroke-linejoin: miter"/>
    </g>
   </g>
   <g id="line2d_16">
    <path d="M 74.413972 98.857143 
L 76.198119 114.685714 
L 77.982266 128.931429 
L 79.766413 141.752571 
L 81.55056 153.2916 
L 83.334707 163.676726 
L 85.118854 149.280482 
L 86.903 144.238148 
L 88.687147 147.614333 
L 90.471294 158.567185 
L 94.039588 151.555893 
L 95.823735 155.207576 
L 97.607882 165.401104 
L 99.392029 150.832422 
L 101.176176 137.720609 
L 102.960322 149.662834 
L 104.744469 160.410836 
L 106.528616 170.084038 
L 108.312763 178.78992 
L 110.09691 162.882356 
L 111.881057 151.533407 
L 113.665204 144.287209 
L 115.449351 140.733488 
L 117.233498 140.502996 
L 119.017644 133.700316 
L 120.801791 146.04457 
L 124.370085 141.036102 
L 126.154232 138.401063 
L 127.938379 134.446671 
L 129.722526 129.304861 
L 131.506673 123.094375 
L 133.29082 115.92208 
L 135.074966 107.884158 
L 136.859113 99.067171 
L 138.64326 91.131882 
L 140.427407 95.861551 
L 142.211554 94.182539 
L 143.995701 86.735714 
L 145.779848 103.776428 
L 147.563995 114.703683 
L 149.348142 120.128825 
L 151.132288 112.725466 
L 152.916435 110.459269 
L 154.700582 112.816517 
L 156.484729 119.334865 
L 158.268876 125.201378 
L 160.053023 138.395526 
L 161.83717 126.527402 
L 163.621317 139.588948 
L 165.405464 142.053655 
L 167.18961 129.819718 
L 168.973757 126.723461 
L 170.757904 116.022543 
L 172.542051 118.263146 
L 174.326198 120.073826 
L 176.110345 120.605502 
L 177.894492 123.768207 
L 179.678639 124.526675 
L 181.462785 126.256049 
L 183.246932 129.169219 
L 185.031079 118.223726 
L 186.815226 120.24421 
L 188.599373 133.934075 
L 190.38352 134.383525 
L 192.167667 122.916601 
L 193.951814 136.339226 
L 195.735961 129.425304 
L 197.520107 126.368488 
L 199.304254 121.638782 
L 201.088401 135.189189 
L 202.872548 123.641699 
L 204.656695 119.184672 
L 206.440842 121.109062 
L 208.224989 122.841013 
L 210.009136 124.337287 
L 211.793283 125.621453 
L 213.577429 125.999659 
L 215.361576 128.137773 
L 217.145723 128.73456 
L 218.92987 141.575389 
L 220.714017 151.718871 
L 222.498164 159.434739 
L 224.282311 164.965755 
L 226.066458 168.530404 
L 227.850605 170.325323 
L 229.634751 170.527484 
L 231.418898 169.296164 
L 233.203045 166.774711 
L 234.987192 162.492362 
L 236.771339 158.938136 
L 238.555486 156.03922 
L 240.339633 154.816135 
L 243.907927 153.16314 
L 245.692073 152.589683 
L 247.47622 150.88812 
L 249.260367 150.226006 
L 251.044514 149.965341 
L 252.828661 149.297113 
L 254.612808 147.077649 
L 256.396955 147.399884 
L 258.181102 145.911867 
L 259.965249 145.467933 
L 261.749395 146.202958 
L 263.533542 146.070706 
L 265.317689 145.790382 
L 267.101836 145.376794 
L 270.67013 144.201799 
L 272.454277 143.923756 
L 274.238424 143.972797 
L 276.022571 144.316213 
L 277.806717 144.924568 
L 279.590864 145.771367 
L 281.375011 146.832766 
L 283.159158 148.087304 
L 284.943305 149.515669 
L 288.511599 152.826083 
L 292.079893 156.644781 
L 295.648186 160.87519 
L 299.21648 165.439084 
L 301.000627 167.825788 
L 302.784774 169.28148 
L 304.568921 169.899262 
L 306.353068 169.762924 
L 308.137215 168.947879 
L 309.921361 167.521998 
L 311.705508 165.546363 
L 313.489655 164.530502 
L 315.273802 165.12371 
L 317.057949 162.758592 
L 318.842096 163.64959 
L 320.626243 165.87606 
L 322.41039 163.131311 
L 324.194536 164.790229 
L 325.978683 166.88543 
L 327.76283 169.373285 
L 329.546977 172.214528 
L 331.331124 171.662463 
L 333.115271 170.497515 
L 334.899418 165.941595 
L 336.683565 158.333799 
L 338.467712 147.979315 
L 340.251858 135.152812 
L 342.036005 133.501817 
L 343.820152 122.123064 
L 345.604299 111.882186 
L 347.388446 102.665396 
L 349.172593 94.370285 
L 350.95674 86.904685 
L 352.740887 80.185645 
L 354.525034 74.138509 
L 356.30918 70.392005 
L 358.093327 68.71607 
L 359.877474 68.903647 
L 361.661621 70.768384 
L 363.445768 74.142566 
L 365.229915 78.875248 
L 367.014062 84.83058 
L 368.798209 102.061808 
L 370.582356 113.61277 
L 372.366502 120.051493 
L 374.150649 121.889201 
L 375.934796 119.585995 
L 377.718943 113.555967 
L 379.50309 104.171799 
L 381.287237 102.255333 
L 383.071384 107.0598 
L 384.855531 114.15382 
L 386.639678 124.055898 
L 388.423824 132.141166 
L 390.207971 139.173111 
L 391.992118 134.466854 
L 393.776265 135.073761 
L 395.560412 136.160598 
L 397.344559 140.241756 
L 399.128706 141.984048 
L 400.912853 144.268441 
L 402.697 146.197384 
L 404.481146 145.348555 
L 406.265293 143.14275 
L 408.04944 137.863894 
L 409.833587 143.226028 
L 411.617734 148.032101 
L 413.401881 145.8674 
L 415.186028 144.077871 
L 416.970175 142.625995 
L 418.754322 141.776518 
L 420.538468 142.486409 
L 422.322615 140.561082 
L 424.106762 140.193657 
L 425.890909 139.558953 
L 425.890909 139.558953 
" clip-path="url(#p466a372f47)" style="fill: none; stroke: #0000ff; stroke-width: 1.5; stroke-linecap: square"/>
    <defs>
     <path id="mcc8ecd7334" d="M 0 -2.5 
L -2.5 2.5 
L 2.5 2.5 
z
" style="stroke: #0000ff; stroke-linejoin: miter"/>
    </defs>
    <g clip-path="url(#p466a372f47)">
     <use xlink:href="#mcc8ecd7334" x="74.413972" y="98.857143" style="fill: #0000ff; stroke: #0000ff; stroke-linejoin: miter"/>
     <use xlink:href="#mcc8ecd7334" x="83.334707" y="163.676726" style="fill: #0000ff; stroke: #0000ff; stroke-linejoin: miter"/>
     <use xlink:href="#mcc8ecd7334" x="92.255441" y="155.172925" style="fill: #0000ff; stroke: #0000ff; stroke-linejoin: miter"/>
     <use xlink:href="#mcc8ecd7334" x="101.176176" y="137.720609" style="fill: #0000ff; stroke: #0000ff; stroke-linejoin: miter"/>
     <use xlink:href="#mcc8ecd7334" x="110.09691" y="162.882356" style="fill: #0000ff; stroke: #0000ff; stroke-linejoin: miter"/>
     <use xlink:href="#mcc8ecd7334" x="119.017644" y="133.700316" style="fill: #0000ff; stroke: #0000ff; stroke-linejoin: miter"/>
     <use xlink:href="#mcc8ecd7334" x="127.938379" y="134.446671" style="fill: #0000ff; stroke: #0000ff; stroke-linejoin: miter"/>
     <use xlink:href="#mcc8ecd7334" x="136.859113" y="99.067171" style="fill: #0000ff; stroke: #0000ff; stroke-linejoin: miter"/>
     <use xlink:href="#mcc8ecd7334" x="145.779848" y="103.776428" style="fill: #0000ff; stroke: #0000ff; stroke-linejoin: miter"/>
     <use xlink:href="#mcc8ecd7334" x="154.700582" y="112.816517" style="fill: #0000ff; stroke: #0000ff; stroke-linejoin: miter"/>
     <use xlink:href="#mcc8ecd7334" x="163.621317" y="139.588948" style="fill: #0000ff; stroke: #0000ff; stroke-linejoin: miter"/>
     <use xlink:href="#mcc8ecd7334" x="172.542051" y="118.263146" style="fill: #0000ff; stroke: #0000ff; stroke-linejoin: miter"/>
     <use xlink:href="#mcc8ecd7334" x="181.462785" y="126.256049" style="fill: #0000ff; stroke: #0000ff; stroke-linejoin: miter"/>
     <use xlink:href="#mcc8ecd7334" x="190.38352" y="134.383525" style="fill: #0000ff; stroke: #0000ff; stroke-linejoin: miter"/>
     <use xlink:href="#mcc8ecd7334" x="199.304254" y="121.638782" style="fill: #0000ff; stroke: #0000ff; stroke-linejoin: miter"/>
     <use xlink:href="#mcc8ecd7334" x="208.224989" y="122.841013" style="fill: #0000ff; stroke: #0000ff; stroke-linejoin: miter"/>
     <use xlink:href="#mcc8ecd7334" x="217.145723" y="128.73456" style="fill: #0000ff; stroke: #0000ff; stroke-linejoin: miter"/>
     <use xlink:href="#mcc8ecd7334" x="226.066458" y="168.530404" style="fill: #0000ff; stroke: #0000ff; stroke-linejoin: miter"/>
     <use xlink:href="#mcc8ecd7334" x="234.987192" y="162.492362" style="fill: #0000ff; stroke: #0000ff; stroke-linejoin: miter"/>
     <use xlink:href="#mcc8ecd7334" x="243.907927" y="153.16314" style="fill: #0000ff; stroke: #0000ff; stroke-linejoin: miter"/>
     <use xlink:href="#mcc8ecd7334" x="252.828661" y="149.297113" style="fill: #0000ff; stroke: #0000ff; stroke-linejoin: miter"/>
     <use xlink:href="#mcc8ecd7334" x="261.749395" y="146.202958" style="fill: #0000ff; stroke: #0000ff; stroke-linejoin: miter"/>
     <use xlink:href="#mcc8ecd7334" x="270.67013" y="144.201799" style="fill: #0000ff; stroke: #0000ff; stroke-linejoin: miter"/>
     <use xlink:href="#mcc8ecd7334" x="279.590864" y="145.771367" style="fill: #0000ff; stroke: #0000ff; stroke-linejoin: miter"/>
     <use xlink:href="#mcc8ecd7334" x="288.511599" y="152.826083" style="fill: #0000ff; stroke: #0000ff; stroke-linejoin: miter"/>
     <use xlink:href="#mcc8ecd7334" x="297.432333" y="163.119724" style="fill: #0000ff; stroke: #0000ff; stroke-linejoin: miter"/>
     <use xlink:href="#mcc8ecd7334" x="306.353068" y="169.762924" style="fill: #0000ff; stroke: #0000ff; stroke-linejoin: miter"/>
     <use xlink:href="#mcc8ecd7334" x="315.273802" y="165.12371" style="fill: #0000ff; stroke: #0000ff; stroke-linejoin: miter"/>
     <use xlink:href="#mcc8ecd7334" x="324.194536" y="164.790229" style="fill: #0000ff; stroke: #0000ff; stroke-linejoin: miter"/>
     <use xlink:href="#mcc8ecd7334" x="333.115271" y="170.497515" style="fill: #0000ff; stroke: #0000ff; stroke-linejoin: miter"/>
     <use xlink:href="#mcc8ecd7334" x="342.036005" y="133.501817" style="fill: #0000ff; stroke: #0000ff; stroke-linejoin: miter"/>
     <use xlink:href="#mcc8ecd7334" x="350.95674" y="86.904685" style="fill: #0000ff; stroke: #0000ff; stroke-linejoin: miter"/>
     <use xlink:href="#mcc8ecd7334" x="359.877474" y="68.903647" style="fill: #0000ff; stroke: #0000ff; stroke-linejoin: miter"/>
     <use xlink:href="#mcc8ecd7334" x="368.798209" y="102.061808" style="fill: #0000ff; stroke: #0000ff; stroke-linejoin: miter"/>
     <use xlink:href="#mcc8ecd7334" x="377.718943" y="113.555967" style="fill: #0000ff; stroke: #0000ff; stroke-linejoin: miter"/>
     <use xlink:href="#mcc8ecd7334" x="386.639678" y="124.055898" style="fill: #0000ff; stroke: #0000ff; stroke-linejoin: miter"/>
     <use xlink:href="#mcc8ecd7334" x="395.560412" y="136.160598" style="fill: #0000ff; stroke: #0000ff; stroke-linejoin: miter"/>
     <use xlink:href="#mcc8ecd7334" x="404.481146" y="145.348555" style="fill: #0000ff; stroke: #0000ff; stroke-linejoin: miter"/>
     <use xlink:href="#mcc8ecd7334" x="413.401881" y="145.8674" style="fill: #0000ff; stroke: #0000ff; stroke-linejoin: miter"/>
     <use xlink:href="#mcc8ecd7334" x="422.322615" y="140.561082" style="fill: #0000ff; stroke: #0000ff; stroke-linejoin: miter"/>
    </g>
   </g>
   <g id="patch_3">
    <path d="M 45.6 257.142857 
L 45.6 19.714286 
" style="fill: none; stroke: #000000; stroke-width: 0.8; stroke-linejoin: miter; stroke-linecap: square"/>
   </g>
   <g id="patch_4">
    <path d="M 444 257.142857 
L 444 19.714286 
" style="fill: none; stroke: #000000; stroke-width: 0.8; stroke-linejoin: miter; stroke-linecap: square"/>
   </g>
   <g id="patch_5">
    <path d="M 45.6 257.142857 
L 444 257.142857 
" style="fill: none; stroke: #000000; stroke-width: 0.8; stroke-linejoin: miter; stroke-linecap: square"/>
   </g>
   <g id="patch_6">
    <path d="M 45.6 19.714286 
L 444 19.714286 
" style="fill: none; stroke: #000000; stroke-width: 0.8; stroke-linejoin: miter; stroke-linecap: square"/>
   </g>
   <g id="legend_1">
    <g id="patch_7">
     <path d="M 82.270938 355.444196 
L 407.329063 355.444196 
Q 410.129063 355.444196 410.129063 352.644196 
L 410.129063 314.428571 
Q 410.129063 311.628571 407.329063 311.628571 
L 82.270938 311.628571 
Q 79.470938 311.628571 79.470938 314.428571 
L 79.470938 352.644196 
Q 79.470938 355.444196 82.270938 355.444196 
z
" style="fill: #ffffff; opacity: 0.8; stroke: #cccccc; stroke-linejoin: miter"/>
    </g>
    <g id="line2d_17">
     <path d="M 85.070938 322.128571 
L 99.070938 322.128571 
L 113.070938 322.128571 
" style="fill: none; stroke: #008000; stroke-width: 1.5; stroke-linecap: square"/>
     <g>
      <use xlink:href="#mcff039fcb8" x="99.070938" y="322.128571" style="fill: #008000; stroke: #008000"/>
     </g>
    </g>
    <g id="text_16">
     <!-- Positive Sentiment -->
     <g transform="translate(124.270938 327.028571) scale(0.14 -0.14)">
      <defs>
       <path id="TimesNewRomanPSMT-73" d="M 2050 2947 
L 2050 1972 
L 1947 1972 
Q 1828 2431 1642 2597 
Q 1456 2763 1169 2763 
Q 950 2763 815 2647 
Q 681 2531 681 2391 
Q 681 2216 781 2091 
Q 878 1963 1175 1819 
L 1631 1597 
Q 2266 1288 2266 781 
Q 2266 391 1970 151 
Q 1675 -88 1309 -88 
Q 1047 -88 709 6 
Q 606 38 541 38 
Q 469 38 428 -44 
L 325 -44 
L 325 978 
L 428 978 
Q 516 541 762 319 
Q 1009 97 1316 97 
Q 1531 97 1667 223 
Q 1803 350 1803 528 
Q 1803 744 1651 891 
Q 1500 1038 1047 1263 
Q 594 1488 453 1669 
Q 313 1847 313 2119 
Q 313 2472 555 2709 
Q 797 2947 1181 2947 
Q 1350 2947 1591 2875 
Q 1750 2828 1803 2828 
Q 1853 2828 1881 2850 
Q 1909 2872 1947 2947 
L 2050 2947 
z
" transform="scale(0.015625)"/>
       <path id="TimesNewRomanPSMT-76" d="M 53 2863 
L 1400 2863 
L 1400 2747 
L 1313 2747 
Q 1191 2747 1127 2687 
Q 1063 2628 1063 2528 
Q 1063 2419 1128 2269 
L 1794 688 
L 2463 2328 
Q 2534 2503 2534 2594 
Q 2534 2638 2509 2666 
Q 2475 2713 2422 2730 
Q 2369 2747 2206 2747 
L 2206 2863 
L 3141 2863 
L 3141 2747 
Q 2978 2734 2916 2681 
Q 2806 2588 2719 2369 
L 1703 -88 
L 1575 -88 
L 553 2328 
Q 484 2497 421 2570 
Q 359 2644 263 2694 
Q 209 2722 53 2747 
L 53 2863 
z
" transform="scale(0.015625)"/>
      </defs>
      <use xlink:href="#TimesNewRomanPSMT-50"/>
      <use xlink:href="#TimesNewRomanPSMT-6f" transform="translate(55.615234 0)"/>
      <use xlink:href="#TimesNewRomanPSMT-73" transform="translate(105.615234 0)"/>
      <use xlink:href="#TimesNewRomanPSMT-69" transform="translate(144.53125 0)"/>
      <use xlink:href="#TimesNewRomanPSMT-74" transform="translate(172.314453 0)"/>
      <use xlink:href="#TimesNewRomanPSMT-69" transform="translate(200.097656 0)"/>
      <use xlink:href="#TimesNewRomanPSMT-76" transform="translate(227.880859 0)"/>
      <use xlink:href="#TimesNewRomanPSMT-65" transform="translate(277.880859 0)"/>
      <use xlink:href="#TimesNewRomanPSMT-20" transform="translate(322.265625 0)"/>
      <use xlink:href="#TimesNewRomanPSMT-53" transform="translate(347.265625 0)"/>
      <use xlink:href="#TimesNewRomanPSMT-65" transform="translate(402.880859 0)"/>
      <use xlink:href="#TimesNewRomanPSMT-6e" transform="translate(447.265625 0)"/>
      <use xlink:href="#TimesNewRomanPSMT-74" transform="translate(497.265625 0)"/>
      <use xlink:href="#TimesNewRomanPSMT-69" transform="translate(525.048828 0)"/>
      <use xlink:href="#TimesNewRomanPSMT-6d" transform="translate(552.832031 0)"/>
      <use xlink:href="#TimesNewRomanPSMT-65" transform="translate(630.615234 0)"/>
      <use xlink:href="#TimesNewRomanPSMT-6e" transform="translate(675 0)"/>
      <use xlink:href="#TimesNewRomanPSMT-74" transform="translate(725 0)"/>
     </g>
    </g>
    <g id="line2d_18">
     <path d="M 85.070938 341.923259 
L 99.070938 341.923259 
L 113.070938 341.923259 
" style="fill: none; stroke: #ff0000; stroke-width: 1.5; stroke-linecap: square"/>
     <g>
      <use xlink:href="#m362b1bdda7" x="99.070938" y="341.923259" style="fill: #ff0000; stroke: #ff0000; stroke-linejoin: miter"/>
     </g>
    </g>
    <g id="text_17">
     <!-- Negative Sentiment -->
     <g transform="translate(124.270938 346.823259) scale(0.14 -0.14)">
      <defs>
       <path id="TimesNewRomanPSMT-4e" d="M -84 4238 
L 1066 4238 
L 3656 1059 
L 3656 3503 
Q 3656 3894 3569 3991 
Q 3453 4122 3203 4122 
L 3056 4122 
L 3056 4238 
L 4531 4238 
L 4531 4122 
L 4381 4122 
Q 4113 4122 4000 3959 
Q 3931 3859 3931 3503 
L 3931 -69 
L 3819 -69 
L 1025 3344 
L 1025 734 
Q 1025 344 1109 247 
Q 1228 116 1475 116 
L 1625 116 
L 1625 0 
L 150 0 
L 150 116 
L 297 116 
Q 569 116 681 278 
Q 750 378 750 734 
L 750 3681 
Q 566 3897 470 3965 
Q 375 4034 191 4094 
Q 100 4122 -84 4122 
L -84 4238 
z
" transform="scale(0.015625)"/>
       <path id="TimesNewRomanPSMT-67" d="M 966 1044 
Q 703 1172 562 1401 
Q 422 1631 422 1909 
Q 422 2334 742 2640 
Q 1063 2947 1563 2947 
Q 1972 2947 2272 2747 
L 2878 2747 
Q 3013 2747 3034 2739 
Q 3056 2731 3066 2713 
Q 3084 2684 3084 2613 
Q 3084 2531 3069 2500 
Q 3059 2484 3036 2475 
Q 3013 2466 2878 2466 
L 2506 2466 
Q 2681 2241 2681 1891 
Q 2681 1491 2375 1206 
Q 2069 922 1553 922 
Q 1341 922 1119 984 
Q 981 866 932 777 
Q 884 688 884 625 
Q 884 572 936 522 
Q 988 472 1138 450 
Q 1225 438 1575 428 
Q 2219 413 2409 384 
Q 2700 344 2873 169 
Q 3047 -6 3047 -263 
Q 3047 -616 2716 -925 
Q 2228 -1381 1444 -1381 
Q 841 -1381 425 -1109 
Q 191 -953 191 -784 
Q 191 -709 225 -634 
Q 278 -519 444 -313 
Q 466 -284 763 25 
Q 600 122 533 198 
Q 466 275 466 372 
Q 466 481 555 628 
Q 644 775 966 1044 
z
M 1509 2797 
Q 1278 2797 1122 2612 
Q 966 2428 966 2047 
Q 966 1553 1178 1281 
Q 1341 1075 1591 1075 
Q 1828 1075 1981 1253 
Q 2134 1431 2134 1813 
Q 2134 2309 1919 2591 
Q 1759 2797 1509 2797 
z
M 934 0 
Q 788 -159 713 -296 
Q 638 -434 638 -550 
Q 638 -700 819 -813 
Q 1131 -1006 1722 -1006 
Q 2284 -1006 2551 -807 
Q 2819 -609 2819 -384 
Q 2819 -222 2659 -153 
Q 2497 -84 2016 -72 
Q 1313 -53 934 0 
z
" transform="scale(0.015625)"/>
      </defs>
      <use xlink:href="#TimesNewRomanPSMT-4e"/>
      <use xlink:href="#TimesNewRomanPSMT-65" transform="translate(72.216797 0)"/>
      <use xlink:href="#TimesNewRomanPSMT-67" transform="translate(116.601562 0)"/>
      <use xlink:href="#TimesNewRomanPSMT-61" transform="translate(166.601562 0)"/>
      <use xlink:href="#TimesNewRomanPSMT-74" transform="translate(210.986328 0)"/>
      <use xlink:href="#TimesNewRomanPSMT-69" transform="translate(238.769531 0)"/>
      <use xlink:href="#TimesNewRomanPSMT-76" transform="translate(266.552734 0)"/>
      <use xlink:href="#TimesNewRomanPSMT-65" transform="translate(316.552734 0)"/>
      <use xlink:href="#TimesNewRomanPSMT-20" transform="translate(360.9375 0)"/>
      <use xlink:href="#TimesNewRomanPSMT-53" transform="translate(385.9375 0)"/>
      <use xlink:href="#TimesNewRomanPSMT-65" transform="translate(441.552734 0)"/>
      <use xlink:href="#TimesNewRomanPSMT-6e" transform="translate(485.9375 0)"/>
      <use xlink:href="#TimesNewRomanPSMT-74" transform="translate(535.9375 0)"/>
      <use xlink:href="#TimesNewRomanPSMT-69" transform="translate(563.720703 0)"/>
      <use xlink:href="#TimesNewRomanPSMT-6d" transform="translate(591.503906 0)"/>
      <use xlink:href="#TimesNewRomanPSMT-65" transform="translate(669.287109 0)"/>
      <use xlink:href="#TimesNewRomanPSMT-6e" transform="translate(713.671875 0)"/>
      <use xlink:href="#TimesNewRomanPSMT-74" transform="translate(763.671875 0)"/>
     </g>
    </g>
    <g id="line2d_19">
     <path d="M 263.076563 322.128571 
L 277.076563 322.128571 
L 291.076563 322.128571 
" style="fill: none; stroke: #0000ff; stroke-width: 1.5; stroke-linecap: square"/>
     <g>
      <use xlink:href="#mcc8ecd7334" x="277.076563" y="322.128571" style="fill: #0000ff; stroke: #0000ff; stroke-linejoin: miter"/>
     </g>
    </g>
    <g id="text_18">
     <!-- Neutral Sentiment -->
     <g transform="translate(302.276563 327.028571) scale(0.14 -0.14)">
      <defs>
       <path id="TimesNewRomanPSMT-75" d="M 2709 2863 
L 2709 1128 
Q 2709 631 2732 520 
Q 2756 409 2807 365 
Q 2859 322 2928 322 
Q 3025 322 3147 375 
L 3191 266 
L 2334 -88 
L 2194 -88 
L 2194 519 
Q 1825 119 1631 15 
Q 1438 -88 1222 -88 
Q 981 -88 804 51 
Q 628 191 559 409 
Q 491 628 491 1028 
L 491 2306 
Q 491 2509 447 2587 
Q 403 2666 317 2708 
Q 231 2750 6 2747 
L 6 2863 
L 1009 2863 
L 1009 947 
Q 1009 547 1148 422 
Q 1288 297 1484 297 
Q 1619 297 1789 381 
Q 1959 466 2194 703 
L 2194 2325 
Q 2194 2569 2105 2655 
Q 2016 2741 1734 2747 
L 1734 2863 
L 2709 2863 
z
" transform="scale(0.015625)"/>
       <path id="TimesNewRomanPSMT-6c" d="M 1184 4444 
L 1184 647 
Q 1184 378 1223 290 
Q 1263 203 1344 158 
Q 1425 113 1647 113 
L 1647 0 
L 244 0 
L 244 113 
Q 441 113 512 153 
Q 584 194 625 287 
Q 666 381 666 647 
L 666 3247 
Q 666 3731 644 3842 
Q 622 3953 573 3993 
Q 525 4034 450 4034 
Q 369 4034 244 3984 
L 191 4094 
L 1044 4444 
L 1184 4444 
z
" transform="scale(0.015625)"/>
      </defs>
      <use xlink:href="#TimesNewRomanPSMT-4e"/>
      <use xlink:href="#TimesNewRomanPSMT-65" transform="translate(72.216797 0)"/>
      <use xlink:href="#TimesNewRomanPSMT-75" transform="translate(116.601562 0)"/>
      <use xlink:href="#TimesNewRomanPSMT-74" transform="translate(166.601562 0)"/>
      <use xlink:href="#TimesNewRomanPSMT-72" transform="translate(194.384766 0)"/>
      <use xlink:href="#TimesNewRomanPSMT-61" transform="translate(227.685547 0)"/>
      <use xlink:href="#TimesNewRomanPSMT-6c" transform="translate(272.070312 0)"/>
      <use xlink:href="#TimesNewRomanPSMT-20" transform="translate(299.853516 0)"/>
      <use xlink:href="#TimesNewRomanPSMT-53" transform="translate(324.853516 0)"/>
      <use xlink:href="#TimesNewRomanPSMT-65" transform="translate(380.46875 0)"/>
      <use xlink:href="#TimesNewRomanPSMT-6e" transform="translate(424.853516 0)"/>
      <use xlink:href="#TimesNewRomanPSMT-74" transform="translate(474.853516 0)"/>
      <use xlink:href="#TimesNewRomanPSMT-69" transform="translate(502.636719 0)"/>
      <use xlink:href="#TimesNewRomanPSMT-6d" transform="translate(530.419922 0)"/>
      <use xlink:href="#TimesNewRomanPSMT-65" transform="translate(608.203125 0)"/>
      <use xlink:href="#TimesNewRomanPSMT-6e" transform="translate(652.587891 0)"/>
      <use xlink:href="#TimesNewRomanPSMT-74" transform="translate(702.587891 0)"/>
     </g>
    </g>
    <g id="line2d_20">
     <path d="M 263.076563 341.923259 
L 277.076563 341.923259 
L 291.076563 341.923259 
" style="fill: none; stroke-dasharray: 5.55,2.4; stroke-dashoffset: 0; stroke: #000000; stroke-width: 1.5"/>
     <defs>
      <path id="md0da8c279d" d="M 0 3.535534 
L 3.535534 0 
L 0 -3.535534 
L -3.535534 0 
z
" style="stroke: #000000; stroke-linejoin: miter"/>
     </defs>
     <g>
      <use xlink:href="#md0da8c279d" x="277.076563" y="341.923259" style="stroke: #000000; stroke-linejoin: miter"/>
     </g>
    </g>
    <g id="text_19">
     <!-- BTC-USD Price -->
     <g transform="translate(302.276563 346.823259) scale(0.14 -0.14)">
      <defs>
       <path id="TimesNewRomanPSMT-42" d="M 2956 2163 
Q 3397 2069 3616 1863 
Q 3919 1575 3919 1159 
Q 3919 844 3719 555 
Q 3519 266 3170 133 
Q 2822 0 2106 0 
L 106 0 
L 106 116 
L 266 116 
Q 531 116 647 284 
Q 719 394 719 750 
L 719 3488 
Q 719 3881 628 3984 
Q 506 4122 266 4122 
L 106 4122 
L 106 4238 
L 1938 4238 
Q 2450 4238 2759 4163 
Q 3228 4050 3475 3764 
Q 3722 3478 3722 3106 
Q 3722 2788 3528 2536 
Q 3334 2284 2956 2163 
z
M 1319 2331 
Q 1434 2309 1582 2298 
Q 1731 2288 1909 2288 
Q 2366 2288 2595 2386 
Q 2825 2484 2947 2687 
Q 3069 2891 3069 3131 
Q 3069 3503 2766 3765 
Q 2463 4028 1881 4028 
Q 1569 4028 1319 3959 
L 1319 2331 
z
M 1319 306 
Q 1681 222 2034 222 
Q 2600 222 2897 476 
Q 3194 731 3194 1106 
Q 3194 1353 3059 1581 
Q 2925 1809 2622 1940 
Q 2319 2072 1872 2072 
Q 1678 2072 1540 2065 
Q 1403 2059 1319 2044 
L 1319 306 
z
" transform="scale(0.015625)"/>
       <path id="TimesNewRomanPSMT-54" d="M 3703 4238 
L 3750 3244 
L 3631 3244 
Q 3597 3506 3538 3619 
Q 3441 3800 3280 3886 
Q 3119 3972 2856 3972 
L 2259 3972 
L 2259 734 
Q 2259 344 2344 247 
Q 2463 116 2709 116 
L 2856 116 
L 2856 0 
L 1059 0 
L 1059 116 
L 1209 116 
Q 1478 116 1591 278 
Q 1659 378 1659 734 
L 1659 3972 
L 1150 3972 
Q 853 3972 728 3928 
Q 566 3869 450 3700 
Q 334 3531 313 3244 
L 194 3244 
L 244 4238 
L 3703 4238 
z
" transform="scale(0.015625)"/>
       <path id="TimesNewRomanPSMT-43" d="M 3853 4334 
L 3950 2894 
L 3853 2894 
Q 3659 3541 3300 3825 
Q 2941 4109 2438 4109 
Q 2016 4109 1675 3895 
Q 1334 3681 1139 3212 
Q 944 2744 944 2047 
Q 944 1472 1128 1050 
Q 1313 628 1683 403 
Q 2053 178 2528 178 
Q 2941 178 3256 354 
Q 3572 531 3950 1056 
L 4047 994 
Q 3728 428 3303 165 
Q 2878 -97 2294 -97 
Q 1241 -97 663 684 
Q 231 1266 231 2053 
Q 231 2688 515 3219 
Q 800 3750 1298 4042 
Q 1797 4334 2388 4334 
Q 2847 4334 3294 4109 
Q 3425 4041 3481 4041 
Q 3566 4041 3628 4100 
Q 3709 4184 3744 4334 
L 3853 4334 
z
" transform="scale(0.015625)"/>
       <path id="TimesNewRomanPSMT-55" d="M 3053 4122 
L 3053 4238 
L 4553 4238 
L 4553 4122 
L 4394 4122 
Q 4144 4122 4009 3913 
Q 3944 3816 3944 3463 
L 3944 1744 
Q 3944 1106 3817 754 
Q 3691 403 3320 151 
Q 2950 -100 2313 -100 
Q 1619 -100 1259 140 
Q 900 381 750 788 
Q 650 1066 650 1831 
L 650 3488 
Q 650 3878 542 4000 
Q 434 4122 194 4122 
L 34 4122 
L 34 4238 
L 1866 4238 
L 1866 4122 
L 1703 4122 
Q 1441 4122 1328 3956 
Q 1250 3844 1250 3488 
L 1250 1641 
Q 1250 1394 1295 1075 
Q 1341 756 1459 578 
Q 1578 400 1801 284 
Q 2025 169 2350 169 
Q 2766 169 3094 350 
Q 3422 531 3542 814 
Q 3663 1097 3663 1772 
L 3663 3488 
Q 3663 3884 3575 3984 
Q 3453 4122 3213 4122 
L 3053 4122 
z
" transform="scale(0.015625)"/>
       <path id="TimesNewRomanPSMT-63" d="M 2631 1088 
Q 2516 522 2178 217 
Q 1841 -88 1431 -88 
Q 944 -88 581 321 
Q 219 731 219 1428 
Q 219 2103 620 2525 
Q 1022 2947 1584 2947 
Q 2006 2947 2278 2723 
Q 2550 2500 2550 2259 
Q 2550 2141 2473 2067 
Q 2397 1994 2259 1994 
Q 2075 1994 1981 2113 
Q 1928 2178 1911 2362 
Q 1894 2547 1784 2644 
Q 1675 2738 1481 2738 
Q 1169 2738 978 2506 
Q 725 2200 725 1697 
Q 725 1184 976 792 
Q 1228 400 1656 400 
Q 1963 400 2206 609 
Q 2378 753 2541 1131 
L 2631 1088 
z
" transform="scale(0.015625)"/>
      </defs>
      <use xlink:href="#TimesNewRomanPSMT-42"/>
      <use xlink:href="#TimesNewRomanPSMT-54" transform="translate(66.699219 0)"/>
      <use xlink:href="#TimesNewRomanPSMT-43" transform="translate(127.783203 0)"/>
      <use xlink:href="#TimesNewRomanPSMT-2d" transform="translate(194.482422 0)"/>
      <use xlink:href="#TimesNewRomanPSMT-55" transform="translate(227.783203 0)"/>
      <use xlink:href="#TimesNewRomanPSMT-53" transform="translate(300 0)"/>
      <use xlink:href="#TimesNewRomanPSMT-44" transform="translate(355.615234 0)"/>
      <use xlink:href="#TimesNewRomanPSMT-20" transform="translate(427.832031 0)"/>
      <use xlink:href="#TimesNewRomanPSMT-50" transform="translate(452.832031 0)"/>
      <use xlink:href="#TimesNewRomanPSMT-72" transform="translate(508.447266 0)"/>
      <use xlink:href="#TimesNewRomanPSMT-69" transform="translate(541.748047 0)"/>
      <use xlink:href="#TimesNewRomanPSMT-63" transform="translate(569.53125 0)"/>
      <use xlink:href="#TimesNewRomanPSMT-65" transform="translate(613.916016 0)"/>
     </g>
    </g>
   </g>
  </g>
  <g id="axes_2">
   <g id="matplotlib.axis_3">
    <g id="ytick_7">
     <g id="line2d_21">
      <defs>
       <path id="mb49d41f6e7" d="M 0 0 
L 3.5 0 
" style="stroke: #000000; stroke-width: 0.8"/>
      </defs>
      <g>
       <use xlink:href="#mb49d41f6e7" x="444" y="212.33255" style="stroke: #000000; stroke-width: 0.8"/>
      </g>
     </g>
     <g id="text_20">
      <!-- 60000 -->
      <g transform="translate(451 217.193175) scale(0.14 -0.14)">
       <use xlink:href="#TimesNewRomanPSMT-36"/>
       <use xlink:href="#TimesNewRomanPSMT-30" transform="translate(50 0)"/>
       <use xlink:href="#TimesNewRomanPSMT-30" transform="translate(100 0)"/>
       <use xlink:href="#TimesNewRomanPSMT-30" transform="translate(150 0)"/>
       <use xlink:href="#TimesNewRomanPSMT-30" transform="translate(200 0)"/>
      </g>
     </g>
    </g>
    <g id="ytick_8">
     <g id="line2d_22">
      <g>
       <use xlink:href="#mb49d41f6e7" x="444" y="156.115866" style="stroke: #000000; stroke-width: 0.8"/>
      </g>
     </g>
     <g id="text_21">
      <!-- 70000 -->
      <g transform="translate(451 160.976491) scale(0.14 -0.14)">
       <use xlink:href="#TimesNewRomanPSMT-37"/>
       <use xlink:href="#TimesNewRomanPSMT-30" transform="translate(50 0)"/>
       <use xlink:href="#TimesNewRomanPSMT-30" transform="translate(100 0)"/>
       <use xlink:href="#TimesNewRomanPSMT-30" transform="translate(150 0)"/>
       <use xlink:href="#TimesNewRomanPSMT-30" transform="translate(200 0)"/>
      </g>
     </g>
    </g>
    <g id="ytick_9">
     <g id="line2d_23">
      <g>
       <use xlink:href="#mb49d41f6e7" x="444" y="99.899182" style="stroke: #000000; stroke-width: 0.8"/>
      </g>
     </g>
     <g id="text_22">
      <!-- 80000 -->
      <g transform="translate(451 104.759807) scale(0.14 -0.14)">
       <use xlink:href="#TimesNewRomanPSMT-38"/>
       <use xlink:href="#TimesNewRomanPSMT-30" transform="translate(50 0)"/>
       <use xlink:href="#TimesNewRomanPSMT-30" transform="translate(100 0)"/>
       <use xlink:href="#TimesNewRomanPSMT-30" transform="translate(150 0)"/>
       <use xlink:href="#TimesNewRomanPSMT-30" transform="translate(200 0)"/>
      </g>
     </g>
    </g>
    <g id="ytick_10">
     <g id="line2d_24">
      <g>
       <use xlink:href="#mb49d41f6e7" x="444" y="43.682498" style="stroke: #000000; stroke-width: 0.8"/>
      </g>
     </g>
     <g id="text_23">
      <!-- 90000 -->
      <g transform="translate(451 48.543123) scale(0.14 -0.14)">
       <use xlink:href="#TimesNewRomanPSMT-39"/>
       <use xlink:href="#TimesNewRomanPSMT-30" transform="translate(50 0)"/>
       <use xlink:href="#TimesNewRomanPSMT-30" transform="translate(100 0)"/>
       <use xlink:href="#TimesNewRomanPSMT-30" transform="translate(150 0)"/>
       <use xlink:href="#TimesNewRomanPSMT-30" transform="translate(200 0)"/>
      </g>
     </g>
    </g>
    <g id="text_24">
     <!-- Crypto Price (USD $) -->
     <g transform="translate(500.049375 199.670915) rotate(-90) scale(0.14 -0.14)">
      <defs>
       <path id="TimesNewRomanPSMT-79" d="M 38 2863 
L 1372 2863 
L 1372 2747 
L 1306 2747 
Q 1166 2747 1095 2686 
Q 1025 2625 1025 2534 
Q 1025 2413 1128 2197 
L 1825 753 
L 2466 2334 
Q 2519 2463 2519 2588 
Q 2519 2644 2497 2672 
Q 2472 2706 2419 2726 
Q 2366 2747 2231 2747 
L 2231 2863 
L 3163 2863 
L 3163 2747 
Q 3047 2734 2984 2696 
Q 2922 2659 2847 2556 
Q 2819 2513 2741 2316 
L 1575 -541 
Q 1406 -956 1132 -1168 
Q 859 -1381 606 -1381 
Q 422 -1381 303 -1275 
Q 184 -1169 184 -1031 
Q 184 -900 270 -820 
Q 356 -741 506 -741 
Q 609 -741 788 -809 
Q 913 -856 944 -856 
Q 1038 -856 1148 -759 
Q 1259 -663 1372 -384 
L 1575 113 
L 547 2272 
Q 500 2369 397 2513 
Q 319 2622 269 2659 
Q 197 2709 38 2747 
L 38 2863 
z
" transform="scale(0.015625)"/>
       <path id="TimesNewRomanPSMT-28" d="M 1988 -1253 
L 1988 -1369 
Q 1516 -1131 1200 -813 
Q 750 -359 506 256 
Q 263 872 263 1534 
Q 263 2503 741 3301 
Q 1219 4100 1988 4444 
L 1988 4313 
Q 1603 4100 1356 3731 
Q 1109 3363 987 2797 
Q 866 2231 866 1616 
Q 866 947 969 400 
Q 1050 -31 1165 -292 
Q 1281 -553 1476 -793 
Q 1672 -1034 1988 -1253 
z
" transform="scale(0.015625)"/>
       <path id="TimesNewRomanPSMT-24" d="M 338 1044 
L 475 1044 
Q 509 616 743 387 
Q 978 159 1444 116 
L 1444 1941 
Q 741 2375 506 2709 
Q 341 2947 341 3288 
Q 341 3672 627 3959 
Q 913 4247 1444 4306 
L 1444 4594 
L 1644 4594 
L 1644 4306 
Q 1900 4291 2075 4247 
Q 2166 4225 2675 4031 
L 2675 3097 
L 2553 3097 
Q 2513 3594 2295 3823 
Q 2078 4053 1644 4097 
L 1644 2509 
Q 2431 1959 2654 1698 
Q 2878 1438 2878 1050 
Q 2878 619 2551 290 
Q 2225 -38 1644 -88 
L 1644 -488 
L 1444 -488 
L 1444 -88 
Q 1150 -75 897 -20 
Q 644 34 338 159 
L 338 1044 
z
M 1444 2641 
L 1444 4094 
Q 1131 4056 979 3895 
Q 828 3734 828 3491 
Q 828 3263 965 3064 
Q 1103 2866 1444 2641 
z
M 1644 116 
Q 1878 156 2003 231 
Q 2178 341 2279 517 
Q 2381 694 2381 894 
Q 2381 1100 2257 1284 
Q 2134 1469 1644 1806 
L 1644 116 
z
" transform="scale(0.015625)"/>
       <path id="TimesNewRomanPSMT-29" d="M 144 4313 
L 144 4444 
Q 619 4209 934 3891 
Q 1381 3434 1625 2820 
Q 1869 2206 1869 1541 
Q 1869 572 1392 -226 
Q 916 -1025 144 -1369 
L 144 -1253 
Q 528 -1038 776 -670 
Q 1025 -303 1145 264 
Q 1266 831 1266 1447 
Q 1266 2113 1163 2663 
Q 1084 3094 967 3353 
Q 850 3613 656 3853 
Q 463 4094 144 4313 
z
" transform="scale(0.015625)"/>
      </defs>
      <use xlink:href="#TimesNewRomanPSMT-43"/>
      <use xlink:href="#TimesNewRomanPSMT-72" transform="translate(66.699219 0)"/>
      <use xlink:href="#TimesNewRomanPSMT-79" transform="translate(100 0)"/>
      <use xlink:href="#TimesNewRomanPSMT-70" transform="translate(150 0)"/>
      <use xlink:href="#TimesNewRomanPSMT-74" transform="translate(200 0)"/>
      <use xlink:href="#TimesNewRomanPSMT-6f" transform="translate(227.783203 0)"/>
      <use xlink:href="#TimesNewRomanPSMT-20" transform="translate(277.783203 0)"/>
      <use xlink:href="#TimesNewRomanPSMT-50" transform="translate(302.783203 0)"/>
      <use xlink:href="#TimesNewRomanPSMT-72" transform="translate(358.398438 0)"/>
      <use xlink:href="#TimesNewRomanPSMT-69" transform="translate(391.699219 0)"/>
      <use xlink:href="#TimesNewRomanPSMT-63" transform="translate(419.482422 0)"/>
      <use xlink:href="#TimesNewRomanPSMT-65" transform="translate(463.867188 0)"/>
      <use xlink:href="#TimesNewRomanPSMT-20" transform="translate(508.251953 0)"/>
      <use xlink:href="#TimesNewRomanPSMT-28" transform="translate(533.251953 0)"/>
      <use xlink:href="#TimesNewRomanPSMT-55" transform="translate(566.552734 0)"/>
      <use xlink:href="#TimesNewRomanPSMT-53" transform="translate(638.769531 0)"/>
      <use xlink:href="#TimesNewRomanPSMT-44" transform="translate(694.384766 0)"/>
      <use xlink:href="#TimesNewRomanPSMT-20" transform="translate(766.601562 0)"/>
      <use xlink:href="#TimesNewRomanPSMT-24" transform="translate(791.601562 0)"/>
      <use xlink:href="#TimesNewRomanPSMT-29" transform="translate(841.601562 0)"/>
     </g>
    </g>
   </g>
   <g id="line2d_25">
    <path d="M 63.709091 222.147918 
L 65.493238 217.260316 
L 67.277385 196.086851 
L 69.061532 190.455982 
L 70.845678 189.670858 
L 74.413972 199.206987 
L 76.198119 205.654338 
L 77.982266 195.186681 
L 79.766413 207.875819 
L 81.55056 207.870571 
L 83.334707 204.190157 
L 85.118854 196.021565 
L 86.903 203.603285 
L 88.687147 177.098788 
L 90.471294 182.922331 
L 92.255441 172.689248 
L 94.039588 173.313648 
L 95.823735 177.037652 
L 97.607882 147.974593 
L 99.392029 155.348333 
L 101.176176 161.049803 
L 102.960322 167.755179 
L 104.744469 164.401635 
L 106.528616 160.242478 
L 108.312763 164.446652 
L 110.09691 159.519479 
L 111.881057 165.69396 
L 113.665204 169.73102 
L 115.449351 165.307338 
L 117.233498 170.218305 
L 119.017644 169.006703 
L 120.801791 168.755617 
L 122.585938 162.83499 
L 124.370085 152.924076 
L 126.154232 150.02861 
L 127.938379 151.859341 
L 129.722526 159.81163 
L 131.506673 160.018578 
L 133.29082 158.094738 
L 135.074966 158.857659 
L 136.859113 171.114302 
L 138.64326 166.003327 
L 140.427407 174.350319 
L 142.211554 178.540175 
L 143.995701 177.528801 
L 145.779848 175.01003 
L 147.563995 175.846254 
L 149.348142 183.432981 
L 151.132288 184.447406 
L 152.916435 185.187446 
L 154.700582 189.305077 
L 156.484729 188.425966 
L 158.268876 194.451165 
L 160.053023 210.773021 
L 161.83717 202.187459 
L 163.621317 207.771818 
L 165.405464 203.310893 
L 167.18961 210.532848 
L 168.973757 207.344 
L 170.757904 197.276075 
L 172.542051 196.299662 
L 174.326198 200.926097 
L 176.110345 211.354819 
L 177.894492 229.322901 
L 179.678639 231.095571 
L 181.462785 221.869491 
L 183.246932 235.667481 
L 185.031079 230.855399 
L 186.815226 223.524019 
L 188.599373 225.023489 
L 190.38352 227.258563 
L 192.167667 224.141063 
L 193.951814 216.650255 
L 195.735961 207.90384 
L 197.520107 184.954169 
L 199.304254 183.678072 
L 201.088401 189.178062 
L 202.872548 189.991667 
L 204.656695 174.610277 
L 206.440842 172.060894 
L 208.224989 166.490524 
L 210.009136 169.69079 
L 211.793283 179.009145 
L 213.577429 182.132201 
L 215.361576 179.854898 
L 217.145723 167.853559 
L 218.92987 168.408567 
L 220.714017 165.920803 
L 222.498164 173.993255 
L 224.282311 177.472497 
L 226.066458 186.364659 
L 227.850605 182.214462 
L 229.634751 204.377516 
L 231.418898 208.509289 
L 233.203045 222.918284 
L 234.987192 246.110587 
L 236.771339 234.626309 
L 238.555486 240.286516 
L 240.339633 202.718729 
L 242.12378 207.384845 
L 243.907927 207.015506 
L 245.692073 219.531185 
L 247.47622 215.96125 
L 249.260367 208.90577 
L 251.044514 219.431202 
L 252.828661 226.048872 
L 254.612808 218.549523 
L 256.396955 215.261593 
L 258.181102 220.855197 
L 259.965249 215.180189 
L 261.749395 217.882301 
L 263.533542 205.726014 
L 265.317689 210.185556 
L 267.101836 189.315442 
L 268.885983 188.839642 
L 270.67013 187.970809 
L 272.454277 196.138434 
L 274.238424 215.120151 
L 276.022571 217.79892 
L 277.806717 215.772001 
L 279.590864 217.282561 
L 281.375011 218.12344 
L 283.159158 227.367768 
L 284.943305 217.321891 
L 286.727452 226.774485 
L 288.511599 223.735885 
L 290.295746 233.917012 
L 292.079893 246.350649 
L 293.864039 245.277284 
L 295.648186 241.331554 
L 297.432333 229.087735 
L 299.21648 225.550718 
L 301.000627 227.268357 
L 302.784774 222.861869 
L 304.568921 209.120887 
L 306.353068 212.303761 
L 308.137215 216.926376 
L 309.921361 222.493672 
L 311.705508 210.598046 
L 315.273802 195.802276 
L 317.057949 194.382695 
L 318.842096 193.247887 
L 320.626243 191.820707 
L 322.41039 193.613515 
L 324.194536 188.148309 
L 325.978683 194.662834 
L 327.76283 183.206577 
L 329.546977 179.779357 
L 331.331124 179.234143 
L 333.115271 180.652736 
L 334.899418 193.615205 
L 336.683565 207.62717 
L 338.467712 208.775242 
L 340.251858 208.063442 
L 342.036005 200.709883 
L 343.820152 200.583549 
L 345.604299 196.485331 
L 347.388446 199.758789 
L 349.172593 200.347329 
L 350.95674 209.060168 
L 352.740887 210.789402 
L 354.525034 198.587066 
L 356.30918 194.382431 
L 358.093327 196.303066 
L 359.877474 178.343241 
L 361.661621 172.749768 
L 363.445768 169.53637 
L 365.229915 170.733127 
L 367.014062 165.00491 
L 368.798209 165.320031 
L 370.582356 161.72796 
L 372.366502 170.912932 
L 374.150649 170.949166 
L 375.934796 176.172881 
L 377.718943 166.453807 
L 379.50309 174.991101 
L 381.287237 172.898259 
L 383.071384 167.756673 
L 384.855531 156.634421 
L 386.639678 140.822161 
L 388.423824 142.963754 
L 390.207971 154.906154 
L 391.992118 159.025255 
L 393.776265 160.111335 
L 395.560412 163.192888 
L 397.344559 168.418844 
L 399.128706 159.716194 
L 400.912853 124.414839 
L 402.697 122.920705 
L 404.481146 119.319368 
L 406.265293 118.007323 
L 408.04944 97.233458 
L 409.833587 50.982323 
L 411.617734 55.174243 
L 413.401881 40.398522 
L 415.186028 59.139671 
L 416.970175 37.689756 
L 418.754322 40.542928 
L 420.538468 44.54907 
L 422.322615 40.631953 
L 424.106762 30.506494 
L 424.106762 30.506494 
" clip-path="url(#p466a372f47)" style="fill: none; stroke-dasharray: 5.55,2.4; stroke-dashoffset: 0; stroke: #000000; stroke-width: 1.5"/>
    <g clip-path="url(#p466a372f47)">
     <use xlink:href="#md0da8c279d" x="63.709091" y="222.147918" style="stroke: #000000; stroke-linejoin: miter"/>
     <use xlink:href="#md0da8c279d" x="72.629825" y="194.55712" style="stroke: #000000; stroke-linejoin: miter"/>
     <use xlink:href="#md0da8c279d" x="81.55056" y="207.870571" style="stroke: #000000; stroke-linejoin: miter"/>
     <use xlink:href="#md0da8c279d" x="90.471294" y="182.922331" style="stroke: #000000; stroke-linejoin: miter"/>
     <use xlink:href="#md0da8c279d" x="99.392029" y="155.348333" style="stroke: #000000; stroke-linejoin: miter"/>
     <use xlink:href="#md0da8c279d" x="108.312763" y="164.446652" style="stroke: #000000; stroke-linejoin: miter"/>
     <use xlink:href="#md0da8c279d" x="117.233498" y="170.218305" style="stroke: #000000; stroke-linejoin: miter"/>
     <use xlink:href="#md0da8c279d" x="126.154232" y="150.02861" style="stroke: #000000; stroke-linejoin: miter"/>
     <use xlink:href="#md0da8c279d" x="135.074966" y="158.857659" style="stroke: #000000; stroke-linejoin: miter"/>
     <use xlink:href="#md0da8c279d" x="143.995701" y="177.528801" style="stroke: #000000; stroke-linejoin: miter"/>
     <use xlink:href="#md0da8c279d" x="152.916435" y="185.187446" style="stroke: #000000; stroke-linejoin: miter"/>
     <use xlink:href="#md0da8c279d" x="161.83717" y="202.187459" style="stroke: #000000; stroke-linejoin: miter"/>
     <use xlink:href="#md0da8c279d" x="170.757904" y="197.276075" style="stroke: #000000; stroke-linejoin: miter"/>
     <use xlink:href="#md0da8c279d" x="179.678639" y="231.095571" style="stroke: #000000; stroke-linejoin: miter"/>
     <use xlink:href="#md0da8c279d" x="188.599373" y="225.023489" style="stroke: #000000; stroke-linejoin: miter"/>
     <use xlink:href="#md0da8c279d" x="197.520107" y="184.954169" style="stroke: #000000; stroke-linejoin: miter"/>
     <use xlink:href="#md0da8c279d" x="206.440842" y="172.060894" style="stroke: #000000; stroke-linejoin: miter"/>
     <use xlink:href="#md0da8c279d" x="215.361576" y="179.854898" style="stroke: #000000; stroke-linejoin: miter"/>
     <use xlink:href="#md0da8c279d" x="224.282311" y="177.472497" style="stroke: #000000; stroke-linejoin: miter"/>
     <use xlink:href="#md0da8c279d" x="233.203045" y="222.918284" style="stroke: #000000; stroke-linejoin: miter"/>
     <use xlink:href="#md0da8c279d" x="242.12378" y="207.384845" style="stroke: #000000; stroke-linejoin: miter"/>
     <use xlink:href="#md0da8c279d" x="251.044514" y="219.431202" style="stroke: #000000; stroke-linejoin: miter"/>
     <use xlink:href="#md0da8c279d" x="259.965249" y="215.180189" style="stroke: #000000; stroke-linejoin: miter"/>
     <use xlink:href="#md0da8c279d" x="268.885983" y="188.839642" style="stroke: #000000; stroke-linejoin: miter"/>
     <use xlink:href="#md0da8c279d" x="277.806717" y="215.772001" style="stroke: #000000; stroke-linejoin: miter"/>
     <use xlink:href="#md0da8c279d" x="286.727452" y="226.774485" style="stroke: #000000; stroke-linejoin: miter"/>
     <use xlink:href="#md0da8c279d" x="295.648186" y="241.331554" style="stroke: #000000; stroke-linejoin: miter"/>
     <use xlink:href="#md0da8c279d" x="304.568921" y="209.120887" style="stroke: #000000; stroke-linejoin: miter"/>
     <use xlink:href="#md0da8c279d" x="313.489655" y="203.058598" style="stroke: #000000; stroke-linejoin: miter"/>
     <use xlink:href="#md0da8c279d" x="322.41039" y="193.613515" style="stroke: #000000; stroke-linejoin: miter"/>
     <use xlink:href="#md0da8c279d" x="331.331124" y="179.234143" style="stroke: #000000; stroke-linejoin: miter"/>
     <use xlink:href="#md0da8c279d" x="340.251858" y="208.063442" style="stroke: #000000; stroke-linejoin: miter"/>
     <use xlink:href="#md0da8c279d" x="349.172593" y="200.347329" style="stroke: #000000; stroke-linejoin: miter"/>
     <use xlink:href="#md0da8c279d" x="358.093327" y="196.303066" style="stroke: #000000; stroke-linejoin: miter"/>
     <use xlink:href="#md0da8c279d" x="367.014062" y="165.00491" style="stroke: #000000; stroke-linejoin: miter"/>
     <use xlink:href="#md0da8c279d" x="375.934796" y="176.172881" style="stroke: #000000; stroke-linejoin: miter"/>
     <use xlink:href="#md0da8c279d" x="384.855531" y="156.634421" style="stroke: #000000; stroke-linejoin: miter"/>
     <use xlink:href="#md0da8c279d" x="393.776265" y="160.111335" style="stroke: #000000; stroke-linejoin: miter"/>
     <use xlink:href="#md0da8c279d" x="402.697" y="122.920705" style="stroke: #000000; stroke-linejoin: miter"/>
     <use xlink:href="#md0da8c279d" x="411.617734" y="55.174243" style="stroke: #000000; stroke-linejoin: miter"/>
     <use xlink:href="#md0da8c279d" x="420.538468" y="44.54907" style="stroke: #000000; stroke-linejoin: miter"/>
    </g>
   </g>
   <g id="patch_8">
    <path d="M 45.6 257.142857 
L 45.6 19.714286 
" style="fill: none; stroke: #000000; stroke-width: 0.8; stroke-linejoin: miter; stroke-linecap: square"/>
   </g>
   <g id="patch_9">
    <path d="M 444 257.142857 
L 444 19.714286 
" style="fill: none; stroke: #000000; stroke-width: 0.8; stroke-linejoin: miter; stroke-linecap: square"/>
   </g>
   <g id="patch_10">
    <path d="M 45.6 257.142857 
L 444 257.142857 
" style="fill: none; stroke: #000000; stroke-width: 0.8; stroke-linejoin: miter; stroke-linecap: square"/>
   </g>
   <g id="patch_11">
    <path d="M 45.6 19.714286 
L 444 19.714286 
" style="fill: none; stroke: #000000; stroke-width: 0.8; stroke-linejoin: miter; stroke-linecap: square"/>
   </g>
   <g id="text_25">
    <!-- Crypto Price Vs. Sentiment for the Crypto Topic -->
    <g transform="translate(89.66375 13.714286) scale(0.16 -0.16)">
     <defs>
      <path id="TimesNewRomanPSMT-56" d="M 4544 4238 
L 4544 4122 
Q 4319 4081 4203 3978 
Q 4038 3825 3909 3509 
L 2431 -97 
L 2316 -97 
L 728 3556 
Q 606 3838 556 3900 
Q 478 3997 364 4051 
Q 250 4106 56 4122 
L 56 4238 
L 1788 4238 
L 1788 4122 
Q 1494 4094 1406 4022 
Q 1319 3950 1319 3838 
Q 1319 3681 1463 3350 
L 2541 866 
L 3541 3319 
Q 3688 3681 3688 3822 
Q 3688 3913 3597 3995 
Q 3506 4078 3291 4113 
Q 3275 4116 3238 4122 
L 3238 4238 
L 4544 4238 
z
" transform="scale(0.015625)"/>
      <path id="TimesNewRomanPSMT-66" d="M 1319 2638 
L 1319 756 
Q 1319 356 1406 250 
Q 1522 113 1716 113 
L 1975 113 
L 1975 0 
L 266 0 
L 266 113 
L 394 113 
Q 519 113 622 175 
Q 725 238 764 344 
Q 803 450 803 756 
L 803 2638 
L 247 2638 
L 247 2863 
L 803 2863 
L 803 3050 
Q 803 3478 940 3775 
Q 1078 4072 1361 4255 
Q 1644 4438 1997 4438 
Q 2325 4438 2600 4225 
Q 2781 4084 2781 3909 
Q 2781 3816 2700 3733 
Q 2619 3650 2525 3650 
Q 2453 3650 2373 3701 
Q 2294 3753 2178 3923 
Q 2063 4094 1966 4153 
Q 1869 4213 1750 4213 
Q 1606 4213 1506 4136 
Q 1406 4059 1362 3898 
Q 1319 3738 1319 3069 
L 1319 2863 
L 2056 2863 
L 2056 2638 
L 1319 2638 
z
" transform="scale(0.015625)"/>
      <path id="TimesNewRomanPSMT-68" d="M 1041 4444 
L 1041 2350 
Q 1388 2731 1591 2839 
Q 1794 2947 1997 2947 
Q 2241 2947 2416 2812 
Q 2591 2678 2675 2391 
Q 2734 2191 2734 1659 
L 2734 647 
Q 2734 375 2778 275 
Q 2809 200 2884 156 
Q 2959 113 3159 113 
L 3159 0 
L 1753 0 
L 1753 113 
L 1819 113 
Q 2019 113 2097 173 
Q 2175 234 2206 353 
Q 2216 403 2216 647 
L 2216 1659 
Q 2216 2128 2167 2275 
Q 2119 2422 2012 2495 
Q 1906 2569 1756 2569 
Q 1603 2569 1437 2487 
Q 1272 2406 1041 2159 
L 1041 647 
Q 1041 353 1073 281 
Q 1106 209 1195 161 
Q 1284 113 1503 113 
L 1503 0 
L 84 0 
L 84 113 
Q 275 113 384 172 
Q 447 203 484 290 
Q 522 378 522 647 
L 522 3238 
Q 522 3728 498 3840 
Q 475 3953 426 3993 
Q 378 4034 297 4034 
Q 231 4034 84 3984 
L 41 4094 
L 897 4444 
L 1041 4444 
z
" transform="scale(0.015625)"/>
     </defs>
     <use xlink:href="#TimesNewRomanPSMT-43"/>
     <use xlink:href="#TimesNewRomanPSMT-72" transform="translate(66.699219 0)"/>
     <use xlink:href="#TimesNewRomanPSMT-79" transform="translate(100 0)"/>
     <use xlink:href="#TimesNewRomanPSMT-70" transform="translate(150 0)"/>
     <use xlink:href="#TimesNewRomanPSMT-74" transform="translate(200 0)"/>
     <use xlink:href="#TimesNewRomanPSMT-6f" transform="translate(227.783203 0)"/>
     <use xlink:href="#TimesNewRomanPSMT-20" transform="translate(277.783203 0)"/>
     <use xlink:href="#TimesNewRomanPSMT-50" transform="translate(302.783203 0)"/>
     <use xlink:href="#TimesNewRomanPSMT-72" transform="translate(358.398438 0)"/>
     <use xlink:href="#TimesNewRomanPSMT-69" transform="translate(391.699219 0)"/>
     <use xlink:href="#TimesNewRomanPSMT-63" transform="translate(419.482422 0)"/>
     <use xlink:href="#TimesNewRomanPSMT-65" transform="translate(463.867188 0)"/>
     <use xlink:href="#TimesNewRomanPSMT-20" transform="translate(508.251953 0)"/>
     <use xlink:href="#TimesNewRomanPSMT-56" transform="translate(531.501953 0)"/>
     <use xlink:href="#TimesNewRomanPSMT-73" transform="translate(603.71875 0)"/>
     <use xlink:href="#TimesNewRomanPSMT-2e" transform="translate(642.634766 0)"/>
     <use xlink:href="#TimesNewRomanPSMT-20" transform="translate(667.634766 0)"/>
     <use xlink:href="#TimesNewRomanPSMT-53" transform="translate(692.634766 0)"/>
     <use xlink:href="#TimesNewRomanPSMT-65" transform="translate(748.25 0)"/>
     <use xlink:href="#TimesNewRomanPSMT-6e" transform="translate(792.634766 0)"/>
     <use xlink:href="#TimesNewRomanPSMT-74" transform="translate(842.634766 0)"/>
     <use xlink:href="#TimesNewRomanPSMT-69" transform="translate(870.417969 0)"/>
     <use xlink:href="#TimesNewRomanPSMT-6d" transform="translate(898.201172 0)"/>
     <use xlink:href="#TimesNewRomanPSMT-65" transform="translate(975.984375 0)"/>
     <use xlink:href="#TimesNewRomanPSMT-6e" transform="translate(1020.369141 0)"/>
     <use xlink:href="#TimesNewRomanPSMT-74" transform="translate(1070.369141 0)"/>
     <use xlink:href="#TimesNewRomanPSMT-20" transform="translate(1098.152344 0)"/>
     <use xlink:href="#TimesNewRomanPSMT-66" transform="translate(1123.152344 0)"/>
     <use xlink:href="#TimesNewRomanPSMT-6f" transform="translate(1156.453125 0)"/>
     <use xlink:href="#TimesNewRomanPSMT-72" transform="translate(1206.453125 0)"/>
     <use xlink:href="#TimesNewRomanPSMT-20" transform="translate(1239.753906 0)"/>
     <use xlink:href="#TimesNewRomanPSMT-74" transform="translate(1264.753906 0)"/>
     <use xlink:href="#TimesNewRomanPSMT-68" transform="translate(1292.537109 0)"/>
     <use xlink:href="#TimesNewRomanPSMT-65" transform="translate(1342.537109 0)"/>
     <use xlink:href="#TimesNewRomanPSMT-20" transform="translate(1386.921875 0)"/>
     <use xlink:href="#TimesNewRomanPSMT-43" transform="translate(1411.921875 0)"/>
     <use xlink:href="#TimesNewRomanPSMT-72" transform="translate(1478.621094 0)"/>
     <use xlink:href="#TimesNewRomanPSMT-79" transform="translate(1511.921875 0)"/>
     <use xlink:href="#TimesNewRomanPSMT-70" transform="translate(1561.921875 0)"/>
     <use xlink:href="#TimesNewRomanPSMT-74" transform="translate(1611.921875 0)"/>
     <use xlink:href="#TimesNewRomanPSMT-6f" transform="translate(1639.705078 0)"/>
     <use xlink:href="#TimesNewRomanPSMT-20" transform="translate(1689.705078 0)"/>
     <use xlink:href="#TimesNewRomanPSMT-54" transform="translate(1712.955078 0)"/>
     <use xlink:href="#TimesNewRomanPSMT-6f" transform="translate(1767.039062 0)"/>
     <use xlink:href="#TimesNewRomanPSMT-70" transform="translate(1817.039062 0)"/>
     <use xlink:href="#TimesNewRomanPSMT-69" transform="translate(1867.039062 0)"/>
     <use xlink:href="#TimesNewRomanPSMT-63" transform="translate(1894.822266 0)"/>
    </g>
   </g>
  </g>
 </g>
 <defs>
  <clipPath id="p466a372f47">
   <rect x="45.6" y="19.714286" width="398.4" height="237.428571"/>
  </clipPath>
 </defs>
</svg>
