<?xml version="1.0" encoding="utf-8" standalone="no"?>
<!DOCTYPE svg PUBLIC "-//W3C//DTD SVG 1.1//EN"
  "http://www.w3.org/Graphics/SVG/1.1/DTD/svg11.dtd">
<svg xmlns:xlink="http://www.w3.org/1999/xlink" width="432pt" height="288pt" viewBox="0 0 432 288" xmlns="http://www.w3.org/2000/svg" version="1.1">
 <metadata>
  <rdf:RDF xmlns:dc="http://purl.org/dc/elements/1.1/" xmlns:cc="http://creativecommons.org/ns#" xmlns:rdf="http://www.w3.org/1999/02/22-rdf-syntax-ns#">
   <cc:Work>
    <dc:type rdf:resource="http://purl.org/dc/dcmitype/StillImage"/>
    <dc:date>2025-04-26T19:30:47.623408</dc:date>
    <dc:format>image/svg+xml</dc:format>
    <dc:creator>
     <cc:Agent>
      <dc:title>Matplotlib v3.10.1, https://matplotlib.org/</dc:title>
     </cc:Agent>
    </dc:creator>
   </cc:Work>
  </rdf:RDF>
 </metadata>
 <defs>
  <style type="text/css">*{stroke-linejoin: round; stroke-linecap: butt}</style>
 </defs>
 <g id="figure_1">
  <g id="patch_1">
   <path d="M 0 288 
L 432 288 
L 432 0 
L 0 0 
z
" style="fill: #ffffff"/>
  </g>
  <g id="axes_1">
   <g id="patch_2">
    <path d="M 59.0375 235.83625 
L 416.88 235.83625 
L 416.88 31.92 
L 59.0375 31.92 
z
" style="fill: #ffffff"/>
   </g>
   <g id="matplotlib.axis_1">
    <g id="xtick_1">
     <g id="line2d_1">
      <path d="M 80.087059 235.83625 
L 80.087059 31.92 
" clip-path="url(#p1438a655f5)" style="fill: none; stroke-dasharray: 2.96,1.28; stroke-dashoffset: 0; stroke: #b0b0b0; stroke-opacity: 0.5; stroke-width: 0.8"/>
     </g>
     <g id="line2d_2">
      <defs>
       <path id="mcfc0de26f7" d="M 0 0 
L 0 3.5 
" style="stroke: #000000; stroke-width: 0.8"/>
      </defs>
      <g>
       <use xlink:href="#mcfc0de26f7" x="80.087059" y="235.83625" style="stroke: #000000; stroke-width: 0.8"/>
      </g>
     </g>
     <g id="text_1">
      <!-- 5 -->
      <g transform="translate(76.587059 252.5575) scale(0.14 -0.14)">
       <defs>
        <path id="TimesNewRomanPSMT-35" d="M 2778 4238 
L 2534 3706 
L 1259 3706 
L 981 3138 
Q 1809 3016 2294 2522 
Q 2709 2097 2709 1522 
Q 2709 1188 2573 903 
Q 2438 619 2231 419 
Q 2025 219 1772 97 
Q 1413 -75 1034 -75 
Q 653 -75 479 54 
Q 306 184 306 341 
Q 306 428 378 495 
Q 450 563 559 563 
Q 641 563 702 538 
Q 763 513 909 409 
Q 1144 247 1384 247 
Q 1750 247 2026 523 
Q 2303 800 2303 1197 
Q 2303 1581 2056 1914 
Q 1809 2247 1375 2428 
Q 1034 2569 447 2591 
L 1259 4238 
L 2778 4238 
z
" transform="scale(0.015625)"/>
       </defs>
       <use xlink:href="#TimesNewRomanPSMT-35"/>
      </g>
     </g>
    </g>
    <g id="xtick_2">
     <g id="line2d_3">
      <path d="M 101.136618 235.83625 
L 101.136618 31.92 
" clip-path="url(#p1438a655f5)" style="fill: none; stroke-dasharray: 2.96,1.28; stroke-dashoffset: 0; stroke: #b0b0b0; stroke-opacity: 0.5; stroke-width: 0.8"/>
     </g>
     <g id="line2d_4">
      <g>
       <use xlink:href="#mcfc0de26f7" x="101.136618" y="235.83625" style="stroke: #000000; stroke-width: 0.8"/>
      </g>
     </g>
     <g id="text_2">
      <!-- 10 -->
      <g transform="translate(94.136618 252.5575) scale(0.14 -0.14)">
       <defs>
        <path id="TimesNewRomanPSMT-31" d="M 750 3822 
L 1781 4325 
L 1884 4325 
L 1884 747 
Q 1884 391 1914 303 
Q 1944 216 2037 169 
Q 2131 122 2419 116 
L 2419 0 
L 825 0 
L 825 116 
Q 1125 122 1212 167 
Q 1300 213 1334 289 
Q 1369 366 1369 747 
L 1369 3034 
Q 1369 3497 1338 3628 
Q 1316 3728 1258 3775 
Q 1200 3822 1119 3822 
Q 1003 3822 797 3725 
L 750 3822 
z
" transform="scale(0.015625)"/>
        <path id="TimesNewRomanPSMT-30" d="M 231 2094 
Q 231 2819 450 3342 
Q 669 3866 1031 4122 
Q 1313 4325 1613 4325 
Q 2100 4325 2488 3828 
Q 2972 3213 2972 2159 
Q 2972 1422 2759 906 
Q 2547 391 2217 158 
Q 1888 -75 1581 -75 
Q 975 -75 572 641 
Q 231 1244 231 2094 
z
M 844 2016 
Q 844 1141 1059 588 
Q 1238 122 1591 122 
Q 1759 122 1940 273 
Q 2122 425 2216 781 
Q 2359 1319 2359 2297 
Q 2359 3022 2209 3506 
Q 2097 3866 1919 4016 
Q 1791 4119 1609 4119 
Q 1397 4119 1231 3928 
Q 1006 3669 925 3112 
Q 844 2556 844 2016 
z
" transform="scale(0.015625)"/>
       </defs>
       <use xlink:href="#TimesNewRomanPSMT-31"/>
       <use xlink:href="#TimesNewRomanPSMT-30" transform="translate(50 0)"/>
      </g>
     </g>
    </g>
    <g id="xtick_3">
     <g id="line2d_5">
      <path d="M 122.186176 235.83625 
L 122.186176 31.92 
" clip-path="url(#p1438a655f5)" style="fill: none; stroke-dasharray: 2.96,1.28; stroke-dashoffset: 0; stroke: #b0b0b0; stroke-opacity: 0.5; stroke-width: 0.8"/>
     </g>
     <g id="line2d_6">
      <g>
       <use xlink:href="#mcfc0de26f7" x="122.186176" y="235.83625" style="stroke: #000000; stroke-width: 0.8"/>
      </g>
     </g>
     <g id="text_3">
      <!-- 15 -->
      <g transform="translate(115.186176 252.5575) scale(0.14 -0.14)">
       <use xlink:href="#TimesNewRomanPSMT-31"/>
       <use xlink:href="#TimesNewRomanPSMT-35" transform="translate(50 0)"/>
      </g>
     </g>
    </g>
    <g id="xtick_4">
     <g id="line2d_7">
      <path d="M 143.235735 235.83625 
L 143.235735 31.92 
" clip-path="url(#p1438a655f5)" style="fill: none; stroke-dasharray: 2.96,1.28; stroke-dashoffset: 0; stroke: #b0b0b0; stroke-opacity: 0.5; stroke-width: 0.8"/>
     </g>
     <g id="line2d_8">
      <g>
       <use xlink:href="#mcfc0de26f7" x="143.235735" y="235.83625" style="stroke: #000000; stroke-width: 0.8"/>
      </g>
     </g>
     <g id="text_4">
      <!-- 20 -->
      <g transform="translate(136.235735 252.5575) scale(0.14 -0.14)">
       <defs>
        <path id="TimesNewRomanPSMT-32" d="M 2934 816 
L 2638 0 
L 138 0 
L 138 116 
Q 1241 1122 1691 1759 
Q 2141 2397 2141 2925 
Q 2141 3328 1894 3587 
Q 1647 3847 1303 3847 
Q 991 3847 742 3664 
Q 494 3481 375 3128 
L 259 3128 
Q 338 3706 661 4015 
Q 984 4325 1469 4325 
Q 1984 4325 2329 3994 
Q 2675 3663 2675 3213 
Q 2675 2891 2525 2569 
Q 2294 2063 1775 1497 
Q 997 647 803 472 
L 1909 472 
Q 2247 472 2383 497 
Q 2519 522 2628 598 
Q 2738 675 2819 816 
L 2934 816 
z
" transform="scale(0.015625)"/>
       </defs>
       <use xlink:href="#TimesNewRomanPSMT-32"/>
       <use xlink:href="#TimesNewRomanPSMT-30" transform="translate(50 0)"/>
      </g>
     </g>
    </g>
    <g id="xtick_5">
     <g id="line2d_9">
      <path d="M 164.285294 235.83625 
L 164.285294 31.92 
" clip-path="url(#p1438a655f5)" style="fill: none; stroke-dasharray: 2.96,1.28; stroke-dashoffset: 0; stroke: #b0b0b0; stroke-opacity: 0.5; stroke-width: 0.8"/>
     </g>
     <g id="line2d_10">
      <g>
       <use xlink:href="#mcfc0de26f7" x="164.285294" y="235.83625" style="stroke: #000000; stroke-width: 0.8"/>
      </g>
     </g>
     <g id="text_5">
      <!-- 25 -->
      <g transform="translate(157.285294 252.5575) scale(0.14 -0.14)">
       <use xlink:href="#TimesNewRomanPSMT-32"/>
       <use xlink:href="#TimesNewRomanPSMT-35" transform="translate(50 0)"/>
      </g>
     </g>
    </g>
    <g id="xtick_6">
     <g id="line2d_11">
      <path d="M 185.334853 235.83625 
L 185.334853 31.92 
" clip-path="url(#p1438a655f5)" style="fill: none; stroke-dasharray: 2.96,1.28; stroke-dashoffset: 0; stroke: #b0b0b0; stroke-opacity: 0.5; stroke-width: 0.8"/>
     </g>
     <g id="line2d_12">
      <g>
       <use xlink:href="#mcfc0de26f7" x="185.334853" y="235.83625" style="stroke: #000000; stroke-width: 0.8"/>
      </g>
     </g>
     <g id="text_6">
      <!-- 30 -->
      <g transform="translate(178.334853 252.5575) scale(0.14 -0.14)">
       <defs>
        <path id="TimesNewRomanPSMT-33" d="M 325 3431 
Q 506 3859 782 4092 
Q 1059 4325 1472 4325 
Q 1981 4325 2253 3994 
Q 2459 3747 2459 3466 
Q 2459 3003 1878 2509 
Q 2269 2356 2469 2072 
Q 2669 1788 2669 1403 
Q 2669 853 2319 450 
Q 1863 -75 997 -75 
Q 569 -75 414 31 
Q 259 138 259 259 
Q 259 350 332 419 
Q 406 488 509 488 
Q 588 488 669 463 
Q 722 447 909 348 
Q 1097 250 1169 231 
Q 1284 197 1416 197 
Q 1734 197 1970 444 
Q 2206 691 2206 1028 
Q 2206 1275 2097 1509 
Q 2016 1684 1919 1775 
Q 1784 1900 1550 2001 
Q 1316 2103 1072 2103 
L 972 2103 
L 972 2197 
Q 1219 2228 1467 2375 
Q 1716 2522 1828 2728 
Q 1941 2934 1941 3181 
Q 1941 3503 1739 3701 
Q 1538 3900 1238 3900 
Q 753 3900 428 3381 
L 325 3431 
z
" transform="scale(0.015625)"/>
       </defs>
       <use xlink:href="#TimesNewRomanPSMT-33"/>
       <use xlink:href="#TimesNewRomanPSMT-30" transform="translate(50 0)"/>
      </g>
     </g>
    </g>
    <g id="xtick_7">
     <g id="line2d_13">
      <path d="M 206.384412 235.83625 
L 206.384412 31.92 
" clip-path="url(#p1438a655f5)" style="fill: none; stroke-dasharray: 2.96,1.28; stroke-dashoffset: 0; stroke: #b0b0b0; stroke-opacity: 0.5; stroke-width: 0.8"/>
     </g>
     <g id="line2d_14">
      <g>
       <use xlink:href="#mcfc0de26f7" x="206.384412" y="235.83625" style="stroke: #000000; stroke-width: 0.8"/>
      </g>
     </g>
     <g id="text_7">
      <!-- 35 -->
      <g transform="translate(199.384412 252.5575) scale(0.14 -0.14)">
       <use xlink:href="#TimesNewRomanPSMT-33"/>
       <use xlink:href="#TimesNewRomanPSMT-35" transform="translate(50 0)"/>
      </g>
     </g>
    </g>
    <g id="xtick_8">
     <g id="line2d_15">
      <path d="M 227.433971 235.83625 
L 227.433971 31.92 
" clip-path="url(#p1438a655f5)" style="fill: none; stroke-dasharray: 2.96,1.28; stroke-dashoffset: 0; stroke: #b0b0b0; stroke-opacity: 0.5; stroke-width: 0.8"/>
     </g>
     <g id="line2d_16">
      <g>
       <use xlink:href="#mcfc0de26f7" x="227.433971" y="235.83625" style="stroke: #000000; stroke-width: 0.8"/>
      </g>
     </g>
     <g id="text_8">
      <!-- 40 -->
      <g transform="translate(220.433971 252.5575) scale(0.14 -0.14)">
       <defs>
        <path id="TimesNewRomanPSMT-34" d="M 2978 1563 
L 2978 1119 
L 2409 1119 
L 2409 0 
L 1894 0 
L 1894 1119 
L 100 1119 
L 100 1519 
L 2066 4325 
L 2409 4325 
L 2409 1563 
L 2978 1563 
z
M 1894 1563 
L 1894 3666 
L 406 1563 
L 1894 1563 
z
" transform="scale(0.015625)"/>
       </defs>
       <use xlink:href="#TimesNewRomanPSMT-34"/>
       <use xlink:href="#TimesNewRomanPSMT-30" transform="translate(50 0)"/>
      </g>
     </g>
    </g>
    <g id="xtick_9">
     <g id="line2d_17">
      <path d="M 248.483529 235.83625 
L 248.483529 31.92 
" clip-path="url(#p1438a655f5)" style="fill: none; stroke-dasharray: 2.96,1.28; stroke-dashoffset: 0; stroke: #b0b0b0; stroke-opacity: 0.5; stroke-width: 0.8"/>
     </g>
     <g id="line2d_18">
      <g>
       <use xlink:href="#mcfc0de26f7" x="248.483529" y="235.83625" style="stroke: #000000; stroke-width: 0.8"/>
      </g>
     </g>
     <g id="text_9">
      <!-- 45 -->
      <g transform="translate(241.483529 252.5575) scale(0.14 -0.14)">
       <use xlink:href="#TimesNewRomanPSMT-34"/>
       <use xlink:href="#TimesNewRomanPSMT-35" transform="translate(50 0)"/>
      </g>
     </g>
    </g>
    <g id="xtick_10">
     <g id="line2d_19">
      <path d="M 269.533088 235.83625 
L 269.533088 31.92 
" clip-path="url(#p1438a655f5)" style="fill: none; stroke-dasharray: 2.96,1.28; stroke-dashoffset: 0; stroke: #b0b0b0; stroke-opacity: 0.5; stroke-width: 0.8"/>
     </g>
     <g id="line2d_20">
      <g>
       <use xlink:href="#mcfc0de26f7" x="269.533088" y="235.83625" style="stroke: #000000; stroke-width: 0.8"/>
      </g>
     </g>
     <g id="text_10">
      <!-- 50 -->
      <g transform="translate(262.533088 252.5575) scale(0.14 -0.14)">
       <use xlink:href="#TimesNewRomanPSMT-35"/>
       <use xlink:href="#TimesNewRomanPSMT-30" transform="translate(50 0)"/>
      </g>
     </g>
    </g>
    <g id="xtick_11">
     <g id="line2d_21">
      <path d="M 290.582647 235.83625 
L 290.582647 31.92 
" clip-path="url(#p1438a655f5)" style="fill: none; stroke-dasharray: 2.96,1.28; stroke-dashoffset: 0; stroke: #b0b0b0; stroke-opacity: 0.5; stroke-width: 0.8"/>
     </g>
     <g id="line2d_22">
      <g>
       <use xlink:href="#mcfc0de26f7" x="290.582647" y="235.83625" style="stroke: #000000; stroke-width: 0.8"/>
      </g>
     </g>
     <g id="text_11">
      <!-- 55 -->
      <g transform="translate(283.582647 252.5575) scale(0.14 -0.14)">
       <use xlink:href="#TimesNewRomanPSMT-35"/>
       <use xlink:href="#TimesNewRomanPSMT-35" transform="translate(50 0)"/>
      </g>
     </g>
    </g>
    <g id="xtick_12">
     <g id="line2d_23">
      <path d="M 311.632206 235.83625 
L 311.632206 31.92 
" clip-path="url(#p1438a655f5)" style="fill: none; stroke-dasharray: 2.96,1.28; stroke-dashoffset: 0; stroke: #b0b0b0; stroke-opacity: 0.5; stroke-width: 0.8"/>
     </g>
     <g id="line2d_24">
      <g>
       <use xlink:href="#mcfc0de26f7" x="311.632206" y="235.83625" style="stroke: #000000; stroke-width: 0.8"/>
      </g>
     </g>
     <g id="text_12">
      <!-- 60 -->
      <g transform="translate(304.632206 252.5575) scale(0.14 -0.14)">
       <defs>
        <path id="TimesNewRomanPSMT-36" d="M 2869 4325 
L 2869 4209 
Q 2456 4169 2195 4045 
Q 1934 3922 1679 3669 
Q 1425 3416 1258 3105 
Q 1091 2794 978 2366 
Q 1428 2675 1881 2675 
Q 2316 2675 2634 2325 
Q 2953 1975 2953 1425 
Q 2953 894 2631 456 
Q 2244 -75 1606 -75 
Q 1172 -75 869 213 
Q 275 772 275 1663 
Q 275 2231 503 2743 
Q 731 3256 1154 3653 
Q 1578 4050 1965 4187 
Q 2353 4325 2688 4325 
L 2869 4325 
z
M 925 2138 
Q 869 1716 869 1456 
Q 869 1156 980 804 
Q 1091 453 1309 247 
Q 1469 100 1697 100 
Q 1969 100 2183 356 
Q 2397 613 2397 1088 
Q 2397 1622 2184 2012 
Q 1972 2403 1581 2403 
Q 1463 2403 1327 2353 
Q 1191 2303 925 2138 
z
" transform="scale(0.015625)"/>
       </defs>
       <use xlink:href="#TimesNewRomanPSMT-36"/>
       <use xlink:href="#TimesNewRomanPSMT-30" transform="translate(50 0)"/>
      </g>
     </g>
    </g>
    <g id="xtick_13">
     <g id="line2d_25">
      <path d="M 332.681765 235.83625 
L 332.681765 31.92 
" clip-path="url(#p1438a655f5)" style="fill: none; stroke-dasharray: 2.96,1.28; stroke-dashoffset: 0; stroke: #b0b0b0; stroke-opacity: 0.5; stroke-width: 0.8"/>
     </g>
     <g id="line2d_26">
      <g>
       <use xlink:href="#mcfc0de26f7" x="332.681765" y="235.83625" style="stroke: #000000; stroke-width: 0.8"/>
      </g>
     </g>
     <g id="text_13">
      <!-- 65 -->
      <g transform="translate(325.681765 252.5575) scale(0.14 -0.14)">
       <use xlink:href="#TimesNewRomanPSMT-36"/>
       <use xlink:href="#TimesNewRomanPSMT-35" transform="translate(50 0)"/>
      </g>
     </g>
    </g>
    <g id="xtick_14">
     <g id="line2d_27">
      <path d="M 353.731324 235.83625 
L 353.731324 31.92 
" clip-path="url(#p1438a655f5)" style="fill: none; stroke-dasharray: 2.96,1.28; stroke-dashoffset: 0; stroke: #b0b0b0; stroke-opacity: 0.5; stroke-width: 0.8"/>
     </g>
     <g id="line2d_28">
      <g>
       <use xlink:href="#mcfc0de26f7" x="353.731324" y="235.83625" style="stroke: #000000; stroke-width: 0.8"/>
      </g>
     </g>
     <g id="text_14">
      <!-- 70 -->
      <g transform="translate(346.731324 252.5575) scale(0.14 -0.14)">
       <defs>
        <path id="TimesNewRomanPSMT-37" d="M 644 4238 
L 2916 4238 
L 2916 4119 
L 1503 -88 
L 1153 -88 
L 2419 3728 
L 1253 3728 
Q 900 3728 750 3644 
Q 488 3500 328 3200 
L 238 3234 
L 644 4238 
z
" transform="scale(0.015625)"/>
       </defs>
       <use xlink:href="#TimesNewRomanPSMT-37"/>
       <use xlink:href="#TimesNewRomanPSMT-30" transform="translate(50 0)"/>
      </g>
     </g>
    </g>
    <g id="xtick_15">
     <g id="line2d_29">
      <path d="M 374.780882 235.83625 
L 374.780882 31.92 
" clip-path="url(#p1438a655f5)" style="fill: none; stroke-dasharray: 2.96,1.28; stroke-dashoffset: 0; stroke: #b0b0b0; stroke-opacity: 0.5; stroke-width: 0.8"/>
     </g>
     <g id="line2d_30">
      <g>
       <use xlink:href="#mcfc0de26f7" x="374.780882" y="235.83625" style="stroke: #000000; stroke-width: 0.8"/>
      </g>
     </g>
     <g id="text_15">
      <!-- 75 -->
      <g transform="translate(367.780882 252.5575) scale(0.14 -0.14)">
       <use xlink:href="#TimesNewRomanPSMT-37"/>
       <use xlink:href="#TimesNewRomanPSMT-35" transform="translate(50 0)"/>
      </g>
     </g>
    </g>
    <g id="xtick_16">
     <g id="line2d_31">
      <path d="M 395.830441 235.83625 
L 395.830441 31.92 
" clip-path="url(#p1438a655f5)" style="fill: none; stroke-dasharray: 2.96,1.28; stroke-dashoffset: 0; stroke: #b0b0b0; stroke-opacity: 0.5; stroke-width: 0.8"/>
     </g>
     <g id="line2d_32">
      <g>
       <use xlink:href="#mcfc0de26f7" x="395.830441" y="235.83625" style="stroke: #000000; stroke-width: 0.8"/>
      </g>
     </g>
     <g id="text_16">
      <!-- 80 -->
      <g transform="translate(388.830441 252.5575) scale(0.14 -0.14)">
       <defs>
        <path id="TimesNewRomanPSMT-38" d="M 1228 2134 
Q 725 2547 579 2797 
Q 434 3047 434 3316 
Q 434 3728 753 4026 
Q 1072 4325 1600 4325 
Q 2113 4325 2425 4047 
Q 2738 3769 2738 3413 
Q 2738 3175 2569 2928 
Q 2400 2681 1866 2347 
Q 2416 1922 2594 1678 
Q 2831 1359 2831 1006 
Q 2831 559 2490 242 
Q 2150 -75 1597 -75 
Q 994 -75 656 303 
Q 388 606 388 966 
Q 388 1247 577 1523 
Q 766 1800 1228 2134 
z
M 1719 2469 
Q 2094 2806 2194 3001 
Q 2294 3197 2294 3444 
Q 2294 3772 2109 3958 
Q 1925 4144 1606 4144 
Q 1288 4144 1088 3959 
Q 888 3775 888 3528 
Q 888 3366 970 3203 
Q 1053 3041 1206 2894 
L 1719 2469 
z
M 1375 2016 
Q 1116 1797 991 1539 
Q 866 1281 866 981 
Q 866 578 1086 336 
Q 1306 94 1647 94 
Q 1984 94 2187 284 
Q 2391 475 2391 747 
Q 2391 972 2272 1150 
Q 2050 1481 1375 2016 
z
" transform="scale(0.015625)"/>
       </defs>
       <use xlink:href="#TimesNewRomanPSMT-38"/>
       <use xlink:href="#TimesNewRomanPSMT-30" transform="translate(50 0)"/>
      </g>
     </g>
    </g>
    <g id="text_17">
     <!-- N (Top N Tweet Topics) -->
     <g transform="translate(170.083906 269.273438) scale(0.14 -0.14)">
      <defs>
       <path id="TimesNewRomanPSMT-4e" d="M -84 4238 
L 1066 4238 
L 3656 1059 
L 3656 3503 
Q 3656 3894 3569 3991 
Q 3453 4122 3203 4122 
L 3056 4122 
L 3056 4238 
L 4531 4238 
L 4531 4122 
L 4381 4122 
Q 4113 4122 4000 3959 
Q 3931 3859 3931 3503 
L 3931 -69 
L 3819 -69 
L 1025 3344 
L 1025 734 
Q 1025 344 1109 247 
Q 1228 116 1475 116 
L 1625 116 
L 1625 0 
L 150 0 
L 150 116 
L 297 116 
Q 569 116 681 278 
Q 750 378 750 734 
L 750 3681 
Q 566 3897 470 3965 
Q 375 4034 191 4094 
Q 100 4122 -84 4122 
L -84 4238 
z
" transform="scale(0.015625)"/>
       <path id="TimesNewRomanPSMT-20" transform="scale(0.015625)"/>
       <path id="TimesNewRomanPSMT-28" d="M 1988 -1253 
L 1988 -1369 
Q 1516 -1131 1200 -813 
Q 750 -359 506 256 
Q 263 872 263 1534 
Q 263 2503 741 3301 
Q 1219 4100 1988 4444 
L 1988 4313 
Q 1603 4100 1356 3731 
Q 1109 3363 987 2797 
Q 866 2231 866 1616 
Q 866 947 969 400 
Q 1050 -31 1165 -292 
Q 1281 -553 1476 -793 
Q 1672 -1034 1988 -1253 
z
" transform="scale(0.015625)"/>
       <path id="TimesNewRomanPSMT-54" d="M 3703 4238 
L 3750 3244 
L 3631 3244 
Q 3597 3506 3538 3619 
Q 3441 3800 3280 3886 
Q 3119 3972 2856 3972 
L 2259 3972 
L 2259 734 
Q 2259 344 2344 247 
Q 2463 116 2709 116 
L 2856 116 
L 2856 0 
L 1059 0 
L 1059 116 
L 1209 116 
Q 1478 116 1591 278 
Q 1659 378 1659 734 
L 1659 3972 
L 1150 3972 
Q 853 3972 728 3928 
Q 566 3869 450 3700 
Q 334 3531 313 3244 
L 194 3244 
L 244 4238 
L 3703 4238 
z
" transform="scale(0.015625)"/>
       <path id="TimesNewRomanPSMT-6f" d="M 1600 2947 
Q 2250 2947 2644 2453 
Q 2978 2031 2978 1484 
Q 2978 1100 2793 706 
Q 2609 313 2286 112 
Q 1963 -88 1566 -88 
Q 919 -88 538 428 
Q 216 863 216 1403 
Q 216 1797 411 2186 
Q 606 2575 925 2761 
Q 1244 2947 1600 2947 
z
M 1503 2744 
Q 1338 2744 1170 2645 
Q 1003 2547 900 2300 
Q 797 2053 797 1666 
Q 797 1041 1045 587 
Q 1294 134 1700 134 
Q 2003 134 2200 384 
Q 2397 634 2397 1244 
Q 2397 2006 2069 2444 
Q 1847 2744 1503 2744 
z
" transform="scale(0.015625)"/>
       <path id="TimesNewRomanPSMT-70" d="M -6 2578 
L 875 2934 
L 994 2934 
L 994 2266 
Q 1216 2644 1439 2795 
Q 1663 2947 1909 2947 
Q 2341 2947 2628 2609 
Q 2981 2197 2981 1534 
Q 2981 794 2556 309 
Q 2206 -88 1675 -88 
Q 1444 -88 1275 -22 
Q 1150 25 994 166 
L 994 -706 
Q 994 -1000 1030 -1079 
Q 1066 -1159 1155 -1206 
Q 1244 -1253 1478 -1253 
L 1478 -1369 
L -22 -1369 
L -22 -1253 
L 56 -1253 
Q 228 -1256 350 -1188 
Q 409 -1153 442 -1076 
Q 475 -1000 475 -688 
L 475 2019 
Q 475 2297 450 2372 
Q 425 2447 370 2484 
Q 316 2522 222 2522 
Q 147 2522 31 2478 
L -6 2578 
z
M 994 2081 
L 994 1013 
Q 994 666 1022 556 
Q 1066 375 1236 237 
Q 1406 100 1666 100 
Q 1978 100 2172 344 
Q 2425 663 2425 1241 
Q 2425 1897 2138 2250 
Q 1938 2494 1663 2494 
Q 1513 2494 1366 2419 
Q 1253 2363 994 2081 
z
" transform="scale(0.015625)"/>
       <path id="TimesNewRomanPSMT-77" d="M 41 2863 
L 1241 2863 
L 1241 2747 
Q 1075 2734 1023 2687 
Q 972 2641 972 2553 
Q 972 2456 1025 2319 
L 1638 672 
L 2253 2013 
L 2091 2434 
Q 2016 2622 1894 2694 
Q 1825 2738 1638 2747 
L 1638 2863 
L 3000 2863 
L 3000 2747 
Q 2775 2738 2681 2666 
Q 2619 2616 2619 2506 
Q 2619 2444 2644 2378 
L 3294 734 
L 3897 2319 
Q 3959 2488 3959 2588 
Q 3959 2647 3898 2694 
Q 3838 2741 3659 2747 
L 3659 2863 
L 4563 2863 
L 4563 2747 
Q 4291 2706 4163 2378 
L 3206 -88 
L 3078 -88 
L 2363 1741 
L 1528 -88 
L 1413 -88 
L 494 2319 
Q 403 2547 315 2626 
Q 228 2706 41 2747 
L 41 2863 
z
" transform="scale(0.015625)"/>
       <path id="TimesNewRomanPSMT-65" d="M 681 1784 
Q 678 1147 991 784 
Q 1303 422 1725 422 
Q 2006 422 2214 576 
Q 2422 731 2563 1106 
L 2659 1044 
Q 2594 616 2278 264 
Q 1963 -88 1488 -88 
Q 972 -88 605 314 
Q 238 716 238 1394 
Q 238 2128 614 2539 
Q 991 2950 1559 2950 
Q 2041 2950 2350 2633 
Q 2659 2316 2659 1784 
L 681 1784 
z
M 681 1966 
L 2006 1966 
Q 1991 2241 1941 2353 
Q 1863 2528 1708 2628 
Q 1553 2728 1384 2728 
Q 1125 2728 920 2526 
Q 716 2325 681 1966 
z
" transform="scale(0.015625)"/>
       <path id="TimesNewRomanPSMT-74" d="M 1031 3803 
L 1031 2863 
L 1700 2863 
L 1700 2644 
L 1031 2644 
L 1031 788 
Q 1031 509 1111 412 
Q 1191 316 1316 316 
Q 1419 316 1516 380 
Q 1613 444 1666 569 
L 1788 569 
Q 1678 263 1478 108 
Q 1278 -47 1066 -47 
Q 922 -47 784 33 
Q 647 113 581 261 
Q 516 409 516 719 
L 516 2644 
L 63 2644 
L 63 2747 
Q 234 2816 414 2980 
Q 594 3144 734 3369 
Q 806 3488 934 3803 
L 1031 3803 
z
" transform="scale(0.015625)"/>
       <path id="TimesNewRomanPSMT-69" d="M 928 4444 
Q 1059 4444 1151 4351 
Q 1244 4259 1244 4128 
Q 1244 3997 1151 3903 
Q 1059 3809 928 3809 
Q 797 3809 703 3903 
Q 609 3997 609 4128 
Q 609 4259 701 4351 
Q 794 4444 928 4444 
z
M 1188 2947 
L 1188 647 
Q 1188 378 1227 289 
Q 1266 200 1342 156 
Q 1419 113 1622 113 
L 1622 0 
L 231 0 
L 231 113 
Q 441 113 512 153 
Q 584 194 626 287 
Q 669 381 669 647 
L 669 1750 
Q 669 2216 641 2353 
Q 619 2453 572 2492 
Q 525 2531 444 2531 
Q 356 2531 231 2484 
L 188 2597 
L 1050 2947 
L 1188 2947 
z
" transform="scale(0.015625)"/>
       <path id="TimesNewRomanPSMT-63" d="M 2631 1088 
Q 2516 522 2178 217 
Q 1841 -88 1431 -88 
Q 944 -88 581 321 
Q 219 731 219 1428 
Q 219 2103 620 2525 
Q 1022 2947 1584 2947 
Q 2006 2947 2278 2723 
Q 2550 2500 2550 2259 
Q 2550 2141 2473 2067 
Q 2397 1994 2259 1994 
Q 2075 1994 1981 2113 
Q 1928 2178 1911 2362 
Q 1894 2547 1784 2644 
Q 1675 2738 1481 2738 
Q 1169 2738 978 2506 
Q 725 2200 725 1697 
Q 725 1184 976 792 
Q 1228 400 1656 400 
Q 1963 400 2206 609 
Q 2378 753 2541 1131 
L 2631 1088 
z
" transform="scale(0.015625)"/>
       <path id="TimesNewRomanPSMT-73" d="M 2050 2947 
L 2050 1972 
L 1947 1972 
Q 1828 2431 1642 2597 
Q 1456 2763 1169 2763 
Q 950 2763 815 2647 
Q 681 2531 681 2391 
Q 681 2216 781 2091 
Q 878 1963 1175 1819 
L 1631 1597 
Q 2266 1288 2266 781 
Q 2266 391 1970 151 
Q 1675 -88 1309 -88 
Q 1047 -88 709 6 
Q 606 38 541 38 
Q 469 38 428 -44 
L 325 -44 
L 325 978 
L 428 978 
Q 516 541 762 319 
Q 1009 97 1316 97 
Q 1531 97 1667 223 
Q 1803 350 1803 528 
Q 1803 744 1651 891 
Q 1500 1038 1047 1263 
Q 594 1488 453 1669 
Q 313 1847 313 2119 
Q 313 2472 555 2709 
Q 797 2947 1181 2947 
Q 1350 2947 1591 2875 
Q 1750 2828 1803 2828 
Q 1853 2828 1881 2850 
Q 1909 2872 1947 2947 
L 2050 2947 
z
" transform="scale(0.015625)"/>
       <path id="TimesNewRomanPSMT-29" d="M 144 4313 
L 144 4444 
Q 619 4209 934 3891 
Q 1381 3434 1625 2820 
Q 1869 2206 1869 1541 
Q 1869 572 1392 -226 
Q 916 -1025 144 -1369 
L 144 -1253 
Q 528 -1038 776 -670 
Q 1025 -303 1145 264 
Q 1266 831 1266 1447 
Q 1266 2113 1163 2663 
Q 1084 3094 967 3353 
Q 850 3613 656 3853 
Q 463 4094 144 4313 
z
" transform="scale(0.015625)"/>
      </defs>
      <use xlink:href="#TimesNewRomanPSMT-4e"/>
      <use xlink:href="#TimesNewRomanPSMT-20" transform="translate(72.216797 0)"/>
      <use xlink:href="#TimesNewRomanPSMT-28" transform="translate(97.216797 0)"/>
      <use xlink:href="#TimesNewRomanPSMT-54" transform="translate(130.517578 0)"/>
      <use xlink:href="#TimesNewRomanPSMT-6f" transform="translate(184.601562 0)"/>
      <use xlink:href="#TimesNewRomanPSMT-70" transform="translate(234.601562 0)"/>
      <use xlink:href="#TimesNewRomanPSMT-20" transform="translate(284.601562 0)"/>
      <use xlink:href="#TimesNewRomanPSMT-4e" transform="translate(309.601562 0)"/>
      <use xlink:href="#TimesNewRomanPSMT-20" transform="translate(381.818359 0)"/>
      <use xlink:href="#TimesNewRomanPSMT-54" transform="translate(405.068359 0)"/>
      <use xlink:href="#TimesNewRomanPSMT-77" transform="translate(459.152344 0)"/>
      <use xlink:href="#TimesNewRomanPSMT-65" transform="translate(531.369141 0)"/>
      <use xlink:href="#TimesNewRomanPSMT-65" transform="translate(575.753906 0)"/>
      <use xlink:href="#TimesNewRomanPSMT-74" transform="translate(620.138672 0)"/>
      <use xlink:href="#TimesNewRomanPSMT-20" transform="translate(647.921875 0)"/>
      <use xlink:href="#TimesNewRomanPSMT-54" transform="translate(671.171875 0)"/>
      <use xlink:href="#TimesNewRomanPSMT-6f" transform="translate(725.255859 0)"/>
      <use xlink:href="#TimesNewRomanPSMT-70" transform="translate(775.255859 0)"/>
      <use xlink:href="#TimesNewRomanPSMT-69" transform="translate(825.255859 0)"/>
      <use xlink:href="#TimesNewRomanPSMT-63" transform="translate(853.039062 0)"/>
      <use xlink:href="#TimesNewRomanPSMT-73" transform="translate(897.423828 0)"/>
      <use xlink:href="#TimesNewRomanPSMT-29" transform="translate(936.339844 0)"/>
     </g>
    </g>
   </g>
   <g id="matplotlib.axis_2">
    <g id="ytick_1">
     <g id="line2d_33">
      <path d="M 59.0375 235.83625 
L 416.88 235.83625 
" clip-path="url(#p1438a655f5)" style="fill: none; stroke-dasharray: 2.96,1.28; stroke-dashoffset: 0; stroke: #b0b0b0; stroke-opacity: 0.5; stroke-width: 0.8"/>
     </g>
     <g id="line2d_34">
      <defs>
       <path id="m0034ef377e" d="M 0 0 
L -3.5 0 
" style="stroke: #000000; stroke-width: 0.8"/>
      </defs>
      <g>
       <use xlink:href="#m0034ef377e" x="59.0375" y="235.83625" style="stroke: #000000; stroke-width: 0.8"/>
      </g>
     </g>
     <g id="text_18">
      <!-- 0.0 -->
      <g transform="translate(34.5375 240.696875) scale(0.14 -0.14)">
       <defs>
        <path id="TimesNewRomanPSMT-2e" d="M 800 606 
Q 947 606 1047 504 
Q 1147 403 1147 259 
Q 1147 116 1045 14 
Q 944 -88 800 -88 
Q 656 -88 554 14 
Q 453 116 453 259 
Q 453 406 554 506 
Q 656 606 800 606 
z
" transform="scale(0.015625)"/>
       </defs>
       <use xlink:href="#TimesNewRomanPSMT-30"/>
       <use xlink:href="#TimesNewRomanPSMT-2e" transform="translate(50 0)"/>
       <use xlink:href="#TimesNewRomanPSMT-30" transform="translate(75 0)"/>
      </g>
     </g>
    </g>
    <g id="ytick_2">
     <g id="line2d_35">
      <path d="M 59.0375 196.99506 
L 416.88 196.99506 
" clip-path="url(#p1438a655f5)" style="fill: none; stroke-dasharray: 2.96,1.28; stroke-dashoffset: 0; stroke: #b0b0b0; stroke-opacity: 0.5; stroke-width: 0.8"/>
     </g>
     <g id="line2d_36">
      <g>
       <use xlink:href="#m0034ef377e" x="59.0375" y="196.99506" style="stroke: #000000; stroke-width: 0.8"/>
      </g>
     </g>
     <g id="text_19">
      <!-- 0.2 -->
      <g transform="translate(34.5375 201.855685) scale(0.14 -0.14)">
       <use xlink:href="#TimesNewRomanPSMT-30"/>
       <use xlink:href="#TimesNewRomanPSMT-2e" transform="translate(50 0)"/>
       <use xlink:href="#TimesNewRomanPSMT-32" transform="translate(75 0)"/>
      </g>
     </g>
    </g>
    <g id="ytick_3">
     <g id="line2d_37">
      <path d="M 59.0375 158.153869 
L 416.88 158.153869 
" clip-path="url(#p1438a655f5)" style="fill: none; stroke-dasharray: 2.96,1.28; stroke-dashoffset: 0; stroke: #b0b0b0; stroke-opacity: 0.5; stroke-width: 0.8"/>
     </g>
     <g id="line2d_38">
      <g>
       <use xlink:href="#m0034ef377e" x="59.0375" y="158.153869" style="stroke: #000000; stroke-width: 0.8"/>
      </g>
     </g>
     <g id="text_20">
      <!-- 0.4 -->
      <g transform="translate(34.5375 163.014494) scale(0.14 -0.14)">
       <use xlink:href="#TimesNewRomanPSMT-30"/>
       <use xlink:href="#TimesNewRomanPSMT-2e" transform="translate(50 0)"/>
       <use xlink:href="#TimesNewRomanPSMT-34" transform="translate(75 0)"/>
      </g>
     </g>
    </g>
    <g id="ytick_4">
     <g id="line2d_39">
      <path d="M 59.0375 119.312679 
L 416.88 119.312679 
" clip-path="url(#p1438a655f5)" style="fill: none; stroke-dasharray: 2.96,1.28; stroke-dashoffset: 0; stroke: #b0b0b0; stroke-opacity: 0.5; stroke-width: 0.8"/>
     </g>
     <g id="line2d_40">
      <g>
       <use xlink:href="#m0034ef377e" x="59.0375" y="119.312679" style="stroke: #000000; stroke-width: 0.8"/>
      </g>
     </g>
     <g id="text_21">
      <!-- 0.6 -->
      <g transform="translate(34.5375 124.173304) scale(0.14 -0.14)">
       <use xlink:href="#TimesNewRomanPSMT-30"/>
       <use xlink:href="#TimesNewRomanPSMT-2e" transform="translate(50 0)"/>
       <use xlink:href="#TimesNewRomanPSMT-36" transform="translate(75 0)"/>
      </g>
     </g>
    </g>
    <g id="ytick_5">
     <g id="line2d_41">
      <path d="M 59.0375 80.471488 
L 416.88 80.471488 
" clip-path="url(#p1438a655f5)" style="fill: none; stroke-dasharray: 2.96,1.28; stroke-dashoffset: 0; stroke: #b0b0b0; stroke-opacity: 0.5; stroke-width: 0.8"/>
     </g>
     <g id="line2d_42">
      <g>
       <use xlink:href="#m0034ef377e" x="59.0375" y="80.471488" style="stroke: #000000; stroke-width: 0.8"/>
      </g>
     </g>
     <g id="text_22">
      <!-- 0.8 -->
      <g transform="translate(34.5375 85.332113) scale(0.14 -0.14)">
       <use xlink:href="#TimesNewRomanPSMT-30"/>
       <use xlink:href="#TimesNewRomanPSMT-2e" transform="translate(50 0)"/>
       <use xlink:href="#TimesNewRomanPSMT-38" transform="translate(75 0)"/>
      </g>
     </g>
    </g>
    <g id="ytick_6">
     <g id="line2d_43">
      <path d="M 59.0375 41.630298 
L 416.88 41.630298 
" clip-path="url(#p1438a655f5)" style="fill: none; stroke-dasharray: 2.96,1.28; stroke-dashoffset: 0; stroke: #b0b0b0; stroke-opacity: 0.5; stroke-width: 0.8"/>
     </g>
     <g id="line2d_44">
      <g>
       <use xlink:href="#m0034ef377e" x="59.0375" y="41.630298" style="stroke: #000000; stroke-width: 0.8"/>
      </g>
     </g>
     <g id="text_23">
      <!-- 1.0 -->
      <g transform="translate(34.5375 46.490923) scale(0.14 -0.14)">
       <use xlink:href="#TimesNewRomanPSMT-31"/>
       <use xlink:href="#TimesNewRomanPSMT-2e" transform="translate(50 0)"/>
       <use xlink:href="#TimesNewRomanPSMT-30" transform="translate(75 0)"/>
      </g>
     </g>
    </g>
    <g id="text_24">
     <!-- P (Top News Topic $\epsilon$ Top N Tweet Topics) -->
     <g transform="translate(27.4575 256.658125) rotate(-90) scale(0.14 -0.14)">
      <defs>
       <path id="TimesNewRomanPSMT-50" d="M 1313 1984 
L 1313 750 
Q 1313 350 1400 253 
Q 1519 116 1759 116 
L 1922 116 
L 1922 0 
L 106 0 
L 106 116 
L 266 116 
Q 534 116 650 291 
Q 713 388 713 750 
L 713 3488 
Q 713 3888 628 3984 
Q 506 4122 266 4122 
L 106 4122 
L 106 4238 
L 1659 4238 
Q 2228 4238 2556 4120 
Q 2884 4003 3109 3725 
Q 3334 3447 3334 3066 
Q 3334 2547 2992 2222 
Q 2650 1897 2025 1897 
Q 1872 1897 1694 1919 
Q 1516 1941 1313 1984 
z
M 1313 2163 
Q 1478 2131 1606 2115 
Q 1734 2100 1825 2100 
Q 2150 2100 2386 2351 
Q 2622 2603 2622 3003 
Q 2622 3278 2509 3514 
Q 2397 3750 2190 3867 
Q 1984 3984 1722 3984 
Q 1563 3984 1313 3925 
L 1313 2163 
z
" transform="scale(0.015625)"/>
       <path id="DejaVuSans-Oblique-3b5" d="M 1263 1888 
Q 925 1963 778 2166 
Q 669 2309 669 2503 
Q 669 3034 1175 3344 
Q 1575 3588 2188 3588 
Q 2425 3588 2684 3550 
Q 2944 3513 3234 3438 
L 3134 2916 
Q 2847 3006 2606 3047 
Q 2359 3088 2138 3088 
Q 1766 3088 1522 2944 
Q 1228 2772 1228 2522 
Q 1228 2356 1381 2241 
Q 1563 2103 1925 2103 
L 2409 2103 
L 2319 1628 
L 1856 1628 
Q 1425 1628 1172 1469 
Q 828 1253 828 916 
Q 828 703 1013 563 
Q 1244 388 1716 388 
Q 2006 388 2284 444 
Q 2563 503 2806 619 
L 2700 84 
Q 2403 -3 2131 -47 
Q 1859 -91 1609 -91 
Q 866 -91 516 194 
Q 250 413 250 781 
Q 250 1278 600 1584 
Q 859 1813 1263 1888 
z
" transform="scale(0.015625)"/>
      </defs>
      <use xlink:href="#TimesNewRomanPSMT-50" transform="translate(0 0.5625)"/>
      <use xlink:href="#TimesNewRomanPSMT-20" transform="translate(55.615234 0.5625)"/>
      <use xlink:href="#TimesNewRomanPSMT-28" transform="translate(80.615234 0.5625)"/>
      <use xlink:href="#TimesNewRomanPSMT-54" transform="translate(113.916016 0.5625)"/>
      <use xlink:href="#TimesNewRomanPSMT-6f" transform="translate(175 0.5625)"/>
      <use xlink:href="#TimesNewRomanPSMT-70" transform="translate(225 0.5625)"/>
      <use xlink:href="#TimesNewRomanPSMT-20" transform="translate(275 0.5625)"/>
      <use xlink:href="#TimesNewRomanPSMT-4e" transform="translate(300 0.5625)"/>
      <use xlink:href="#TimesNewRomanPSMT-65" transform="translate(372.216797 0.5625)"/>
      <use xlink:href="#TimesNewRomanPSMT-77" transform="translate(416.601562 0.5625)"/>
      <use xlink:href="#TimesNewRomanPSMT-73" transform="translate(488.818359 0.5625)"/>
      <use xlink:href="#TimesNewRomanPSMT-20" transform="translate(527.734375 0.5625)"/>
      <use xlink:href="#TimesNewRomanPSMT-54" transform="translate(552.734375 0.5625)"/>
      <use xlink:href="#TimesNewRomanPSMT-6f" transform="translate(613.818359 0.5625)"/>
      <use xlink:href="#TimesNewRomanPSMT-70" transform="translate(663.818359 0.5625)"/>
      <use xlink:href="#TimesNewRomanPSMT-69" transform="translate(713.818359 0.5625)"/>
      <use xlink:href="#TimesNewRomanPSMT-63" transform="translate(741.601562 0.5625)"/>
      <use xlink:href="#TimesNewRomanPSMT-20" transform="translate(785.986328 0.5625)"/>
      <use xlink:href="#DejaVuSans-Oblique-3b5" transform="translate(810.986328 0.5625)"/>
      <use xlink:href="#TimesNewRomanPSMT-20" transform="translate(865.039062 0.5625)"/>
      <use xlink:href="#TimesNewRomanPSMT-54" transform="translate(890.039062 0.5625)"/>
      <use xlink:href="#TimesNewRomanPSMT-6f" transform="translate(951.123047 0.5625)"/>
      <use xlink:href="#TimesNewRomanPSMT-70" transform="translate(1001.123047 0.5625)"/>
      <use xlink:href="#TimesNewRomanPSMT-20" transform="translate(1051.123047 0.5625)"/>
      <use xlink:href="#TimesNewRomanPSMT-4e" transform="translate(1076.123047 0.5625)"/>
      <use xlink:href="#TimesNewRomanPSMT-20" transform="translate(1148.339844 0.5625)"/>
      <use xlink:href="#TimesNewRomanPSMT-54" transform="translate(1173.339844 0.5625)"/>
      <use xlink:href="#TimesNewRomanPSMT-77" transform="translate(1234.423828 0.5625)"/>
      <use xlink:href="#TimesNewRomanPSMT-65" transform="translate(1306.640625 0.5625)"/>
      <use xlink:href="#TimesNewRomanPSMT-65" transform="translate(1351.025391 0.5625)"/>
      <use xlink:href="#TimesNewRomanPSMT-74" transform="translate(1395.410156 0.5625)"/>
      <use xlink:href="#TimesNewRomanPSMT-20" transform="translate(1423.193359 0.5625)"/>
      <use xlink:href="#TimesNewRomanPSMT-54" transform="translate(1448.193359 0.5625)"/>
      <use xlink:href="#TimesNewRomanPSMT-6f" transform="translate(1509.277344 0.5625)"/>
      <use xlink:href="#TimesNewRomanPSMT-70" transform="translate(1559.277344 0.5625)"/>
      <use xlink:href="#TimesNewRomanPSMT-69" transform="translate(1609.277344 0.5625)"/>
      <use xlink:href="#TimesNewRomanPSMT-63" transform="translate(1637.060547 0.5625)"/>
      <use xlink:href="#TimesNewRomanPSMT-73" transform="translate(1681.445312 0.5625)"/>
      <use xlink:href="#TimesNewRomanPSMT-29" transform="translate(1720.361328 0.5625)"/>
     </g>
    </g>
   </g>
   <g id="line2d_45">
    <path d="M 63.247412 228.36679 
L 67.457324 228.36679 
L 71.667235 220.897331 
L 75.877147 220.897331 
L 80.087059 220.897331 
L 84.296971 205.958411 
L 88.506882 191.019492 
L 92.716794 191.019492 
L 96.926706 191.019492 
L 101.136618 191.019492 
L 105.346529 191.019492 
L 109.556441 191.019492 
L 113.766353 176.080572 
L 117.976265 176.080572 
L 122.186176 176.080572 
L 126.396088 176.080572 
L 130.606 176.080572 
L 134.815912 168.611113 
L 139.025824 168.611113 
L 143.235735 168.611113 
L 147.445647 161.141653 
L 151.655559 161.141653 
L 155.865471 161.141653 
L 160.075382 153.672193 
L 164.285294 153.672193 
L 168.495206 146.202734 
L 172.705118 146.202734 
L 176.915029 146.202734 
L 181.124941 146.202734 
L 185.334853 146.202734 
L 189.544765 146.202734 
L 193.754676 146.202734 
L 197.964588 146.202734 
L 202.1745 138.733274 
L 206.384412 138.733274 
L 210.594324 138.733274 
L 214.804235 138.733274 
L 219.014147 138.733274 
L 223.224059 138.733274 
L 227.433971 138.733274 
L 231.643882 138.733274 
L 235.853794 138.733274 
L 240.063706 138.733274 
L 244.273618 131.263814 
L 248.483529 131.263814 
L 252.693441 131.263814 
L 256.903353 131.263814 
L 261.113265 131.263814 
L 265.323176 131.263814 
L 269.533088 131.263814 
L 273.743 131.263814 
L 277.952912 131.263814 
L 282.162824 131.263814 
L 286.372735 123.794354 
L 290.582647 116.324895 
L 294.792559 116.324895 
L 299.002471 116.324895 
L 303.212382 116.324895 
L 307.422294 116.324895 
L 311.632206 116.324895 
L 315.842118 116.324895 
L 320.052029 116.324895 
L 324.261941 101.385975 
L 328.471853 101.385975 
L 332.681765 101.385975 
L 336.891676 101.385975 
L 341.101588 101.385975 
L 345.3115 101.385975 
L 349.521412 101.385975 
L 353.731324 101.385975 
L 357.941235 101.385975 
L 362.151147 101.385975 
L 366.361059 101.385975 
L 370.570971 101.385975 
L 374.780882 101.385975 
L 378.990794 101.385975 
L 383.200706 101.385975 
L 387.410618 101.385975 
L 391.620529 101.385975 
L 395.830441 101.385975 
L 400.040353 93.916516 
L 404.250265 93.916516 
L 408.460176 93.916516 
L 412.670088 86.447056 
" clip-path="url(#p1438a655f5)" style="fill: none; stroke: #1f77b4; stroke-width: 1.5; stroke-linecap: square"/>
    <defs>
     <path id="m4e9495fcd7" d="M 0 3 
C 0.795609 3 1.55874 2.683901 2.12132 2.12132 
C 2.683901 1.55874 3 0.795609 3 0 
C 3 -0.795609 2.683901 -1.55874 2.12132 -2.12132 
C 1.55874 -2.683901 0.795609 -3 0 -3 
C -0.795609 -3 -1.55874 -2.683901 -2.12132 -2.12132 
C -2.683901 -1.55874 -3 -0.795609 -3 0 
C -3 0.795609 -2.683901 1.55874 -2.12132 2.12132 
C -1.55874 2.683901 -0.795609 3 0 3 
z
" style="stroke: #1f77b4"/>
    </defs>
    <g clip-path="url(#p1438a655f5)">
     <use xlink:href="#m4e9495fcd7" x="63.247412" y="228.36679" style="fill: #1f77b4; stroke: #1f77b4"/>
     <use xlink:href="#m4e9495fcd7" x="67.457324" y="228.36679" style="fill: #1f77b4; stroke: #1f77b4"/>
     <use xlink:href="#m4e9495fcd7" x="71.667235" y="220.897331" style="fill: #1f77b4; stroke: #1f77b4"/>
     <use xlink:href="#m4e9495fcd7" x="75.877147" y="220.897331" style="fill: #1f77b4; stroke: #1f77b4"/>
     <use xlink:href="#m4e9495fcd7" x="80.087059" y="220.897331" style="fill: #1f77b4; stroke: #1f77b4"/>
     <use xlink:href="#m4e9495fcd7" x="84.296971" y="205.958411" style="fill: #1f77b4; stroke: #1f77b4"/>
     <use xlink:href="#m4e9495fcd7" x="88.506882" y="191.019492" style="fill: #1f77b4; stroke: #1f77b4"/>
     <use xlink:href="#m4e9495fcd7" x="92.716794" y="191.019492" style="fill: #1f77b4; stroke: #1f77b4"/>
     <use xlink:href="#m4e9495fcd7" x="96.926706" y="191.019492" style="fill: #1f77b4; stroke: #1f77b4"/>
     <use xlink:href="#m4e9495fcd7" x="101.136618" y="191.019492" style="fill: #1f77b4; stroke: #1f77b4"/>
     <use xlink:href="#m4e9495fcd7" x="105.346529" y="191.019492" style="fill: #1f77b4; stroke: #1f77b4"/>
     <use xlink:href="#m4e9495fcd7" x="109.556441" y="191.019492" style="fill: #1f77b4; stroke: #1f77b4"/>
     <use xlink:href="#m4e9495fcd7" x="113.766353" y="176.080572" style="fill: #1f77b4; stroke: #1f77b4"/>
     <use xlink:href="#m4e9495fcd7" x="117.976265" y="176.080572" style="fill: #1f77b4; stroke: #1f77b4"/>
     <use xlink:href="#m4e9495fcd7" x="122.186176" y="176.080572" style="fill: #1f77b4; stroke: #1f77b4"/>
     <use xlink:href="#m4e9495fcd7" x="126.396088" y="176.080572" style="fill: #1f77b4; stroke: #1f77b4"/>
     <use xlink:href="#m4e9495fcd7" x="130.606" y="176.080572" style="fill: #1f77b4; stroke: #1f77b4"/>
     <use xlink:href="#m4e9495fcd7" x="134.815912" y="168.611113" style="fill: #1f77b4; stroke: #1f77b4"/>
     <use xlink:href="#m4e9495fcd7" x="139.025824" y="168.611113" style="fill: #1f77b4; stroke: #1f77b4"/>
     <use xlink:href="#m4e9495fcd7" x="143.235735" y="168.611113" style="fill: #1f77b4; stroke: #1f77b4"/>
     <use xlink:href="#m4e9495fcd7" x="147.445647" y="161.141653" style="fill: #1f77b4; stroke: #1f77b4"/>
     <use xlink:href="#m4e9495fcd7" x="151.655559" y="161.141653" style="fill: #1f77b4; stroke: #1f77b4"/>
     <use xlink:href="#m4e9495fcd7" x="155.865471" y="161.141653" style="fill: #1f77b4; stroke: #1f77b4"/>
     <use xlink:href="#m4e9495fcd7" x="160.075382" y="153.672193" style="fill: #1f77b4; stroke: #1f77b4"/>
     <use xlink:href="#m4e9495fcd7" x="164.285294" y="153.672193" style="fill: #1f77b4; stroke: #1f77b4"/>
     <use xlink:href="#m4e9495fcd7" x="168.495206" y="146.202734" style="fill: #1f77b4; stroke: #1f77b4"/>
     <use xlink:href="#m4e9495fcd7" x="172.705118" y="146.202734" style="fill: #1f77b4; stroke: #1f77b4"/>
     <use xlink:href="#m4e9495fcd7" x="176.915029" y="146.202734" style="fill: #1f77b4; stroke: #1f77b4"/>
     <use xlink:href="#m4e9495fcd7" x="181.124941" y="146.202734" style="fill: #1f77b4; stroke: #1f77b4"/>
     <use xlink:href="#m4e9495fcd7" x="185.334853" y="146.202734" style="fill: #1f77b4; stroke: #1f77b4"/>
     <use xlink:href="#m4e9495fcd7" x="189.544765" y="146.202734" style="fill: #1f77b4; stroke: #1f77b4"/>
     <use xlink:href="#m4e9495fcd7" x="193.754676" y="146.202734" style="fill: #1f77b4; stroke: #1f77b4"/>
     <use xlink:href="#m4e9495fcd7" x="197.964588" y="146.202734" style="fill: #1f77b4; stroke: #1f77b4"/>
     <use xlink:href="#m4e9495fcd7" x="202.1745" y="138.733274" style="fill: #1f77b4; stroke: #1f77b4"/>
     <use xlink:href="#m4e9495fcd7" x="206.384412" y="138.733274" style="fill: #1f77b4; stroke: #1f77b4"/>
     <use xlink:href="#m4e9495fcd7" x="210.594324" y="138.733274" style="fill: #1f77b4; stroke: #1f77b4"/>
     <use xlink:href="#m4e9495fcd7" x="214.804235" y="138.733274" style="fill: #1f77b4; stroke: #1f77b4"/>
     <use xlink:href="#m4e9495fcd7" x="219.014147" y="138.733274" style="fill: #1f77b4; stroke: #1f77b4"/>
     <use xlink:href="#m4e9495fcd7" x="223.224059" y="138.733274" style="fill: #1f77b4; stroke: #1f77b4"/>
     <use xlink:href="#m4e9495fcd7" x="227.433971" y="138.733274" style="fill: #1f77b4; stroke: #1f77b4"/>
     <use xlink:href="#m4e9495fcd7" x="231.643882" y="138.733274" style="fill: #1f77b4; stroke: #1f77b4"/>
     <use xlink:href="#m4e9495fcd7" x="235.853794" y="138.733274" style="fill: #1f77b4; stroke: #1f77b4"/>
     <use xlink:href="#m4e9495fcd7" x="240.063706" y="138.733274" style="fill: #1f77b4; stroke: #1f77b4"/>
     <use xlink:href="#m4e9495fcd7" x="244.273618" y="131.263814" style="fill: #1f77b4; stroke: #1f77b4"/>
     <use xlink:href="#m4e9495fcd7" x="248.483529" y="131.263814" style="fill: #1f77b4; stroke: #1f77b4"/>
     <use xlink:href="#m4e9495fcd7" x="252.693441" y="131.263814" style="fill: #1f77b4; stroke: #1f77b4"/>
     <use xlink:href="#m4e9495fcd7" x="256.903353" y="131.263814" style="fill: #1f77b4; stroke: #1f77b4"/>
     <use xlink:href="#m4e9495fcd7" x="261.113265" y="131.263814" style="fill: #1f77b4; stroke: #1f77b4"/>
     <use xlink:href="#m4e9495fcd7" x="265.323176" y="131.263814" style="fill: #1f77b4; stroke: #1f77b4"/>
     <use xlink:href="#m4e9495fcd7" x="269.533088" y="131.263814" style="fill: #1f77b4; stroke: #1f77b4"/>
     <use xlink:href="#m4e9495fcd7" x="273.743" y="131.263814" style="fill: #1f77b4; stroke: #1f77b4"/>
     <use xlink:href="#m4e9495fcd7" x="277.952912" y="131.263814" style="fill: #1f77b4; stroke: #1f77b4"/>
     <use xlink:href="#m4e9495fcd7" x="282.162824" y="131.263814" style="fill: #1f77b4; stroke: #1f77b4"/>
     <use xlink:href="#m4e9495fcd7" x="286.372735" y="123.794354" style="fill: #1f77b4; stroke: #1f77b4"/>
     <use xlink:href="#m4e9495fcd7" x="290.582647" y="116.324895" style="fill: #1f77b4; stroke: #1f77b4"/>
     <use xlink:href="#m4e9495fcd7" x="294.792559" y="116.324895" style="fill: #1f77b4; stroke: #1f77b4"/>
     <use xlink:href="#m4e9495fcd7" x="299.002471" y="116.324895" style="fill: #1f77b4; stroke: #1f77b4"/>
     <use xlink:href="#m4e9495fcd7" x="303.212382" y="116.324895" style="fill: #1f77b4; stroke: #1f77b4"/>
     <use xlink:href="#m4e9495fcd7" x="307.422294" y="116.324895" style="fill: #1f77b4; stroke: #1f77b4"/>
     <use xlink:href="#m4e9495fcd7" x="311.632206" y="116.324895" style="fill: #1f77b4; stroke: #1f77b4"/>
     <use xlink:href="#m4e9495fcd7" x="315.842118" y="116.324895" style="fill: #1f77b4; stroke: #1f77b4"/>
     <use xlink:href="#m4e9495fcd7" x="320.052029" y="116.324895" style="fill: #1f77b4; stroke: #1f77b4"/>
     <use xlink:href="#m4e9495fcd7" x="324.261941" y="101.385975" style="fill: #1f77b4; stroke: #1f77b4"/>
     <use xlink:href="#m4e9495fcd7" x="328.471853" y="101.385975" style="fill: #1f77b4; stroke: #1f77b4"/>
     <use xlink:href="#m4e9495fcd7" x="332.681765" y="101.385975" style="fill: #1f77b4; stroke: #1f77b4"/>
     <use xlink:href="#m4e9495fcd7" x="336.891676" y="101.385975" style="fill: #1f77b4; stroke: #1f77b4"/>
     <use xlink:href="#m4e9495fcd7" x="341.101588" y="101.385975" style="fill: #1f77b4; stroke: #1f77b4"/>
     <use xlink:href="#m4e9495fcd7" x="345.3115" y="101.385975" style="fill: #1f77b4; stroke: #1f77b4"/>
     <use xlink:href="#m4e9495fcd7" x="349.521412" y="101.385975" style="fill: #1f77b4; stroke: #1f77b4"/>
     <use xlink:href="#m4e9495fcd7" x="353.731324" y="101.385975" style="fill: #1f77b4; stroke: #1f77b4"/>
     <use xlink:href="#m4e9495fcd7" x="357.941235" y="101.385975" style="fill: #1f77b4; stroke: #1f77b4"/>
     <use xlink:href="#m4e9495fcd7" x="362.151147" y="101.385975" style="fill: #1f77b4; stroke: #1f77b4"/>
     <use xlink:href="#m4e9495fcd7" x="366.361059" y="101.385975" style="fill: #1f77b4; stroke: #1f77b4"/>
     <use xlink:href="#m4e9495fcd7" x="370.570971" y="101.385975" style="fill: #1f77b4; stroke: #1f77b4"/>
     <use xlink:href="#m4e9495fcd7" x="374.780882" y="101.385975" style="fill: #1f77b4; stroke: #1f77b4"/>
     <use xlink:href="#m4e9495fcd7" x="378.990794" y="101.385975" style="fill: #1f77b4; stroke: #1f77b4"/>
     <use xlink:href="#m4e9495fcd7" x="383.200706" y="101.385975" style="fill: #1f77b4; stroke: #1f77b4"/>
     <use xlink:href="#m4e9495fcd7" x="387.410618" y="101.385975" style="fill: #1f77b4; stroke: #1f77b4"/>
     <use xlink:href="#m4e9495fcd7" x="391.620529" y="101.385975" style="fill: #1f77b4; stroke: #1f77b4"/>
     <use xlink:href="#m4e9495fcd7" x="395.830441" y="101.385975" style="fill: #1f77b4; stroke: #1f77b4"/>
     <use xlink:href="#m4e9495fcd7" x="400.040353" y="93.916516" style="fill: #1f77b4; stroke: #1f77b4"/>
     <use xlink:href="#m4e9495fcd7" x="404.250265" y="93.916516" style="fill: #1f77b4; stroke: #1f77b4"/>
     <use xlink:href="#m4e9495fcd7" x="408.460176" y="93.916516" style="fill: #1f77b4; stroke: #1f77b4"/>
     <use xlink:href="#m4e9495fcd7" x="412.670088" y="86.447056" style="fill: #1f77b4; stroke: #1f77b4"/>
    </g>
   </g>
   <g id="line2d_46">
    <path d="M 59.0375 235.83625 
L 416.88 43.888506 
" clip-path="url(#p1438a655f5)" style="fill: none; stroke-dasharray: 1,1.65; stroke-dashoffset: 0; stroke: #808080"/>
   </g>
   <g id="patch_3">
    <path d="M 59.0375 235.83625 
L 59.0375 31.92 
" style="fill: none; stroke: #000000; stroke-width: 0.8; stroke-linejoin: miter; stroke-linecap: square"/>
   </g>
   <g id="patch_4">
    <path d="M 416.88 235.83625 
L 416.88 31.92 
" style="fill: none; stroke: #000000; stroke-width: 0.8; stroke-linejoin: miter; stroke-linecap: square"/>
   </g>
   <g id="patch_5">
    <path d="M 59.0375 235.83625 
L 416.88 235.83625 
" style="fill: none; stroke: #000000; stroke-width: 0.8; stroke-linejoin: miter; stroke-linecap: square"/>
   </g>
   <g id="patch_6">
    <path d="M 59.0375 31.92 
L 416.88 31.92 
" style="fill: none; stroke: #000000; stroke-width: 0.8; stroke-linejoin: miter; stroke-linecap: square"/>
   </g>
   <g id="text_25">
    <!-- News vs. Tweet Topics -->
    <g transform="translate(164.2625 25.92) scale(0.16 -0.16)">
     <defs>
      <path id="TimesNewRomanPSMT-76" d="M 53 2863 
L 1400 2863 
L 1400 2747 
L 1313 2747 
Q 1191 2747 1127 2687 
Q 1063 2628 1063 2528 
Q 1063 2419 1128 2269 
L 1794 688 
L 2463 2328 
Q 2534 2503 2534 2594 
Q 2534 2638 2509 2666 
Q 2475 2713 2422 2730 
Q 2369 2747 2206 2747 
L 2206 2863 
L 3141 2863 
L 3141 2747 
Q 2978 2734 2916 2681 
Q 2806 2588 2719 2369 
L 1703 -88 
L 1575 -88 
L 553 2328 
Q 484 2497 421 2570 
Q 359 2644 263 2694 
Q 209 2722 53 2747 
L 53 2863 
z
" transform="scale(0.015625)"/>
     </defs>
     <use xlink:href="#TimesNewRomanPSMT-4e"/>
     <use xlink:href="#TimesNewRomanPSMT-65" transform="translate(72.216797 0)"/>
     <use xlink:href="#TimesNewRomanPSMT-77" transform="translate(116.601562 0)"/>
     <use xlink:href="#TimesNewRomanPSMT-73" transform="translate(188.818359 0)"/>
     <use xlink:href="#TimesNewRomanPSMT-20" transform="translate(227.734375 0)"/>
     <use xlink:href="#TimesNewRomanPSMT-76" transform="translate(252.734375 0)"/>
     <use xlink:href="#TimesNewRomanPSMT-73" transform="translate(302.734375 0)"/>
     <use xlink:href="#TimesNewRomanPSMT-2e" transform="translate(341.650391 0)"/>
     <use xlink:href="#TimesNewRomanPSMT-20" transform="translate(366.650391 0)"/>
     <use xlink:href="#TimesNewRomanPSMT-54" transform="translate(389.900391 0)"/>
     <use xlink:href="#TimesNewRomanPSMT-77" transform="translate(443.984375 0)"/>
     <use xlink:href="#TimesNewRomanPSMT-65" transform="translate(516.201172 0)"/>
     <use xlink:href="#TimesNewRomanPSMT-65" transform="translate(560.585938 0)"/>
     <use xlink:href="#TimesNewRomanPSMT-74" transform="translate(604.970703 0)"/>
     <use xlink:href="#TimesNewRomanPSMT-20" transform="translate(632.753906 0)"/>
     <use xlink:href="#TimesNewRomanPSMT-54" transform="translate(656.003906 0)"/>
     <use xlink:href="#TimesNewRomanPSMT-6f" transform="translate(710.087891 0)"/>
     <use xlink:href="#TimesNewRomanPSMT-70" transform="translate(760.087891 0)"/>
     <use xlink:href="#TimesNewRomanPSMT-69" transform="translate(810.087891 0)"/>
     <use xlink:href="#TimesNewRomanPSMT-63" transform="translate(837.871094 0)"/>
     <use xlink:href="#TimesNewRomanPSMT-73" transform="translate(882.255859 0)"/>
    </g>
   </g>
   <g id="legend_1">
    <g id="patch_7">
     <path d="M 68.8375 62.914688 
L 266.007812 62.914688 
Q 268.807813 62.914688 268.807813 60.114688 
L 268.807813 41.72 
Q 268.807813 38.92 266.007812 38.92 
L 68.8375 38.92 
Q 66.0375 38.92 66.0375 41.72 
L 66.0375 60.114688 
Q 66.0375 62.914688 68.8375 62.914688 
z
" style="fill: #ffffff; opacity: 0.8; stroke: #cccccc; stroke-linejoin: miter"/>
    </g>
    <g id="line2d_47">
     <path d="M 71.6375 49.42 
L 85.6375 49.42 
L 99.6375 49.42 
" style="fill: none; stroke-dasharray: 1,1.65; stroke-dashoffset: 0; stroke: #808080"/>
    </g>
    <g id="text_26">
     <!-- Expected for independence -->
     <g transform="translate(110.8375 54.32) scale(0.14 -0.14)">
      <defs>
       <path id="TimesNewRomanPSMT-45" d="M 1338 4006 
L 1338 2331 
L 2269 2331 
Q 2631 2331 2753 2441 
Q 2916 2584 2934 2947 
L 3050 2947 
L 3050 1472 
L 2934 1472 
Q 2891 1781 2847 1869 
Q 2791 1978 2662 2040 
Q 2534 2103 2269 2103 
L 1338 2103 
L 1338 706 
Q 1338 425 1363 364 
Q 1388 303 1450 267 
Q 1513 231 1688 231 
L 2406 231 
Q 2766 231 2928 281 
Q 3091 331 3241 478 
Q 3434 672 3638 1063 
L 3763 1063 
L 3397 0 
L 131 0 
L 131 116 
L 281 116 
Q 431 116 566 188 
Q 666 238 702 338 
Q 738 438 738 747 
L 738 3500 
Q 738 3903 656 3997 
Q 544 4122 281 4122 
L 131 4122 
L 131 4238 
L 3397 4238 
L 3444 3309 
L 3322 3309 
Q 3256 3644 3176 3769 
Q 3097 3894 2941 3959 
Q 2816 4006 2500 4006 
L 1338 4006 
z
" transform="scale(0.015625)"/>
       <path id="TimesNewRomanPSMT-78" d="M 84 2863 
L 1431 2863 
L 1431 2747 
Q 1303 2747 1251 2703 
Q 1200 2659 1200 2588 
Q 1200 2513 1309 2356 
Q 1344 2306 1413 2200 
L 1616 1875 
L 1850 2200 
Q 2075 2509 2075 2591 
Q 2075 2656 2022 2701 
Q 1969 2747 1850 2747 
L 1850 2863 
L 2819 2863 
L 2819 2747 
Q 2666 2738 2553 2663 
Q 2400 2556 2134 2200 
L 1744 1678 
L 2456 653 
Q 2719 275 2831 198 
Q 2944 122 3122 113 
L 3122 0 
L 1772 0 
L 1772 113 
Q 1913 113 1991 175 
Q 2050 219 2050 291 
Q 2050 363 1850 653 
L 1431 1266 
L 972 653 
Q 759 369 759 316 
Q 759 241 829 180 
Q 900 119 1041 113 
L 1041 0 
L 106 0 
L 106 113 
Q 219 128 303 191 
Q 422 281 703 653 
L 1303 1450 
L 759 2238 
Q 528 2575 401 2661 
Q 275 2747 84 2747 
L 84 2863 
z
" transform="scale(0.015625)"/>
       <path id="TimesNewRomanPSMT-64" d="M 2222 322 
Q 2013 103 1813 7 
Q 1613 -88 1381 -88 
Q 913 -88 563 304 
Q 213 697 213 1313 
Q 213 1928 600 2439 
Q 988 2950 1597 2950 
Q 1975 2950 2222 2709 
L 2222 3238 
Q 2222 3728 2198 3840 
Q 2175 3953 2125 3993 
Q 2075 4034 2000 4034 
Q 1919 4034 1784 3984 
L 1744 4094 
L 2597 4444 
L 2738 4444 
L 2738 1134 
Q 2738 631 2761 520 
Q 2784 409 2836 365 
Q 2888 322 2956 322 
Q 3041 322 3181 375 
L 3216 266 
L 2366 -88 
L 2222 -88 
L 2222 322 
z
M 2222 541 
L 2222 2016 
Q 2203 2228 2109 2403 
Q 2016 2578 1861 2667 
Q 1706 2756 1559 2756 
Q 1284 2756 1069 2509 
Q 784 2184 784 1559 
Q 784 928 1059 592 
Q 1334 256 1672 256 
Q 1956 256 2222 541 
z
" transform="scale(0.015625)"/>
       <path id="TimesNewRomanPSMT-66" d="M 1319 2638 
L 1319 756 
Q 1319 356 1406 250 
Q 1522 113 1716 113 
L 1975 113 
L 1975 0 
L 266 0 
L 266 113 
L 394 113 
Q 519 113 622 175 
Q 725 238 764 344 
Q 803 450 803 756 
L 803 2638 
L 247 2638 
L 247 2863 
L 803 2863 
L 803 3050 
Q 803 3478 940 3775 
Q 1078 4072 1361 4255 
Q 1644 4438 1997 4438 
Q 2325 4438 2600 4225 
Q 2781 4084 2781 3909 
Q 2781 3816 2700 3733 
Q 2619 3650 2525 3650 
Q 2453 3650 2373 3701 
Q 2294 3753 2178 3923 
Q 2063 4094 1966 4153 
Q 1869 4213 1750 4213 
Q 1606 4213 1506 4136 
Q 1406 4059 1362 3898 
Q 1319 3738 1319 3069 
L 1319 2863 
L 2056 2863 
L 2056 2638 
L 1319 2638 
z
" transform="scale(0.015625)"/>
       <path id="TimesNewRomanPSMT-72" d="M 1038 2947 
L 1038 2303 
Q 1397 2947 1775 2947 
Q 1947 2947 2059 2842 
Q 2172 2738 2172 2600 
Q 2172 2478 2090 2393 
Q 2009 2309 1897 2309 
Q 1788 2309 1652 2417 
Q 1516 2525 1450 2525 
Q 1394 2525 1328 2463 
Q 1188 2334 1038 2041 
L 1038 669 
Q 1038 431 1097 309 
Q 1138 225 1241 169 
Q 1344 113 1538 113 
L 1538 0 
L 72 0 
L 72 113 
Q 291 113 397 181 
Q 475 231 506 341 
Q 522 394 522 644 
L 522 1753 
Q 522 2253 501 2348 
Q 481 2444 426 2487 
Q 372 2531 291 2531 
Q 194 2531 72 2484 
L 41 2597 
L 906 2947 
L 1038 2947 
z
" transform="scale(0.015625)"/>
       <path id="TimesNewRomanPSMT-6e" d="M 1034 2341 
Q 1538 2947 1994 2947 
Q 2228 2947 2397 2830 
Q 2566 2713 2666 2444 
Q 2734 2256 2734 1869 
L 2734 647 
Q 2734 375 2778 278 
Q 2813 200 2889 156 
Q 2966 113 3172 113 
L 3172 0 
L 1756 0 
L 1756 113 
L 1816 113 
Q 2016 113 2095 173 
Q 2175 234 2206 353 
Q 2219 400 2219 647 
L 2219 1819 
Q 2219 2209 2117 2386 
Q 2016 2563 1775 2563 
Q 1403 2563 1034 2156 
L 1034 647 
Q 1034 356 1069 288 
Q 1113 197 1189 155 
Q 1266 113 1500 113 
L 1500 0 
L 84 0 
L 84 113 
L 147 113 
Q 366 113 442 223 
Q 519 334 519 647 
L 519 1709 
Q 519 2225 495 2337 
Q 472 2450 423 2490 
Q 375 2531 294 2531 
Q 206 2531 84 2484 
L 38 2597 
L 900 2947 
L 1034 2947 
L 1034 2341 
z
" transform="scale(0.015625)"/>
      </defs>
      <use xlink:href="#TimesNewRomanPSMT-45"/>
      <use xlink:href="#TimesNewRomanPSMT-78" transform="translate(61.083984 0)"/>
      <use xlink:href="#TimesNewRomanPSMT-70" transform="translate(111.083984 0)"/>
      <use xlink:href="#TimesNewRomanPSMT-65" transform="translate(161.083984 0)"/>
      <use xlink:href="#TimesNewRomanPSMT-63" transform="translate(205.46875 0)"/>
      <use xlink:href="#TimesNewRomanPSMT-74" transform="translate(249.853516 0)"/>
      <use xlink:href="#TimesNewRomanPSMT-65" transform="translate(277.636719 0)"/>
      <use xlink:href="#TimesNewRomanPSMT-64" transform="translate(322.021484 0)"/>
      <use xlink:href="#TimesNewRomanPSMT-20" transform="translate(372.021484 0)"/>
      <use xlink:href="#TimesNewRomanPSMT-66" transform="translate(397.021484 0)"/>
      <use xlink:href="#TimesNewRomanPSMT-6f" transform="translate(430.322266 0)"/>
      <use xlink:href="#TimesNewRomanPSMT-72" transform="translate(480.322266 0)"/>
      <use xlink:href="#TimesNewRomanPSMT-20" transform="translate(513.623047 0)"/>
      <use xlink:href="#TimesNewRomanPSMT-69" transform="translate(538.623047 0)"/>
      <use xlink:href="#TimesNewRomanPSMT-6e" transform="translate(566.40625 0)"/>
      <use xlink:href="#TimesNewRomanPSMT-64" transform="translate(616.40625 0)"/>
      <use xlink:href="#TimesNewRomanPSMT-65" transform="translate(666.40625 0)"/>
      <use xlink:href="#TimesNewRomanPSMT-70" transform="translate(710.791016 0)"/>
      <use xlink:href="#TimesNewRomanPSMT-65" transform="translate(760.791016 0)"/>
      <use xlink:href="#TimesNewRomanPSMT-6e" transform="translate(805.175781 0)"/>
      <use xlink:href="#TimesNewRomanPSMT-64" transform="translate(855.175781 0)"/>
      <use xlink:href="#TimesNewRomanPSMT-65" transform="translate(905.175781 0)"/>
      <use xlink:href="#TimesNewRomanPSMT-6e" transform="translate(949.560547 0)"/>
      <use xlink:href="#TimesNewRomanPSMT-63" transform="translate(999.560547 0)"/>
      <use xlink:href="#TimesNewRomanPSMT-65" transform="translate(1043.945312 0)"/>
     </g>
    </g>
   </g>
  </g>
 </g>
 <defs>
  <clipPath id="p1438a655f5">
   <rect x="59.0375" y="31.92" width="357.8425" height="203.91625"/>
  </clipPath>
 </defs>
</svg>
